<svg xmlns="http://www.w3.org/2000/svg" viewBox="0 0 128 128" role="img" aria-label="Biomass icon">
  <defs>
    <mask id="biomass-cut">
      <rect width="128" height="128" fill="black"/>
      <path fill="white" d="M16 89c5-19 21-30 43-28 6-21 24-34 44-27 13 19 5 42-16 52 13 3 22 11 25 25H19c-3-7-4-14-3-22Z"/>
      <path fill="white" d="M38 53c-14 0-25-10-27-24 20-5 36 5 43 22l-16 2Z"/>
      <path fill="white" d="M94 29c3-12 12-20 25-22 6 17-1 31-18 40l-7-18Z"/>
      <g fill="black">
        <path d="M36 88c18 9 43 7 61-8 5-4 10 4 6 9-18 23-55 28-80 11-6-4 6-18 13-12Z"/>
        <path d="M61 61c10-12 25-17 40-13 5 1 5 8 0 8-15 1-26 7-34 17-4 5-11-7-6-12Z"/>
        <path d="M25 31c10 0 18 6 23 16-13-3-21-8-23-16Z"/>
        <circle cx="45" cy="76" r="6"/>
        <circle cx="72" cy="83" r="5"/>
        <circle cx="91" cy="66" r="5"/>
      </g>
    </mask>
    <filter id="soft-glow" x="-35%" y="-35%" width="170%" height="170%">
      <feGaussianBlur in="SourceAlpha" stdDeviation="2.2" result="blur"/>
      <feMerge>
        <feMergeNode in="blur"/>
        <feMergeNode in="SourceGraphic"/>
      </feMerge>
    </filter>
  </defs>
  <rect width="128" height="128" fill="none"/>
  <g mask="url(#biomass-cut)" filter="url(#soft-glow)">
    <rect width="128" height="128" fill="#fff"/>
  </g>
</svg>
