<svg xmlns="http://www.w3.org/2000/svg" viewBox="0 0 128 128" role="img" aria-label="Cells icon">
  <defs>
    <mask id="cells-cut">
      <rect width="128" height="128" fill="black"/>
      <g fill="white">
        <circle cx="49" cy="53" r="31"/>
        <circle cx="83" cy="79" r="23"/>
        <circle cx="88" cy="34" r="17"/>
      </g>
      <g stroke="white" stroke-width="10" stroke-linecap="round">
        <path d="M25 30l9 9"/>
        <path d="M18 57h13"/>
        <path d="M31 84l10-10"/>
        <path d="M50 17v13"/>
        <path d="M73 31l10-10"/>
        <path d="M67 92l8-8"/>
        <path d="M103 64l-9 8"/>
        <path d="M105 93l-10-8"/>
      </g>
      <g fill="black">
        <circle cx="49" cy="53" r="11"/>
        <circle cx="83" cy="79" r="8"/>
        <circle cx="88" cy="34" r="6"/>
        <circle cx="34" cy="44" r="4"/>
        <circle cx="42" cy="70" r="4"/>
        <circle cx="61" cy="36" r="4"/>
        <circle cx="65" cy="62" r="4"/>
        <circle cx="74" cy="92" r="3"/>
        <circle cx="95" cy="78" r="3"/>
      </g>
    </mask>
    <filter id="soft-glow" x="-35%" y="-35%" width="170%" height="170%">
      <feGaussianBlur in="SourceAlpha" stdDeviation="2.2" result="blur"/>
      <feMerge>
        <feMergeNode in="blur"/>
        <feMergeNode in="SourceGraphic"/>
      </feMerge>
    </filter>
  </defs>
  <rect width="128" height="128" fill="none"/>
  <g mask="url(#cells-cut)" filter="url(#soft-glow)">
    <rect width="128" height="128" fill="#fff"/>
  </g>
</svg>
