<svg xmlns="http://www.w3.org/2000/svg" viewBox="0 0 512 512" width="512" height="512" role="img" aria-label="Polymerase Drive icon">
  <path fill="#fff" fill-rule="evenodd" d="M 137.15 374 C 137.2 376.25 139.98 383.45 141.52 385 C 143.05 386.55 149.99 388.87 152 388.99 C 154.01 389.11 157.8 387.95 161 386.17 C 164.2 384.4 179.07 373.75 183 371.78 C 186.93 369.81 195.8 367.62 199 367.09 C 202.2 366.56 207.7 365.96 214 366.66 C 220.3 367.36 253.08 373.17 260 373.87 C 266.92 374.56 277.18 373.72 281 373.38 C 284.82 373.04 293.18 371.68 297 370.57 C 300.82 369.45 311.08 366.32 318 362.62 C 324.92 358.93 354.29 339.24 364 334.84 C 373.71 330.43 406.34 322.25 412 319.99 C 417.66 317.74 418.02 314.65 418.82 313 C 419.62 311.35 420.02 305.61 419.73 304 C 419.44 302.39 417.21 298.52 416 297.46 C 414.79 296.39 410.58 294.07 408 293.66 C 405.42 293.26 394.72 293.21 391 293.53 C 387.28 293.85 377.37 295.08 372 296.75 C 366.63 298.42 346.44 305.85 339 309.7 C 331.56 313.56 306.2 330.97 300 334.08 C 293.8 337.19 283.13 339.18 279 339.83 C 274.87 340.47 266.82 341.02 260 340.33 C 253.18 339.64 220.85 333.58 213 333.12 C 205.15 332.65 188.86 334.87 184 335.84 C 179.14 336.81 169.39 340.84 166 342.51 C 162.61 344.18 153.8 349.86 151.21 352 C 148.63 354.14 142.45 360.92 141 363.2 C 139.55 365.47 137.09 371.75 137.15 374 Z M 259.6 187 C 259.6 189.03 260.92 195.47 262 197.35 C 263.08 199.22 268.35 204.05 270 205.11 C 271.65 206.18 275.52 207.47 278 207.65 C 280.48 207.84 291.11 206.78 294 206.91 C 296.89 207.04 303.83 208.24 306 208.87 C 308.17 209.49 313.24 211.85 315 212.96 C 316.76 214.07 321.39 217.62 323 219.59 C 324.61 221.55 329.51 229.27 330.59 232 C 331.67 234.73 333.34 243.21 333.42 246 C 333.49 248.79 332.28 255.8 331.29 259 C 330.31 262.2 324.56 274.21 323.88 277 C 323.21 279.79 324.22 284.5 324.75 286 C 325.28 287.5 327.84 290.59 329 291.48 C 330.16 292.36 334.45 294.31 336 294.53 C 337.55 294.74 342.47 294.11 344 293.54 C 345.53 292.97 349.4 290.3 350.8 289 C 352.21 287.7 356.19 283.17 357.58 281 C 358.98 278.83 363.22 270.79 364.32 268 C 365.42 265.21 367.7 256.89 368.22 254 C 368.74 251.11 369.49 243.1 369.4 240 C 369.3 236.9 367.96 227 367.32 224 C 366.68 221 365.05 214.62 363.22 211 C 361.39 207.38 352.34 192.47 349.63 189 C 346.92 185.53 339.75 179.47 337 177.45 C 334.25 175.42 325.58 170.65 323 169.42 C 320.42 168.19 314.79 166.18 312 165.54 C 309.21 164.9 299.2 163.31 296 163.25 C 292.8 163.19 283.69 164.31 281 164.95 C 278.31 165.6 271.96 168.17 270 169.49 C 268.04 170.81 263.08 175.93 262 177.74 C 260.92 179.55 259.6 184.97 259.6 187 Z M 197.53 256 C 197.14 259.51 197.57 267.8 198.09 271 C 198.61 274.2 201.2 283.82 202.53 287 C 203.87 290.18 208.88 298.99 211 301.78 C 213.12 304.57 220.12 311.79 223.01 314 C 225.9 316.21 235.59 321.8 239 323.18 C 242.41 324.56 252.69 326.94 256 327.33 C 259.31 327.72 268.36 327.58 271 326.92 C 273.64 326.27 280.13 322.54 281.52 321 C 282.91 319.46 284.55 313.86 284.46 312 C 284.36 310.14 281.56 304.31 280.58 303 C 279.6 301.69 277.85 300.38 275 299.27 C 272.15 298.17 256.1 293.78 253 292.32 C 249.9 290.85 246.34 286.63 245 285.09 C 243.66 283.55 240.85 279.72 240 277.44 C 239.15 275.16 236.57 267.08 236.73 263 C 236.89 258.92 241.34 241.41 241.56 238 C 241.78 234.59 239.59 231.34 238.84 230 C 238.1 228.66 236.09 225.9 234.35 225 C 232.61 224.1 224.52 221.16 222 221.25 C 219.48 221.33 212.08 224.18 210 225.81 C 207.92 227.44 203.14 233.88 201.85 237 C 200.56 240.12 197.91 252.49 197.53 256 Z M 144.47 146 C 144.45 148.17 146.1 155.04 146.88 157 C 147.66 158.96 148.68 161.99 152 165.01 C 155.32 168.03 175.18 183.82 179 186.21 C 182.82 188.6 187.04 188.16 189 188.14 C 190.96 188.12 196.33 186.76 198 186.02 C 199.67 185.28 203.92 182.35 205.19 181 C 206.47 179.65 209.66 175.07 210.33 173 C 211 170.93 211.95 163.17 211.7 161 C 211.45 158.83 211.82 155.65 207.93 152 C 204.03 148.35 178.64 128.52 174 125.68 C 169.36 122.84 165.04 124.28 163 124.52 C 160.96 124.76 155.88 126.81 154.23 128 C 152.59 129.19 148.09 134.14 147.08 136 C 146.07 137.86 144.5 143.83 144.47 146 Z M 259.69 278 C 259.79 279.15 262.04 282.76 263 283.4 C 263.96 284.04 267.24 284.63 269 284.22 C 270.76 283.81 278.15 280.6 280 279.44 C 281.85 278.28 285.74 274.91 286.91 273 C 288.08 271.09 290.97 264.1 291.31 261 C 291.65 257.9 289.9 245.41 290.17 243 C 290.45 240.59 292.43 238.93 294 237.69 C 295.57 236.45 304.14 232.21 305.41 231 C 306.68 229.79 306.41 226.94 306.26 226 C 306.12 225.06 304.65 222.5 304 221.92 C 303.35 221.35 301.03 220.44 300 220.42 C 298.97 220.41 295.96 220.79 294 221.78 C 292.04 222.77 282.89 227.91 280.99 230 C 279.09 232.09 276.08 238.69 275.59 242 C 275.1 245.31 276.56 259.42 276.25 262 C 275.93 264.58 274.03 265.94 272.55 267 C 271.08 268.06 263.33 271.14 262 272.28 C 260.67 273.41 259.59 276.85 259.69 278 Z M 148.98 215 C 148.98 216.65 150.2 221.55 150.85 223 C 151.5 224.45 154.13 227.93 155.28 229 C 156.43 230.07 160.48 232.74 162 233.4 C 163.52 234.06 167.71 235.53 170 235.38 C 172.29 235.24 182.24 232.88 184.21 232 C 186.17 231.12 188.27 228.07 189 226.83 C 189.73 225.59 191.13 221.53 191.25 220 C 191.37 218.47 190.7 213.65 190.16 212 C 189.62 210.35 187.05 205.4 186 204.01 C 184.95 202.62 181.45 199.43 180 198.56 C 178.55 197.69 173.76 195.79 172 195.56 C 170.24 195.33 164.65 195.86 163 196.34 C 161.35 196.81 157.26 199.06 156 200.16 C 154.74 201.26 151.52 205.47 150.79 207 C 150.07 208.53 148.97 213.35 148.98 215 Z"/>
</svg>
