<svg xmlns="http://www.w3.org/2000/svg" viewBox="0 0 512 512" width="512" height="512" role="img" aria-label="Polymerase Drive icon">
  <path fill="#fff" fill-rule="evenodd" d="M 316.73 153 C 316.4 157.86 318.32 171.66 319.69 176 C 321.06 180.34 326.97 191.42 330 194.97 C 333.03 198.52 344.76 208.16 349 210.36 C 353.24 212.55 367.38 215.7 371 216.23 C 374.62 216.76 381.42 215.91 384 215.5 C 386.58 215.09 392.9 213.79 396 212.27 C 399.1 210.75 410.86 203.71 414 200.79 C 417.14 197.87 424.44 188.11 426.36 184 C 428.29 179.89 432.2 165.65 432.6 161 C 433.01 156.35 431.63 143.44 430.26 139 C 428.9 134.56 421.43 121.1 419.37 118 C 417.31 114.9 412.32 110.61 410.32 109 C 408.31 107.39 403.13 103.66 400 102.39 C 396.87 101.12 383.31 97.26 380 96.68 C 376.69 96.1 370.48 96.49 368 96.79 C 365.52 97.09 359.25 98.11 356 99.58 C 352.75 101.05 340 107.96 336.58 111 C 333.15 114.04 324.88 124.66 322.83 129 C 320.78 133.34 317.05 148.14 316.73 153 Z M 77.88 349 C 77.77 352.72 79.66 363.8 80.59 367 C 81.52 370.2 85.28 377.57 86.87 380 C 88.46 382.43 93.61 388.5 96 390.53 C 98.39 392.57 106.9 398.28 110 399.71 C 113.1 401.14 122.38 403.93 126 404.38 C 129.62 404.82 141.52 404.67 145 404.01 C 148.48 403.35 157.29 399.65 159.7 398 C 162.11 396.35 167.41 389.86 168.34 388 C 169.27 386.14 169.29 381.56 168.74 380 C 168.19 378.44 164.21 373.78 163 372.86 C 161.79 371.93 159.07 371.02 157 371.08 C 154.93 371.14 145.48 373.38 143 373.44 C 140.52 373.5 135.04 372.41 133 371.64 C 130.96 370.87 124.99 367.41 123.28 366 C 121.58 364.59 117.56 359.78 116.5 358 C 115.44 356.22 113.37 350.61 113 348.75 C 112.63 346.89 112.7 341.63 112.96 340 C 113.23 338.37 114.43 334.76 115.57 333 C 116.7 331.24 122.88 324.65 123.92 323 C 124.95 321.35 125.62 318.34 125.59 317 C 125.56 315.66 124.33 311.17 123.64 310 C 122.96 308.83 120 306.28 119 305.72 C 118 305.16 115.34 304.51 114 304.58 C 112.66 304.66 108.32 305.24 106 306.42 C 103.68 307.6 94.1 313.46 91.59 316 C 89.08 318.54 83.1 327.59 81.69 331 C 80.27 334.41 78 345.28 77.88 349 Z M 206.1 239 C 206.21 240.58 207.98 245.92 209 247.27 C 210.02 248.61 214.66 251.46 216 252.05 C 217.34 252.64 220.24 253.25 222 252.96 C 223.76 252.68 230.93 249.65 233 249.25 C 235.07 248.86 240.35 248.91 242 249.13 C 243.65 249.35 247.55 250.61 249 251.41 C 250.45 252.21 254.62 254.85 256 256.88 C 257.38 258.9 262.04 267.16 262.33 271 C 262.62 274.84 258.88 291 258.78 294 C 258.68 297 260.64 298.92 261.38 300 C 262.13 301.08 264.8 303.72 266 304.46 C 267.2 305.2 271.55 306.93 273 307.18 C 274.45 307.44 278.66 307.22 280 306.91 C 281.34 306.59 284.76 305.05 286 304.12 C 287.24 303.19 290.68 300.41 292 297.92 C 293.32 295.43 298.17 284.12 298.73 280 C 299.28 275.88 298.37 262.21 297.36 258 C 296.36 253.79 291.44 242.77 289 239.26 C 286.56 235.75 277.33 226.41 273.72 224 C 270.1 221.59 258.1 216.8 254 215.95 C 249.9 215.1 238.03 214.98 234 215.82 C 229.97 216.65 217.69 222.35 215 224.03 C 212.31 225.7 208.88 230.45 207.96 232 C 207.04 233.55 206 237.42 206.1 239 Z M 184.46 280 C 184.39 282.69 185.17 291.21 185.83 294 C 186.49 296.79 189.49 304.52 190.84 307 C 192.2 309.48 197.1 316.04 198.97 318 C 200.85 319.96 206.83 324.63 209 326.01 C 211.17 327.39 217.21 330.51 220 331.36 C 222.79 332.22 233.11 334.25 236 334.26 C 238.89 334.26 246.12 332.3 248 331.44 C 249.88 330.59 253.23 327.6 254.21 326 C 255.19 324.4 257.41 317.96 257.48 316 C 257.56 314.04 255.91 308.53 254.93 307 C 253.95 305.47 250.37 301.97 248 301.19 C 245.63 300.41 234.75 300.3 232 299.45 C 229.25 298.61 223.11 294.8 221.37 293 C 219.62 291.2 215.98 284.89 215.13 282 C 214.29 279.11 213.94 267.44 213.21 265 C 212.47 262.56 209.47 259.32 208 258.43 C 206.53 257.54 200.69 256.24 199 256.4 C 197.31 256.56 192.98 258.8 191.69 260 C 190.4 261.2 187.26 265.93 186.51 268 C 185.77 270.07 184.53 277.31 184.46 280 Z M 359.37 156 C 359.35 158.26 362.26 165.38 363.77 167 C 365.28 168.62 371.81 171.62 374 171.66 C 376.19 171.7 383.37 168.9 385 167.39 C 386.63 165.87 389.67 159.19 389.78 157 C 389.88 154.81 386.8 147.64 386 146.17 C 385.2 144.69 383.14 143.25 382 142.69 C 380.86 142.14 376.86 140.51 375 140.77 C 373.14 141.02 365.62 143.6 364 145.17 C 362.38 146.75 359.39 153.74 359.37 156 Z M 152.43 325 C 152.46 325.86 154.22 328.9 155 329.29 C 155.78 329.69 157.62 330.36 160 328.85 C 162.38 327.33 176.04 316.69 178 314.64 C 179.96 312.59 179.14 309.81 178.93 309 C 178.72 308.19 176.72 306.94 176 306.77 C 175.28 306.61 174.21 305.9 172 307.37 C 169.79 308.84 156.67 319.18 154.64 321 C 152.62 322.82 152.39 324.14 152.43 325 Z M 288.76 216 C 287.21 218.28 290.15 220.04 291 220.4 C 291.85 220.76 294.76 221.09 297 219.5 C 299.24 217.91 310.97 207.12 312.64 205 C 314.31 202.88 313.42 199.82 313.15 199 C 312.88 198.18 310.74 197.14 310 197.06 C 309.26 196.99 308.19 196.34 306 198.3 C 303.81 200.26 290.31 213.72 288.76 216 Z M 301.72 231 C 301.76 231.85 303.25 234.79 304 235.19 C 304.75 235.59 306.79 236.41 309 234.84 C 311.21 233.27 323.6 222.15 325.35 220 C 327.1 217.85 326.2 214.83 325.96 214 C 325.72 213.17 323.72 212.11 323 211.99 C 322.28 211.88 321 211.35 319 212.9 C 317 214.45 305.39 225.13 303.61 227 C 301.82 228.87 301.68 230.15 301.72 231 Z M 164.57 340 C 164.57 340.88 166.18 344.11 167 344.52 C 167.82 344.94 170.11 345.5 172.46 344 C 174.82 342.5 188.01 332.05 189.82 330 C 191.63 327.95 190.29 324.96 190 324.16 C 189.71 323.36 187.68 322.36 187 322.24 C 186.32 322.12 185.48 321.58 183.41 323 C 181.35 324.42 168.95 334.27 167 336.03 C 165.05 337.78 164.57 339.12 164.57 340 Z M 226.53 275 C 226.53 276.78 228.81 282.55 230 283.82 C 231.19 285.09 236.28 287.26 238 287.28 C 239.72 287.3 245.34 285.27 246.63 284 C 247.91 282.73 250.49 276.86 250.43 275 C 250.37 273.14 247.35 267.21 246.07 266 C 244.78 264.79 239.66 263.26 238 263.32 C 236.34 263.39 231.19 265.43 230 266.63 C 228.81 267.84 226.53 273.22 226.53 275 Z"/>
</svg>
