<svg xmlns="http://www.w3.org/2000/svg" viewBox="0 0 1254 1254" width="1254" height="1254" role="img" aria-label="Cell-to-Cell Spread icon">
  <path fill="#fff" fill-rule="evenodd" d="M 147.5 841 C 147.18 847.51 148.09 865.94 148.51 871 C 148.94 876.06 150.63 885.76 151.6 890 C 152.56 894.24 155.94 907.04 157.83 912 C 159.71 916.96 167.26 933.35 169.81 938 C 172.37 942.65 179.24 952.92 182.56 957 C 185.89 961.08 198.03 973.91 202 977.44 C 205.97 980.98 217.22 988.85 221 991.18 C 224.78 993.51 235.1 998.45 238.61 1000 C 242.12 1001.55 250.41 1004.99 255 1006.18 C 259.59 1007.37 277.01 1010.94 283 1011.48 C 288.99 1012.02 305.77 1011.92 313 1011.41 C 320.23 1010.9 344.94 1006.72 353 1006.53 C 361.06 1006.34 384.7 1008.52 391 1009.59 C 397.3 1010.65 406.56 1013.67 414 1016.83 C 421.44 1019.99 454.32 1036.91 463 1040.17 C 471.68 1043.43 490.25 1047.56 498 1048.41 C 505.75 1049.26 531.28 1048.95 538 1048.41 C 544.72 1047.87 558.04 1044.66 563 1043.18 C 567.96 1041.7 580.37 1037.24 586 1034.12 C 591.63 1031 612.37 1017.04 617.48 1013 C 622.59 1008.96 631.95 999.13 635.44 995 C 638.92 990.87 647.8 978.99 651.19 973 C 654.57 967.01 665.88 942.58 668.17 937 C 670.47 931.42 672.44 923.65 673.4 919 C 674.37 914.35 677.07 896.86 677.49 892 C 677.9 887.14 677.85 876.65 677.4 872 C 676.96 867.35 674.23 851.44 673.17 847 C 672.12 842.56 668.74 832.72 667.19 829 C 665.64 825.28 660.69 815.08 658.19 811 C 655.69 806.92 646.22 793.39 643 789.52 C 639.78 785.65 631.13 777.18 627 773.56 C 622.87 769.94 606.84 758.27 603 754.49 C 599.16 750.71 591.42 740.15 589.83 737 C 588.23 733.85 587.55 726.38 587.6 724 C 587.64 721.62 589.42 715.96 590.27 714 C 591.12 712.04 592.28 709.34 595.81 705 C 599.35 700.66 620.24 676.36 624.5 672 C 628.76 667.64 634.47 663.9 637 662.83 C 639.53 661.75 645.38 661.31 649 661.59 C 652.62 661.86 666.52 665.31 672 665.5 C 677.48 665.69 695.8 664.78 702 663.41 C 708.2 662.04 726.73 654.94 732 652.26 C 737.27 649.57 748.95 641.19 753 637.44 C 757.05 633.7 768.08 620.7 771.2 616 C 774.32 611.3 781.28 597.48 783.16 592 C 785.04 586.52 788.96 569.41 789.4 563 C 789.85 556.59 787.45 534.34 787.5 530 C 787.55 525.66 789.01 522.7 789.89 521 C 790.77 519.3 790.82 517.72 796 513.56 C 801.18 509.4 834.52 484.46 840 480.74 C 845.48 477.03 846.93 477.79 849 477.59 C 851.07 477.39 856.38 477.11 860 478.82 C 863.62 480.53 879.04 491.36 884 494.18 C 888.96 497.01 902.73 504.12 908 506.18 C 913.27 508.25 930.66 513.12 935 514.18 C 939.34 515.24 945.25 516.25 950 516.48 C 954.75 516.71 975.01 516.96 981 516.41 C 986.99 515.86 1002.42 512.85 1008 511.18 C 1013.58 509.51 1030.14 502.71 1035 500.26 C 1039.86 497.8 1051.23 490.26 1055 487.44 C 1058.77 484.63 1067.8 477.08 1071.44 473 C 1075.07 468.92 1087.11 452.86 1090.19 448 C 1093.26 443.14 1099.42 430.34 1101.17 426 C 1102.93 421.66 1106.21 410.24 1107.17 406 C 1108.13 401.76 1110.15 389.13 1110.49 385 C 1110.82 380.87 1110.95 370.65 1110.4 366 C 1109.85 361.35 1106.74 345.17 1105.17 340 C 1103.6 334.83 1097.54 320.34 1095.19 316 C 1092.84 311.66 1084.73 300.84 1082.44 298 C 1080.14 295.16 1080.1 293.41 1073 288.56 C 1065.9 283.7 1023.64 258.75 1013.72 251 C 1003.8 243.25 983.07 219.11 977 213.56 C 970.93 208 959.34 199.74 955 197.26 C 950.66 194.78 939.75 190.6 935 189.59 C 930.25 188.58 913.13 187.48 909 187.5 C 904.87 187.52 898.51 188.71 895 189.82 C 891.49 190.93 878.31 196.53 875 198.26 C 871.69 199.99 865.27 204.67 863 206.56 C 860.73 208.44 855.24 213.68 853 216.52 C 850.76 219.35 843.18 230.33 841.27 234 C 839.37 237.67 836.22 245.39 834.56 252 C 832.89 258.61 828.25 288.8 825.17 298 C 822.1 307.2 807.35 334.59 804.82 341 C 802.28 347.41 801.04 355.87 800.6 360 C 800.15 364.13 799.88 375.94 800.48 381 C 801.08 386.06 805.78 405.18 806.4 409 C 807.03 412.82 806.82 416.14 806.49 418 C 806.15 419.86 804.06 425.51 803.18 427 C 802.31 428.49 802.43 428.83 798 432.44 C 793.57 436.06 764.81 458.7 760.27 462 C 755.72 465.3 755.78 464.29 754 464.41 C 752.22 464.53 746.41 464.47 743 463.17 C 739.59 461.87 725.13 453.62 721 451.83 C 716.87 450.04 706.41 446.68 703 445.82 C 699.59 444.96 691.41 443.76 688 443.52 C 684.59 443.28 673.82 443.18 670 443.52 C 666.18 443.86 654.93 445.75 651 446.82 C 647.07 447.89 636.55 451.48 632 453.83 C 627.45 456.18 610.97 466.54 607 469.56 C 603.03 472.57 596.37 479.54 593.56 483 C 590.75 486.46 582.39 497.63 579.81 503 C 577.23 508.37 569.96 529.11 568.6 535 C 567.23 540.89 566.26 554.63 566.6 560 C 566.93 565.37 570.59 582.35 571.82 587 C 573.04 591.65 577.85 601.9 578.4 605 C 578.96 608.1 577.63 615.19 577.17 617 C 576.72 618.81 578.51 617.63 574 622.48 C 569.49 627.34 538.75 659.07 533.48 664 C 528.21 668.93 525.63 669.3 523 670.17 C 520.37 671.04 511.51 672.72 508 672.41 C 504.49 672.1 498.3 671.78 489 667.17 C 479.7 662.56 428.23 632.83 418 627.83 C 407.77 622.83 395.17 620.08 390 618.82 C 384.83 617.56 373.79 615.82 368 615.59 C 362.21 615.36 340.1 615.94 334 616.59 C 327.9 617.23 313.96 620.45 309 621.82 C 304.04 623.19 290.96 627.66 286 629.83 C 281.04 632 265.86 639.85 261 642.82 C 256.14 645.78 243.18 655.23 239 658.56 C 234.82 661.88 224.14 671.44 220.58 675 C 217.02 678.56 208.36 688.04 204.56 693 C 200.76 697.96 187.61 716.59 183.81 723 C 180.02 729.41 170.51 748.8 167.83 755 C 165.14 761.2 159.51 777.52 157.83 783 C 156.15 788.48 152.66 802.01 151.6 808 C 150.53 813.99 147.82 834.49 147.5 841 Z M 606.51 554 C 606.49 557.1 607.94 566.11 608.6 569 C 609.25 571.89 611.28 578.9 612.83 582 C 614.37 585.1 621.38 596.16 623.56 599 C 625.75 601.84 631.78 607.61 634 609.44 C 636.22 611.28 641.28 615.19 645 616.74 C 648.72 618.29 665.35 623.69 670 624.48 C 674.65 625.27 687 624.65 690 624.41 C 693 624.17 696.73 622.93 699 622.18 C 701.27 621.43 709.31 618.53 712 617.11 C 714.69 615.69 722.78 610.21 725 608.44 C 727.22 606.68 731.55 602.42 733.44 600 C 735.32 597.58 741.84 587.58 743.26 585 C 744.68 582.42 746.42 577.89 747.17 575 C 747.92 572.11 750.26 560.2 750.49 557 C 750.72 553.8 749.95 546.89 749.4 544 C 748.85 541.11 746.72 532.51 745.17 529 C 743.63 525.49 737.55 513.69 734.44 510 C 731.32 506.31 718.46 495.66 715 493.26 C 711.54 490.87 704 487.83 701 486.82 C 698 485.81 689.2 483.85 686 483.52 C 682.8 483.18 672.69 483.35 670 483.59 C 667.31 483.83 662.48 485.03 660 485.82 C 657.52 486.61 649 489.63 646 491.26 C 643 492.89 633.58 499.34 631 501.56 C 628.42 503.78 622.83 510.21 621 512.74 C 619.17 515.27 614.53 523.29 613.27 526 C 612.01 528.71 609.53 536.11 608.83 539 C 608.13 541.89 606.54 550.9 606.51 554 Z"/>
</svg>
