<svg xmlns="http://www.w3.org/2000/svg" viewBox="0 0 512 512" width="512" height="512" role="img" aria-label="Dense Assembly icon">
  <path fill="#fff" fill-rule="evenodd" d="M 161.6 174 C 161.56 175.45 162.1 179.8 162.55 181 C 163.01 182.2 164.07 184.71 166 185.64 C 167.93 186.57 178.93 187.07 181.25 190 C 183.56 192.93 186.69 210.25 188.42 214 C 190.15 217.75 195.77 224.31 198 226.32 C 200.23 228.33 205.97 231.79 210 233.45 C 214.03 235.12 232.76 240.09 237 242.42 C 241.24 244.75 249.05 252.85 251 256.01 C 252.95 259.17 256.09 268.56 255.87 273 C 255.65 277.44 249.61 294.87 248.83 299 C 248.04 303.13 248.06 310.42 248.27 313 C 248.49 315.58 249.74 321.11 250.92 324 C 252.1 326.89 258.71 337.38 259.69 341 C 260.67 344.62 259.44 356.16 260.4 359 C 261.36 361.84 266.04 366.59 269 368.46 C 271.96 370.34 286.79 375.86 289 377.16 C 291.21 378.45 290.45 379.36 290.39 381 C 290.32 382.64 288.11 391.04 288.35 393 C 288.59 394.96 291.21 398.95 292.72 400 C 294.24 401.05 301.32 402.94 303 403.12 C 304.68 403.3 307.35 403.66 309 401.75 C 310.65 399.84 315.69 386.46 319 384.64 C 322.31 382.82 336.97 384.6 341 384.1 C 345.03 383.61 354.8 381.27 358 379.83 C 361.2 378.4 369.11 373.36 372 370.2 C 374.89 367.04 384.14 351.52 386 349.27 C 387.86 347.01 388.35 348.14 390 348.39 C 391.65 348.64 400 351.83 402 351.69 C 404 351.54 408.22 348.31 409.34 347 C 410.45 345.69 412.43 340.55 412.76 339 C 413.08 337.45 413.96 333.96 412.46 332 C 410.95 330.04 399.36 324.03 398.2 320 C 397.05 315.97 401.3 297.65 401.28 293 C 401.26 288.35 399.56 278.82 398.02 275 C 396.49 271.18 389.8 259.62 386.41 256 C 383.02 252.38 367.23 243 365.2 240 C 363.18 237 366.83 228.89 366.8 227 C 366.78 225.11 365.81 222.73 365 221.76 C 364.19 220.78 360.76 218.14 359 217.58 C 357.24 217.02 349.65 216.11 348 216.36 C 346.35 216.61 343.94 218.59 342.99 220 C 342.04 221.41 339.66 228.78 338.83 230 C 338 231.22 336.53 231.72 335 231.76 C 333.47 231.81 325.67 231.05 324 230.46 C 322.33 229.86 319.38 226.98 318.84 226 C 318.29 225.02 317.94 223.58 318.71 221 C 319.48 218.42 325.26 205.03 326.28 201 C 327.29 196.97 327.95 184.35 328.54 182 C 329.13 179.65 330.61 178.77 332 178.23 C 333.39 177.69 340.47 177.29 342 176.75 C 343.53 176.21 346.15 174.11 346.83 173 C 347.52 171.89 348.58 167.76 348.6 166 C 348.62 164.24 347.74 157.47 347.05 156 C 346.37 154.53 344.07 152.39 342 151.74 C 339.93 151.09 329.48 152.2 327 149.7 C 324.52 147.19 320.27 131.13 318 127.51 C 315.73 123.9 307.69 116.78 305 114.73 C 302.31 112.68 295.62 109.19 292 107.68 C 288.38 106.17 272.54 102.38 270 100.14 C 267.46 97.9 268.03 87.92 267.41 86 C 266.79 84.08 264.97 82.24 264 81.57 C 263.03 80.9 259.65 79.64 258 79.55 C 256.35 79.46 249.56 80.01 248 80.67 C 246.44 81.34 243.76 83.97 242.93 86 C 242.11 88.03 242.97 98.04 240 100.31 C 237.03 102.59 218.35 106.28 214.22 108 C 210.08 109.72 202.54 114.62 199.99 117 C 197.44 119.38 191.48 126.66 189.58 131 C 187.67 135.34 183.99 155.66 181.55 159 C 179.11 162.34 167.92 162.52 166 163.35 C 164.08 164.17 163.4 165.9 162.95 167 C 162.49 168.1 161.64 172.55 161.6 174 Z M 96.68 328 C 96.6 329.65 97.94 335.49 98.59 337 C 99.24 338.51 102.03 341.9 103 342.62 C 103.97 343.35 106.35 344.1 108 344.01 C 109.65 343.92 117.55 341.84 119 341.75 C 120.45 341.67 120.54 340.88 122 343.18 C 123.46 345.48 130.56 360.6 133.14 364 C 135.72 367.4 143.71 374.23 147 376.13 C 150.29 378.03 160.45 381.65 165 382.36 C 169.55 383.06 187.94 382.56 191 382.93 C 194.06 383.31 193.93 384.75 194.6 386 C 195.28 387.25 196.88 393.68 197.54 395 C 198.2 396.32 200.02 398.27 201 398.8 C 201.98 399.34 205.55 400.27 207 400.21 C 208.45 400.15 213.76 398.71 215 398.25 C 216.24 397.79 218.32 396.52 219 395.77 C 219.68 395.02 221.37 393.15 221.54 391 C 221.71 388.85 218.52 377.89 220.63 375 C 222.75 372.11 239.03 365.08 242 363.01 C 244.97 360.94 248.34 356.55 249.42 355 C 250.51 353.45 252.2 349.34 252.48 348 C 252.76 346.66 253.07 344.48 252.09 342 C 251.12 339.52 244.23 327.1 243.06 324 C 241.9 320.9 240.88 315.1 240.83 312 C 240.79 308.9 241.79 297.72 242.62 294 C 243.45 290.28 248.38 279.2 248.84 276 C 249.31 272.8 247.93 265.28 247.12 263 C 246.31 260.72 242.67 255.6 241 253.9 C 239.33 252.2 234.72 248.13 231 246.53 C 227.28 244.92 209.24 240.07 205 238.37 C 200.76 236.66 193 230.9 190 230.02 C 187 229.15 177.75 230.23 176 229.92 C 174.25 229.6 173.75 228.33 173.11 227 C 172.47 225.67 170.62 218.45 169.78 217 C 168.94 215.55 166.84 213.25 165 212.98 C 163.16 212.71 154 213.56 152 214.39 C 150 215.22 146.23 218.56 145.66 221 C 145.08 223.44 148.15 235 146.42 238 C 144.7 241 132.04 247.11 128.97 250 C 125.91 252.89 118.53 262.28 116.76 266 C 114.99 269.72 112.27 281.14 111.84 286 C 111.41 290.86 112.79 309.89 112.6 313 C 112.41 316.11 111.37 315.3 110 316.13 C 108.63 316.96 100.71 319.77 99.33 321 C 97.95 322.23 96.75 326.35 96.68 328 Z M 236.7 174 C 236.34 175.91 237.45 179.16 238 180.45 C 238.55 181.74 240.97 185.44 242 186.46 C 243.03 187.49 246.66 189.86 248 190.41 C 249.34 190.96 253.04 192.16 255 191.75 C 256.96 191.34 265.37 187.58 267 186.47 C 268.63 185.36 270.19 182.29 270.73 181 C 271.27 179.71 272.58 175.96 272.21 174 C 271.84 172.04 268.24 163.64 267.19 162 C 266.13 160.36 263.26 158.66 262 158.08 C 260.74 157.5 256.55 156.37 255 156.36 C 253.45 156.35 248.39 157.38 247 157.96 C 245.61 158.55 242.6 160.34 241.54 162 C 240.47 163.66 237.07 172.09 236.7 174 Z M 163.3 306 C 163.34 307.43 164.43 311.62 165 312.86 C 165.57 314.1 167.86 317.09 168.79 318 C 169.72 318.91 172.84 321.17 174 321.67 C 175.16 322.17 178.76 322.77 180 322.84 C 181.24 322.91 184.75 322.73 186 322.33 C 187.25 321.93 190.96 319.96 192.09 319 C 193.21 318.04 196.22 314.34 196.9 313 C 197.58 311.66 198.62 307.45 198.66 306 C 198.71 304.55 197.9 300.34 197.33 299 C 196.75 297.66 194.1 293.98 193.13 293 C 192.17 292.02 189.25 290 188 289.48 C 186.75 288.95 182.55 287.87 181 287.91 C 179.45 287.95 174.36 289.23 173 289.86 C 171.64 290.49 168.72 293.06 167.85 294 C 166.98 294.94 165.07 297.76 164.6 299 C 164.13 300.24 163.25 304.57 163.3 306 Z M 310.63 307 C 310.94 308.96 314.13 317.33 315.2 319 C 316.27 320.67 319.68 322.55 321 323.15 C 322.32 323.76 326.13 325.07 328 324.84 C 329.87 324.62 337.52 321.91 339.11 321 C 340.7 320.09 342.73 317.24 343.4 316 C 344.08 314.76 345.49 310.34 345.68 309 C 345.87 307.66 345.66 304.34 345.25 303 C 344.84 301.66 342.66 297.19 341.7 296 C 340.75 294.81 337.21 292.14 336 291.5 C 334.79 290.86 331.34 289.9 330 289.8 C 328.66 289.71 324.35 290.11 323 290.55 C 321.65 290.98 318.06 293.02 316.95 294 C 315.84 294.98 312.88 298.66 312.22 300 C 311.57 301.34 310.32 305.04 310.63 307 Z"/>
</svg>
