<svg xmlns="http://www.w3.org/2000/svg" viewBox="0 0 512 512" width="512" height="512" role="img" aria-label="Efficient Uptake icon">
  <path fill="#fff" fill-rule="evenodd" d="M 56.39 372 C 56.57 375.93 58.59 388.28 59.67 392 C 60.75 395.72 64.98 404.9 66.87 408 C 68.76 411.1 75.51 419.48 78 421.97 C 80.49 424.47 87.8 430.27 91 432.13 C 94.2 433.99 105.18 438.86 109 439.96 C 112.82 441.07 124.28 442.71 128 442.84 C 131.72 442.97 141.59 441.92 145 441.22 C 148.41 440.52 157.38 437.89 161 436.05 C 164.62 434.22 176.57 426.67 180 423.46 C 183.43 420.25 192.02 408.87 194.22 405 C 196.43 401.13 200.14 391.37 201.33 386 C 202.51 380.63 204.58 357.75 205.68 353 C 206.78 348.25 207.94 344.2 212 340.03 C 216.06 335.87 238.49 320.03 245 312.68 C 251.51 305.34 270.87 274.23 275 268.97 C 279.13 263.72 282.42 263.01 285 261.8 C 287.58 260.6 295.87 257.63 300 257.3 C 304.13 256.98 320.97 258.04 325 258.67 C 329.03 259.3 336.62 262.34 339 263.39 C 341.38 264.45 346.23 267.37 348 268.88 C 349.77 270.39 353.78 273.65 356.13 278 C 358.48 282.35 368 306.44 370.77 311 C 373.55 315.56 379.88 320.38 383 322.11 C 386.12 323.84 397.9 327.23 401 327.72 C 404.1 328.2 410.83 327.24 413 326.82 C 415.17 326.39 419.6 325.28 422 323.65 C 424.4 322.02 434.06 314.17 436.24 311 C 438.42 307.83 442.61 296.82 443.12 293 C 443.62 289.18 442.26 277.45 441.11 274 C 439.96 270.55 434.18 261.95 432 259.64 C 429.82 257.33 422.48 252.79 420 251.62 C 417.52 250.45 410.69 248.61 408 248.3 C 405.31 248 398.03 248.16 394 248.65 C 389.97 249.14 373.24 252.84 369 253.05 C 364.76 253.26 356.51 252.08 353 250.65 C 349.49 249.22 337.4 241.12 335 239.19 C 332.6 237.27 330.45 233.47 329.76 232 C 329.08 230.53 328.13 226.73 328.36 225 C 328.59 223.27 330.8 217.22 332 215.3 C 333.2 213.39 337.83 208.24 340 206.45 C 342.17 204.66 350.31 199.35 353 197.96 C 355.69 196.57 362.9 193.53 366 192.98 C 369.1 192.43 378.04 191.56 383 192.66 C 387.96 193.75 409.45 202.53 414 203.6 C 418.55 204.67 424.42 203.58 427 203.01 C 429.58 202.44 436.69 199.62 439 198.07 C 441.31 196.52 447.72 190.38 449.36 188 C 451.01 185.62 454.31 177.89 454.92 175 C 455.54 172.11 455.76 162.89 455.3 160 C 454.84 157.11 451.76 149.27 450.49 147 C 449.21 144.73 444.91 139.67 443 138.08 C 441.09 136.49 434.17 132.52 432 131.62 C 429.83 130.72 424.48 129.46 422 129.37 C 419.52 129.28 410.38 130.19 408 130.74 C 405.62 131.29 400.75 133.63 399 134.69 C 397.25 135.75 393.36 137.89 391.08 141 C 388.81 144.11 379.55 161.41 377 164.82 C 374.45 168.23 370.67 171.99 366.44 174 C 362.2 176.01 340.28 183.09 336 184.3 C 331.72 185.51 326.76 185.67 325 185.67 C 323.24 185.67 320.13 184.9 319 184.31 C 317.87 183.73 314.93 181.17 314.09 180 C 313.25 178.83 311.28 176 310.87 173 C 310.46 170 309.79 154.2 310.09 151 C 310.39 147.8 311.73 144.69 313.79 142 C 315.85 139.31 327.66 127.88 330 124.99 C 332.34 122.1 335.37 116.89 336.4 114 C 337.43 111.11 339.83 100.19 339.99 97 C 340.16 93.81 339.21 86.36 338 83.15 C 336.79 79.95 330.85 68.83 328.27 66 C 325.68 63.17 316.13 57.09 313 55.75 C 309.87 54.42 300.69 53.14 298 53.05 C 295.31 52.96 289.07 54.25 287 54.84 C 284.93 55.44 279.76 57.75 278 58.81 C 276.24 59.87 271.6 63.39 270 65.07 C 268.4 66.74 263.65 72.94 262.48 75 C 261.31 77.06 259.2 82.73 258.66 85 C 258.11 87.27 257.12 94.52 257.17 97 C 257.22 99.48 258.37 106.52 259.16 109 C 259.95 111.48 261.84 117.59 264.82 121 C 267.79 124.41 285.12 139 287.95 142 C 290.79 145 291.77 148.04 292.29 150 C 292.82 151.96 293.23 158.11 293.05 161 C 292.87 163.89 291.81 174.18 290.59 178 C 289.38 181.82 283.55 194.64 281.32 198 C 279.09 201.36 273.71 206.86 269 210.48 C 264.29 214.09 240.13 229.43 235.71 233 C 231.29 236.57 229.16 240.25 226.19 245 C 223.23 249.75 209.86 274.44 207 278.99 C 204.14 283.54 200.48 287.14 198.52 289 C 196.55 290.86 191.36 295.48 188 296.99 C 184.64 298.51 171.89 303.42 166 303.65 C 160.11 303.89 136.37 299.62 131 299.28 C 125.63 298.93 117.51 299.7 114 300.34 C 110.49 300.97 100.41 303.88 97 305.39 C 93.59 306.89 83.69 312.89 81 314.93 C 78.31 316.96 72.89 322.63 71 325.11 C 69.11 327.6 64.08 336.02 62.73 339 C 61.37 341.98 58.55 350.59 57.9 354 C 57.24 357.41 56.2 368.07 56.39 372 Z"/>
</svg>
