<svg xmlns="http://www.w3.org/2000/svg" viewBox="0 0 512 512" width="512" height="512" role="img" aria-label="Polymerase Drive icon">
  <path fill="#fff" fill-rule="evenodd" d="M 221.51 89 C 221.55 90.34 222.18 94.04 223.34 96 C 224.49 97.96 229.33 104.67 232.71 108 C 236.08 111.33 251.11 124.72 256 128.18 C 260.89 131.64 273.08 138.53 280 141.48 C 286.92 144.43 316.18 153.55 323 156.71 C 329.82 159.87 342.36 169.04 346 172.06 C 349.64 175.09 356.12 183.22 358.19 186 C 360.25 188.78 364.56 196 366.01 199 C 367.46 202 371.16 211.28 372.22 215 C 373.28 218.72 375.77 231.18 376.27 235 C 376.77 238.82 377.23 248.07 377.04 252 C 376.84 255.93 375.3 268.76 374.38 273 C 373.46 277.24 369.48 289.59 368.16 293 C 366.85 296.41 363.44 303.17 361.66 306 C 359.89 308.83 353.34 317.79 351 320.39 C 348.66 323 345.3 327.45 339 331.23 C 332.7 335.01 297.54 352.07 290 356.93 C 282.46 361.79 269.62 374.41 266 378.24 C 262.38 382.07 256.71 390.92 254.95 394 C 253.19 397.08 249.53 406.04 248.98 408 C 248.42 409.96 249.15 411.94 249.57 413 C 249.98 414.06 251.61 417.41 253 418.3 C 254.39 419.19 261.05 421.76 263 421.62 C 264.95 421.49 269.78 419.34 271.84 417 C 273.89 414.66 280.07 402.52 282.88 399 C 285.68 395.48 295.99 385.45 299 382.94 C 302.01 380.43 306.63 377.47 312 374.7 C 317.37 371.93 345.39 359.32 351 356.15 C 356.61 352.98 363.27 346.91 366.28 344 C 369.29 341.09 377.47 331.93 380.15 328 C 382.83 324.07 390.17 310.86 392.25 306 C 394.32 301.14 399.03 286.79 400.24 281 C 401.44 275.21 403.64 255.37 403.88 250 C 404.12 244.63 403.31 233.96 402.56 229 C 401.82 224.04 398.12 206.86 396.63 202 C 395.15 197.14 390.43 186.09 388.2 182 C 385.96 177.91 378.02 166.08 375 162.44 C 371.98 158.8 363.13 149.95 359 146.78 C 354.87 143.6 341.3 134.57 335 131.73 C 328.7 128.88 304.2 121.67 298 119.23 C 291.8 116.8 278.93 110.47 275 108.17 C 271.07 105.88 263.62 100.23 260 97.03 C 256.38 93.82 242.79 79.32 240 77.17 C 237.21 75.01 234.34 76.03 233 76.16 C 231.66 76.28 228.03 77.65 227 78.36 C 225.97 79.06 223.56 81.9 222.99 83 C 222.43 84.1 221.48 87.66 221.51 89 Z M 170.28 229 C 170.18 230.57 171.31 234.61 172 235.79 C 172.69 236.97 175.86 239.84 177 240.44 C 178.14 241.04 181.66 241.66 183 241.59 C 184.34 241.51 188.86 239.73 190 239.72 C 191.14 239.7 193.4 239.05 194 241.45 C 194.6 243.86 196.11 260.3 195.8 263 C 195.49 265.7 192.43 267.22 191 267.63 C 189.57 268.04 183.59 266.75 182 266.99 C 180.41 267.24 176.66 269.07 175.64 270 C 174.62 270.93 172.47 274.55 172.16 276 C 171.85 277.45 172.13 282.55 172.65 284 C 173.17 285.45 175.99 289.11 177.16 290 C 178.33 290.89 182.67 292.44 184 292.59 C 185.33 292.74 188.55 292.26 190 291.48 C 191.45 290.69 196.54 285.56 198 284.99 C 199.46 284.43 202.1 283.93 204.14 286 C 206.17 288.07 216.5 302.52 217.72 305 C 218.94 307.48 217.1 308.86 215.91 310 C 214.71 311.14 207.48 314.76 206.16 316 C 204.83 317.24 203.18 320.39 203.06 322 C 202.94 323.61 203.97 330 205 331.59 C 206.03 333.19 211.55 336.79 213 337.42 C 214.45 338.05 217.86 337.92 219 337.73 C 220.14 337.53 223.1 336.25 224 335.56 C 224.9 334.86 227.06 332.34 227.68 331 C 228.3 329.66 229.35 323.8 230 322.54 C 230.65 321.29 233.28 319.27 234 318.86 C 234.72 318.45 234.19 317.77 237 318.61 C 239.81 319.46 258.52 325.72 261.18 327 C 263.85 328.28 262.95 329.55 262.79 331 C 262.63 332.45 259.75 339.37 259.67 341 C 259.59 342.63 261.04 345.73 262 346.81 C 262.96 347.88 267.39 350.95 269 351.38 C 270.61 351.81 276.2 351.35 277.57 351 C 278.95 350.65 281.54 348.83 282.34 348 C 283.15 347.17 285.01 344.03 285.36 343 C 285.7 341.97 285.97 339.24 285.67 338 C 285.38 336.76 282.7 332.1 282.53 331 C 282.35 329.9 281.47 328.41 284 327.36 C 286.53 326.31 303.8 320.52 307 320.82 C 310.2 321.11 312.93 329.77 315 330.24 C 317.07 330.71 325.01 326.53 327 325.37 C 328.99 324.2 334.2 320.48 334.25 319 C 334.31 317.52 328.2 312.29 327.55 311 C 326.9 309.71 326.71 308.3 328 306.52 C 329.29 304.75 337.83 294.67 340 293.82 C 342.17 292.98 347.75 297.95 349 298.38 C 350.25 298.81 350.91 299.8 352.07 298 C 353.23 296.2 359.46 283.07 360.24 281 C 361.02 278.93 360.5 278.6 359.65 278 C 358.8 277.4 352.96 275.85 352 275.23 C 351.04 274.61 350.12 274.71 350.36 272 C 350.59 269.29 352.73 251.69 354.27 249 C 355.82 246.31 364.3 247.96 365.34 246 C 366.38 244.04 364.68 232.09 364.34 230 C 363.99 227.91 362.96 226.04 362 225.79 C 361.04 225.54 356.1 227.68 355 227.6 C 353.9 227.52 352.49 227.23 351.32 225 C 350.15 222.77 344.32 208.32 343.67 206 C 343.02 203.68 344.23 203.38 345 202.55 C 345.77 201.73 351.03 199.39 351.14 198 C 351.24 196.61 347.36 190.83 346 189.14 C 344.64 187.44 339.65 181.74 338 181.56 C 336.35 181.38 331.14 186.82 330 187.35 C 328.86 187.89 328.74 187.84 327 186.77 C 325.26 185.7 314.38 178.94 313.2 177 C 312.03 175.06 315.48 169.14 315.62 168 C 315.77 166.86 316.22 166.75 314.61 166 C 312.99 165.25 301.99 161.25 300 160.74 C 298.01 160.22 296.38 160.2 295.35 161 C 294.31 161.8 293.34 167.8 290 168.45 C 286.66 169.09 266 167.81 263 167.25 C 260 166.68 260.91 164.27 260.92 163 C 260.94 161.73 263.02 156.34 263.18 155 C 263.34 153.66 262.88 151.03 262.47 150 C 262.05 148.97 260 145.81 259.13 145 C 258.25 144.19 255.46 142.48 254 142.2 C 252.54 141.92 246.65 141.8 245 142.32 C 243.35 142.84 238.96 146.21 238 147.21 C 237.04 148.21 235.96 150.89 235.73 152 C 235.5 153.11 235.17 156.55 235.77 158 C 236.38 159.45 240.85 164.55 241.56 166 C 242.27 167.45 244.23 170.25 242.62 172 C 241.02 173.75 228.46 182.21 226 182.93 C 223.54 183.66 219.89 180.31 218.86 179 C 217.82 177.69 216.81 171.66 216 170.26 C 215.19 168.85 212.34 166.01 211 165.4 C 209.66 164.79 204.55 164.11 203 164.38 C 201.45 164.64 197.15 166.9 195.99 168 C 194.83 169.1 192.13 173.35 191.76 175 C 191.4 176.65 191.9 182.51 192.44 184 C 192.98 185.49 195.6 188.49 197 189.4 C 198.4 190.31 204.72 192.01 206 192.8 C 207.28 193.58 209.07 196.26 209.42 197 C 209.76 197.74 210.51 197.57 209.33 200 C 208.15 202.43 199.69 218.43 198 220.56 C 196.31 222.69 194.34 221.11 193 220.62 C 191.66 220.13 186.34 216.3 185 215.82 C 183.66 215.33 181.24 215.43 180 215.92 C 178.76 216.42 174 219.25 173 220.6 C 172 221.95 170.38 227.43 170.28 229 Z M 92.23 252 C 92.33 253.52 94.76 258.92 95.97 260 C 97.19 261.08 98.62 262.23 104 262.46 C 109.38 262.68 142.86 262.53 148 262.17 C 153.14 261.81 152.89 260.05 153.75 259 C 154.61 257.95 156.4 253.48 156.32 252 C 156.24 250.52 154.17 245.69 153 244.66 C 151.83 243.64 150.37 242.31 145 242.06 C 139.63 241.81 106.17 241.9 101 242.23 C 95.83 242.57 95.91 244.28 95 245.29 C 94.09 246.3 92.13 250.48 92.23 252 Z M 107.46 216 C 107.53 217.35 108.91 222 110 223.05 C 111.09 224.09 113.35 225.88 118 226.16 C 122.65 226.43 150.58 226.17 155 225.74 C 159.42 225.31 159.95 223.01 160.73 222 C 161.5 220.99 162.61 217.34 162.51 216 C 162.42 214.66 160.91 210.02 159.82 209 C 158.73 207.98 156.63 206.44 152 206.17 C 147.37 205.89 119.42 205.95 115 206.34 C 110.58 206.74 110.05 209 109.27 210 C 108.49 211 107.38 214.65 107.46 216 Z M 107.38 288 C 107.27 289.14 107.8 292.04 108.38 293 C 108.96 293.96 110.97 296.78 113 297.34 C 115.03 297.89 123.56 298.3 128 298.33 C 132.44 298.36 152.61 298.09 156 297.64 C 159.39 297.19 160.14 295 160.84 294 C 161.53 293 162.86 289.34 162.73 288 C 162.6 286.66 160.68 282 159.57 281 C 158.46 280 156.61 278.59 152 278.34 C 147.39 278.09 119.39 278.19 115 278.57 C 110.61 278.95 110.28 281.03 109.49 282 C 108.7 282.97 107.5 286.86 107.38 288 Z M 264.09 214 C 264.37 215.74 266.56 223.14 268 224.81 C 269.44 226.48 276.24 229.66 278 230.16 C 279.76 230.65 283.66 230 285 229.58 C 286.34 229.16 289.84 227.51 291 226.11 C 292.16 224.7 295.75 217.66 296.26 216 C 296.76 214.34 296.24 211.24 295.9 210 C 295.55 208.76 294.36 205.24 292.92 204 C 291.49 202.76 283.75 198.59 282 198.02 C 280.25 197.45 277.34 198 276 198.45 C 274.66 198.9 270.11 201.38 269 202.37 C 267.89 203.36 265.76 206.8 265.25 208 C 264.74 209.2 263.8 212.26 264.09 214 Z M 269.87 285 C 269.89 287.27 273.05 294.41 274.72 296 C 276.38 297.59 283.73 300.35 286 300.35 C 288.27 300.35 295.09 297.59 296.69 296 C 298.3 294.41 301.5 287.27 301.53 285 C 301.56 282.73 297.98 275.5 297 274.01 C 296.02 272.52 293.14 271.03 292 270.56 C 290.86 270.08 287.24 269.42 286 269.4 C 284.76 269.39 281.18 269.93 280 270.4 C 278.82 270.88 275.59 272.49 274.54 274 C 273.5 275.51 269.85 282.73 269.87 285 Z"/>
</svg>
