<svg xmlns="http://www.w3.org/2000/svg" viewBox="0 0 1254 1254" width="1254" height="1254" role="img" aria-label="Entry Rhythm icon">
  <path fill="#fff" fill-rule="evenodd" d="M 130.5 647 C 130.06 652.06 130.05 662.63 130.6 668 C 131.15 673.37 134.52 693.52 135.83 699 C 137.14 704.48 140.9 715.73 143.27 721 C 145.65 726.27 154.96 744.11 158.82 750 C 162.67 755.89 176.36 773.14 180.56 778 C 184.77 782.86 193.07 791.61 199.52 797 C 205.97 802.39 235.87 825.22 243 830.18 C 250.13 835.14 262.48 841.9 268.47 845 C 274.47 848.1 295.16 857.7 301 860.2 C 306.84 862.7 318.8 867.24 325 869.23 C 331.2 871.21 353.77 877.74 361 879.42 C 368.23 881.1 388.08 884.53 395 885.47 C 401.92 886.4 418.39 888.28 428 888.48 C 437.61 888.68 477.87 888.04 488 887.41 C 498.13 886.78 516.39 884.3 526 882.41 C 535.61 880.53 570.36 872.41 581 869.18 C 591.64 865.95 620.22 854.99 629 851.17 C 637.78 847.35 658.84 836.33 666 832.18 C 673.16 828.03 692.7 815 698.28 811 C 703.86 807 710.47 802.43 720 793.44 C 729.53 784.45 780.91 733.18 790.52 724 C 800.13 714.82 806.85 709.14 813 704.57 C 819.15 700.01 843.8 683.51 850 679.82 C 856.2 676.13 867.63 671.02 873 668.85 C 878.37 666.68 895.18 660.6 902 658.82 C 908.82 657.04 930.01 652.56 939 651.59 C 947.99 650.63 977.74 649.4 989 649.5 C 1000.26 649.6 1040.15 652.58 1048 652.54 C 1055.85 652.51 1061.74 650.17 1065 649.18 C 1068.26 648.19 1076.81 644.42 1079.5 643 C 1082.19 641.58 1088.67 637.36 1091 635.44 C 1093.33 633.53 1099.6 627.63 1102 624.48 C 1104.4 621.34 1112.36 609.18 1114.26 605 C 1116.16 600.82 1119.67 588.86 1120.4 584 C 1121.14 579.14 1121.61 562.65 1121.4 558 C 1121.2 553.35 1119.36 543.13 1118.4 539 C 1117.45 534.87 1114.26 523.06 1112.17 518 C 1110.08 512.94 1101.67 495.37 1098.19 490 C 1094.71 484.63 1083.36 470.67 1078.48 466 C 1073.61 461.33 1058.08 449.28 1051 444.82 C 1043.92 440.36 1018.89 426.65 1010 422.83 C 1001.11 419.01 973.68 410.01 965 407.82 C 956.32 405.63 934.99 402.23 926 401.59 C 917.01 400.94 886.78 401.07 878 401.59 C 869.22 402.11 847.2 405.53 841 406.59 C 834.8 407.65 823.89 410.14 818 411.82 C 812.11 413.5 790.1 420.61 784 422.83 C 777.9 425.05 767.78 428.83 759 433.27 C 750.22 437.71 716.88 454.67 699 465.82 C 681.12 476.97 602.02 530.83 586 541.18 C 569.98 551.54 552.58 561.46 544 566.01 C 535.42 570.55 512.3 581.62 503 585.17 C 493.7 588.73 464.33 598.11 454 600.41 C 443.67 602.72 412.71 607.07 403 607.48 C 393.29 607.9 366.92 605.27 360 604.41 C 353.08 603.55 341.58 600.75 336 599.18 C 330.42 597.61 316.54 593.65 306 589.17 C 295.46 584.69 244.02 559.71 234 555.82 C 223.98 551.93 213.24 551.73 209 551.52 C 204.76 551.32 196.41 552.87 193 553.82 C 189.59 554.77 178.72 559.38 176 560.74 C 173.28 562.1 169.53 564.29 166.72 567 C 163.91 569.71 151.47 583.38 148.8 587 C 146.12 590.62 142.27 598.69 140.83 602 C 139.38 605.31 135.9 614.35 134.83 619 C 133.76 623.65 130.94 641.94 130.5 647 Z M 242.5 367 C 242.37 373.61 243.53 398.87 244.6 406 C 245.66 413.13 250.74 430.21 252.83 436 C 254.92 441.79 261.53 456.42 264.81 462 C 268.09 467.58 280.13 484.83 284.56 490 C 289 495.17 302.3 507.84 307.72 512 C 313.14 516.16 331.39 527.34 337 530.26 C 342.61 533.17 355.18 538.42 362 540.2 C 368.82 541.98 395.04 546.94 403 547.48 C 410.96 548.02 432.08 546.48 439 545.41 C 445.92 544.35 463.9 539.38 470 537.18 C 476.1 534.99 492.63 527.26 498 524.18 C 503.37 521.11 516.94 511.98 522 507.44 C 527.06 502.9 542.43 486.51 547 480.26 C 551.57 474.01 563.35 453.12 566.26 447 C 569.17 440.88 573.7 427.1 575.17 421 C 576.64 414.9 580.05 394.92 580.49 388 C 580.93 381.08 580.26 360.82 579.4 354 C 578.54 347.18 574.2 328.3 572.17 322 C 570.14 315.7 562.92 298.79 559.74 293 C 556.56 287.21 545.85 271.21 541.44 266 C 537.02 260.79 522.21 246.72 517 242.56 C 511.79 238.4 497.41 228.92 491 225.74 C 484.59 222.57 462.03 213.81 455 211.82 C 447.97 209.83 429.61 206.96 423 206.52 C 416.39 206.08 396.99 206.94 391 207.59 C 385.01 208.24 371.3 210.79 365 212.82 C 358.7 214.85 336.51 223.77 330 227.26 C 323.49 230.75 307.68 241.55 302 246.56 C 296.32 251.57 279.68 269.39 275 275.74 C 270.32 282.09 259.76 301.15 256.74 308 C 253.73 314.85 247.3 335.9 245.83 342 C 244.36 348.1 242.63 360.39 242.5 367 Z M 761.5 876 C 761.17 881.89 761.73 895.9 762.6 902 C 763.46 908.1 767.65 928.49 769.84 935 C 772.03 941.51 780.54 959.42 783.81 965 C 787.09 970.58 797.34 984.35 801.56 989 C 805.79 993.65 819.61 1006.25 824.72 1010 C 829.83 1013.75 845.8 1022.76 851 1025.26 C 856.2 1027.76 869.32 1032.71 875 1034.18 C 880.68 1035.65 899.7 1039.06 906 1039.5 C 912.3 1039.94 930.11 1039.2 936 1038.44 C 941.89 1037.69 957.94 1033.76 963 1032.18 C 968.06 1030.6 979.83 1026 985 1023.14 C 990.17 1020.27 1007.89 1008.69 1013 1004.44 C 1018.11 1000.19 1030.59 986.9 1034.44 982 C 1038.29 977.1 1047.49 962.48 1050.26 957 C 1053.02 951.52 1059.42 935.3 1061.2 929 C 1062.98 922.7 1066.85 902.72 1067.49 896 C 1068.13 889.28 1068.16 870.82 1067.4 864 C 1066.65 857.18 1062.16 836.3 1060.17 830 C 1058.19 823.7 1051.16 808.27 1048.19 803 C 1045.22 797.73 1035.18 783.39 1031.44 779 C 1027.7 774.61 1016.49 764.1 1012 760.56 C 1007.51 757.02 993.79 747.71 988 744.74 C 982.21 741.77 962.2 733.7 956 731.82 C 949.8 729.94 933.79 727.06 928 726.52 C 922.21 725.98 906.41 725.83 900 726.59 C 893.59 727.34 872.3 731.83 866 733.82 C 859.7 735.81 844.37 742.74 839 745.82 C 833.63 748.89 818.65 759.54 814 763.56 C 809.35 767.58 797.9 779.51 794 784.72 C 790.1 789.93 779.18 807.77 776.27 814 C 773.36 820.23 767.34 838.59 765.82 845 C 764.29 851.41 761.83 870.11 761.5 876 Z M 533.5 667 C 533.27 670.72 533.15 680.76 533.6 685 C 534.04 689.24 536.34 702.99 537.83 708 C 539.32 713.01 545.65 728.95 548 733.5 C 550.35 738.05 557.77 748.6 560.56 752 C 563.35 755.4 571.44 763.58 575 766.44 C 578.56 769.31 590.45 777.39 595 779.74 C 599.55 782.09 614.56 787.86 619 789.18 C 623.44 790.5 633.14 792.25 638 792.48 C 642.86 792.71 660.52 792.27 666 791.41 C 671.48 790.55 686.97 785.64 691 784.17 C 695.03 782.7 701.49 779.43 705 777.18 C 708.51 774.94 721.36 765.77 725 762.44 C 728.64 759.12 737.42 748.87 740.19 745 C 742.95 741.13 749.77 729.24 751.73 725 C 753.69 720.76 757.96 708.86 759.17 704 C 760.39 699.14 763.15 683.37 763.49 678 C 763.82 672.63 763.06 656.96 762.4 652 C 761.75 647.04 758.85 634.75 757.17 630 C 755.5 625.25 748.74 610.44 746.19 606 C 743.63 601.56 735.73 590.62 732.44 587 C 729.14 583.38 717.84 573.66 714.28 571 C 710.72 568.34 701.85 563.05 698 561.27 C 694.15 559.5 681.55 554.93 677 553.82 C 672.45 552.71 658.34 550.75 654 550.52 C 649.66 550.29 639.44 550.83 635 551.59 C 630.56 552.34 615.55 556.15 611 557.83 C 606.45 559.51 594.87 565.42 591 567.82 C 587.13 570.21 576.74 578.09 573.52 581 C 570.29 583.91 562.84 591.76 559.81 596 C 556.79 600.24 546.75 616.52 544.27 622 C 541.79 627.48 536.94 644.35 535.83 649 C 534.72 653.65 533.73 663.28 533.5 667 Z M 335.5 369 C 334.75 373.55 335.25 383.69 335.6 387 C 335.94 390.31 337.78 398 338.84 401 C 339.9 404 344.29 413.31 345.81 416 C 347.33 418.69 351.79 424.89 353.56 427 C 355.34 429.11 360.73 434.58 363 436.44 C 365.27 438.3 372.61 443.48 375.5 445 C 378.39 446.52 387.75 450.2 391 451.18 C 394.25 452.16 403.49 454.25 407 454.48 C 410.51 454.71 421.69 453.96 425 453.41 C 428.31 452.86 436.42 450.12 439 449.17 C 441.58 448.22 447.57 445.65 450 444.18 C 452.43 442.72 459.88 437.5 462.48 435 C 465.09 432.5 473.2 422.79 475.19 420 C 477.18 417.21 480.57 410.69 481.73 408 C 482.89 405.31 485.71 397.1 486.4 394 C 487.1 390.9 488.72 382.34 488.49 378 C 488.26 373.66 485.34 356.24 484.17 352 C 483.01 347.76 478.86 339.84 477.19 337 C 475.52 334.16 470.47 327.1 468 324.52 C 465.53 321.93 455.86 313.89 453.28 312 C 450.7 310.11 446.96 307.56 443 306.27 C 439.04 304.99 420.48 299.89 415 299.54 C 409.52 299.18 394.34 301.71 390 302.82 C 385.66 303.93 375.69 308.84 373 310.26 C 370.31 311.68 366.11 314.72 364 316.56 C 361.89 318.39 354.74 325.27 352.56 328 C 350.38 330.73 344.66 338.76 342.89 343 C 341.13 347.24 336.25 364.45 335.5 369 Z M 843.5 875 C 843.4 879.34 845.06 895.97 845.83 900 C 846.59 904.03 849.47 911.11 850.89 914 C 852.31 916.89 856.76 924.88 859.56 928 C 862.36 931.12 874.85 941.89 878 944.18 C 881.15 946.47 887 949.11 890 950.17 C 893 951.23 903.59 953.97 907 954.41 C 910.41 954.85 920.21 954.64 923 954.41 C 925.79 954.18 931.11 953.18 934 952.18 C 936.89 951.18 948.21 946.26 951 944.74 C 953.79 943.22 958.52 939.95 961 937.44 C 963.48 934.94 972.81 923.85 975 920.5 C 977.19 917.15 981.08 908.15 982.16 905 C 983.23 901.85 985.06 893.31 985.4 890 C 985.75 886.69 985.72 876 985.49 873 C 985.26 870 983.92 863.58 983.17 861 C 982.42 858.42 979.61 850.71 978.25 848 C 976.89 845.29 972.92 837.96 970 834.74 C 967.08 831.52 954.86 819.62 950 816.82 C 945.14 814.01 927.55 808.55 923 807.6 C 918.45 806.65 909.2 807.26 906 807.59 C 902.8 807.92 895.62 809.27 892 810.82 C 888.38 812.37 874.35 820.16 871 822.56 C 867.65 824.95 861.6 831.47 859.56 834 C 857.52 836.53 852.58 844.52 851.26 847 C 849.94 849.48 847.63 855.11 846.83 858 C 846.03 860.89 843.6 870.66 843.5 875 Z M 597.5 666 C 597.05 670.24 597.59 683.74 598.58 688 C 599.56 692.26 605.35 704.37 607 707.26 C 608.65 710.15 612.86 714.46 614.52 716 C 616.17 717.54 619.95 720.8 623 722.18 C 626.05 723.57 640.59 728.66 644 729.41 C 647.41 730.16 653.83 729.64 656 729.41 C 658.17 729.18 662.83 727.93 665 727.18 C 667.17 726.44 674.83 723.4 677 722.18 C 679.17 720.97 683.91 717.74 686 715.44 C 688.09 713.15 695.46 703.77 697.26 700 C 699.06 696.23 703 683.65 703.4 679 C 703.81 674.35 702.41 659.44 701.17 655 C 699.93 650.56 693.88 639.2 691.44 636 C 688.99 632.8 680.13 625.77 677.5 624 C 674.87 622.23 668.43 619.61 666 618.84 C 663.57 618.08 657.41 616.49 654 616.59 C 650.59 616.69 637.13 618.28 633 619.83 C 628.87 621.38 617.11 628.75 614 631.56 C 610.89 634.36 604.6 643.44 602.89 647 C 601.19 650.56 597.95 661.76 597.5 666 Z"/>
</svg>
