<svg xmlns="http://www.w3.org/2000/svg" viewBox="0 0 512 512" width="512" height="512" role="img" aria-label="Environmental Persistence icon">
  <path fill="#fff" fill-rule="evenodd" d="M 188.16 243 C 187.76 248.79 189.27 267.45 189.85 272 C 190.44 276.55 192.78 284.11 193.81 287 C 194.84 289.89 197.61 296.86 199.8 300 C 201.99 303.14 211.36 314.6 215 317.41 C 218.64 320.22 231.18 325.84 235 327.16 C 238.82 328.48 248.8 329.87 252 330.18 C 255.2 330.49 262.69 330.46 266 330.14 C 269.31 329.82 280.49 327.98 284 327.08 C 287.51 326.17 296.9 322.79 300 321.4 C 303.1 320 311.42 315.28 314 313.55 C 316.58 311.81 322.93 306.63 325 304.61 C 327.07 302.58 332.48 296.15 334 293.92 C 335.52 291.69 339.16 284.85 339.69 283 C 340.23 281.15 339.67 277.19 339.18 276 C 338.7 274.81 336.36 272.04 335 271.5 C 333.64 270.96 327.76 271.36 326 270.73 C 324.24 270.1 320.48 266.09 318 265.37 C 315.52 264.65 304.39 263.49 302 263.77 C 299.61 264.04 296.4 266.03 294.85 268 C 293.3 269.97 289.05 280.15 287 282.82 C 284.95 285.49 276.65 292.77 275 293.88 C 273.35 294.99 272.24 294.17 271 293.55 C 269.76 292.93 265.48 288.33 263 287.9 C 260.52 287.46 249.17 289.45 247 289.32 C 244.83 289.18 242.67 287.35 242 286.59 C 241.33 285.84 240.49 283.82 240.54 282 C 240.6 280.18 243.16 271.48 242.49 269 C 241.81 266.52 235 259.74 234 257.99 C 233 256.23 232.15 253.76 232.82 252 C 233.48 250.24 240.14 243.07 240.45 241 C 240.76 238.93 236.24 233.24 235.81 232 C 235.39 230.76 235.7 229.73 236.34 229 C 236.98 228.27 239.69 226 242 224.96 C 244.31 223.93 256.27 220.44 258.66 219 C 261.06 217.56 264.55 215.13 265.18 211 C 265.81 206.87 265.08 182.78 264.75 179 C 264.42 175.22 262.8 175.21 262 174.45 C 261.2 173.68 258.55 171.91 257 171.61 C 255.45 171.3 249.48 171.1 247 171.51 C 244.52 171.92 235.86 174.4 233 175.58 C 230.14 176.77 221.79 181.34 219.31 183 C 216.83 184.66 211 189.57 209 191.66 C 207 193.74 201.58 200.69 200 203.2 C 198.42 205.72 194.93 211.89 193.71 216 C 192.49 220.11 188.56 237.21 188.16 243 Z M 322.84 120 C 323.08 124.86 325.32 145.21 326.96 151 C 328.61 156.79 336.56 172.28 338.79 176 C 341.01 179.72 346.54 185.13 348.53 187 C 350.51 188.87 355.78 192.74 358 194.1 C 360.22 195.47 367.31 199.16 370 200.2 C 372.69 201.25 379.25 203.73 384 204.24 C 388.75 204.75 410.83 205.44 416 205.13 C 421.17 204.82 430.69 202.27 434 201.24 C 437.31 200.21 445.21 196.75 448 195.18 C 450.79 193.62 458.7 188.06 461 186.08 C 463.3 184.1 468.59 178.28 470.26 176 C 471.94 173.72 476.02 166.69 477.19 164 C 478.36 161.31 480.99 152.89 481.57 150 C 482.16 147.11 483 139.47 482.84 136 C 482.68 132.53 480.89 120.01 480 116.39 C 479.11 112.78 475.8 104.14 474.22 101 C 472.64 97.86 467 88.94 464.71 86 C 462.41 83.06 454.78 75.05 452 72.57 C 449.22 70.09 440.79 63.94 437.8 62 C 434.8 60.06 426.39 55.23 423 53.75 C 419.61 52.27 408.51 48.44 405 47.65 C 401.49 46.85 392.41 45.96 389 46.06 C 385.59 46.17 375.1 47.87 372 48.68 C 368.9 49.5 361.67 52.45 359 53.93 C 356.33 55.41 348.46 60.93 346.16 63 C 343.87 65.07 338.48 71.52 336.77 74 C 335.07 76.48 330.92 83.9 329.67 87 C 328.42 90.1 325.34 100.59 324.64 104 C 323.93 107.41 322.6 115.14 322.84 120 Z M 32.18 381 C 32.17 384.31 32.98 395.49 33.64 399 C 34.3 402.51 37.34 412.11 38.56 415 C 39.79 417.89 43.78 424.73 45.5 427 C 47.22 429.27 52.67 435.12 55.2 437 C 57.73 438.88 66.82 444.01 70 445.2 C 73.18 446.4 82.59 448.35 86 448.56 C 89.41 448.77 100.31 447.9 103 447.24 C 105.69 446.58 110.94 443.22 112 442.16 C 113.06 441.1 113.44 438.46 113.28 437 C 113.13 435.54 110.08 429.96 110.47 428 C 110.86 426.04 116.32 419.55 117.04 418 C 117.76 416.45 117.86 414.06 117.45 413 C 117.03 411.94 115.22 409.26 113 407.73 C 110.78 406.2 98.18 399.83 96 398.21 C 93.82 396.58 91.64 394.81 91.91 392 C 92.18 389.19 98.07 373.58 98.6 371 C 99.14 368.42 97.97 368.14 97.09 367 C 96.21 365.86 90.86 361.14 90.08 360 C 89.31 358.86 89.29 357.03 89.59 356 C 89.89 354.97 91.61 351.49 93 350.03 C 94.39 348.57 101.62 343.54 103 341.89 C 104.38 340.23 106.25 335.85 106.39 334 C 106.53 332.15 105.33 325.87 104.36 324 C 103.38 322.13 98.69 317.06 97 315.91 C 95.31 314.77 89.96 313.05 88 312.92 C 86.04 312.8 80.48 313.79 78 314.69 C 75.52 315.58 66.79 319.76 64 321.59 C 61.21 323.42 53.7 329.15 51 332.39 C 48.3 335.64 39.64 349.42 37.85 353 C 36.07 356.58 34.32 364.11 33.74 367 C 33.15 369.89 32.19 377.69 32.18 381 Z M 139.56 363 C 139.35 364.86 139.93 367.04 140.83 369 C 141.74 370.96 148.22 379.52 148.34 382 C 148.45 384.48 142.65 391.35 141.95 393 C 141.24 394.65 141.11 396.88 141.53 398 C 141.95 399.12 144.4 402.68 146 403.85 C 147.6 405.01 155.61 408.21 157 409.25 C 158.39 410.3 159.75 412.37 159.46 414 C 159.17 415.63 155.97 422.93 154.22 425 C 152.48 427.07 143.94 432.35 142.61 434 C 141.28 435.65 141.22 439.37 141.36 441 C 141.51 442.63 143 448.32 144 449.81 C 145 451.31 148.93 454.74 151 455.46 C 153.07 456.17 161.31 456.87 164 456.74 C 166.69 456.61 174.31 455.07 177 454.19 C 179.69 453.3 187.3 449.94 190 448.16 C 192.7 446.39 200.87 439.81 203.11 437 C 205.35 434.19 210.73 424.2 211.66 421 C 212.59 417.8 212.82 409.41 212.15 406 C 211.47 402.59 208.08 392.65 205.13 388 C 202.18 383.35 188.05 365.34 183.6 361 C 179.14 356.66 165.16 347.74 162 345.99 C 158.84 344.25 154.59 344.12 153 344.12 C 151.41 344.12 147.62 345.29 146.57 346 C 145.53 346.71 143.59 349.24 142.86 351 C 142.14 352.76 139.77 361.14 139.56 363 Z M 376.37 120 C 376.15 122.07 377.07 126.24 377.81 128 C 378.54 129.76 379.85 134.04 383.48 137 C 387.12 139.96 409.33 154.45 413 156.6 C 416.67 158.75 417.86 157.82 419 157.8 C 420.14 157.78 422.62 157.51 424 156.39 C 425.38 155.27 431.08 149.62 432.38 147 C 433.68 144.38 436.3 133.79 436.61 131 C 436.92 128.21 436.17 122.27 435.36 120 C 434.55 117.73 430.54 110.97 428.75 109 C 426.96 107.03 420.56 102.21 418 100.98 C 415.44 99.75 406.89 97.36 404 97.12 C 401.11 96.88 392.5 97.55 390 98.68 C 387.5 99.8 381.26 105.8 379.85 108 C 378.44 110.2 376.58 117.93 376.37 120 Z"/>
</svg>
