<svg xmlns="http://www.w3.org/2000/svg" viewBox="0 0 1254 1254" width="1254" height="1254" role="img" aria-label="Genome Copying icon">
  <path fill="#fff" fill-rule="evenodd" d="M 94.5 589 C 94.06 591.79 94.35 598.93 94.59 601 C 94.83 603.07 95.98 607.04 96.83 609 C 97.68 610.96 101.45 618.09 102.81 620 C 104.17 621.91 108.02 625.98 110 627.44 C 111.98 628.91 118.69 632.79 122 634.17 C 125.31 635.55 136.52 637.3 142 640.82 C 147.48 644.33 168.59 663.92 175 668.2 C 181.41 672.47 198.32 680.41 204 682.2 C 209.68 683.98 225.56 685.35 230 685.48 C 234.44 685.61 243.8 684.09 247 683.44 C 250.2 682.78 257.77 680.56 261 679.17 C 264.23 677.78 272.91 673.86 278.28 670 C 283.65 666.14 307.86 645.27 313 641.82 C 318.14 638.36 325.42 636.74 328 636.54 C 330.58 636.33 333.38 636.57 338 639.82 C 342.62 643.07 367.04 663.93 372.72 668 C 378.4 672.07 388.84 677.48 393 679.18 C 397.16 680.89 407.32 684 413 684.46 C 418.68 684.91 443.76 683.47 448 683.56 C 452.24 683.64 452.43 684.31 454 685.29 C 455.57 686.26 460.31 688.17 463.18 693 C 466.06 697.83 477.39 724.41 481.81 732 C 486.24 739.59 500.4 760.37 506 766.48 C 511.6 772.6 529.8 787.18 536 791.18 C 542.2 795.18 560.01 803.11 566 805.2 C 571.99 807.29 587.28 810.89 594 811.41 C 600.72 811.94 624.28 811.13 631 810.28 C 637.72 809.43 652.08 806.06 659 803.16 C 665.92 800.26 693.62 784.2 698 782.22 C 702.38 780.24 698.42 780.46 701.42 784 C 704.41 787.54 722.81 811.68 727 816.48 C 731.19 821.28 738.59 827.68 742 830.44 C 745.41 833.2 755.76 840.73 760 843.18 C 764.24 845.64 776.8 852.2 783 854.2 C 789.2 856.19 813.39 861.65 820 862.5 C 826.61 863.35 840.28 863.26 847 862.45 C 853.72 861.64 879.94 855.32 885 854.63 C 890.06 853.95 893.93 854.99 896 855.83 C 898.07 856.67 903.64 860.86 905 862.74 C 906.36 864.62 908.48 867.77 909.16 874 C 909.84 880.23 911.11 917.01 911.59 923 C 912.07 928.99 912.59 929.52 913.83 932 C 915.06 934.48 920.92 944.6 923.52 947 C 926.12 949.4 936.37 954.2 939 955.18 C 941.63 956.16 947.04 956.5 949 956.5 C 950.96 956.5 955.83 955.91 958 955.16 C 960.17 954.4 967.93 950.63 970 949.2 C 972.07 947.76 976.51 943.76 978 941.26 C 979.49 938.76 983.73 930.09 984.4 925 C 985.08 919.91 984.35 895.67 984.52 892 C 984.68 888.33 980.99 888.27 986 889.45 C 991.01 890.63 1026.28 901.77 1033 903.42 C 1039.72 905.08 1046.56 905.38 1051 905.48 C 1055.44 905.58 1071.66 905.08 1076 904.42 C 1080.34 903.76 1090.31 900.24 1093 899.11 C 1095.69 897.97 1100.33 894.8 1102 893.44 C 1103.67 892.09 1107.72 888.11 1109.19 886 C 1110.65 883.89 1115.21 876 1116.17 873 C 1117.13 870 1118.59 860.1 1118.49 857 C 1118.38 853.9 1116.46 845.94 1115.17 843 C 1113.88 840.06 1108.29 830.91 1106 828.52 C 1103.71 826.12 1096 821.17 1093 819.83 C 1090 818.49 1081.75 815.93 1077 815.58 C 1072.25 815.23 1052.17 816.87 1047 816.41 C 1041.83 815.96 1030.93 812.64 1027 811.17 C 1023.07 809.7 1015.41 806.05 1009 802.18 C 1002.59 798.32 970.99 777.29 965 773.74 C 959.01 770.19 954.72 769 951 767.84 C 947.28 766.69 933.65 763.24 929 762.59 C 924.35 761.93 909.82 761.47 906 761.5 C 902.18 761.53 898.3 761.67 892 762.91 C 885.7 764.15 851.72 772.4 845 773.48 C 838.28 774.57 830 773.75 827 773.41 C 824 773.07 819.31 771.83 816 770.18 C 812.69 768.53 800.99 763.09 795 757.44 C 789.01 751.79 763.89 721.35 758 715.5 C 752.11 709.65 743.48 703.49 738 700.82 C 732.52 698.14 715.02 691.09 705 689.58 C 694.98 688.07 649 687.48 641 686.18 C 633 684.88 629.75 679.6 627.56 677 C 625.38 674.4 621.07 664.93 619.83 661 C 618.58 657.07 615.96 643.75 615.51 639 C 615.07 634.25 615.3 618.82 615.51 615 C 615.73 611.18 616.53 605.72 617.6 602 C 618.66 598.28 624.56 581.89 625.82 579 C 627.08 576.11 628.52 575.06 629.78 574 C 631.04 572.94 636.32 569.52 638 568.74 C 639.68 567.97 640.01 566.86 646 566.52 C 651.99 566.17 688.56 565.96 696 565.41 C 703.44 564.86 714.18 562.23 718 561.18 C 721.82 560.13 728.82 557.65 733 555.26 C 737.18 552.86 751.66 544.48 758.48 538 C 765.3 531.52 792.44 498.5 799 492.59 C 805.56 486.68 817.76 482.27 822 480.82 C 826.24 479.37 831.94 477.6 840 478.6 C 848.06 479.6 891.32 489.27 900 490.5 C 908.68 491.73 920.07 490.7 924 490.49 C 927.93 490.27 933.14 489.95 938 488.42 C 942.86 486.9 963.87 479.53 971 475.75 C 978.13 471.97 1001.01 455.44 1007 451.83 C 1012.99 448.22 1024.25 442.5 1029 440.83 C 1033.75 439.16 1047.32 436.22 1053 435.63 C 1058.68 435.05 1079.56 435.66 1084 435.2 C 1088.44 434.73 1093.47 432.59 1096 431.12 C 1098.53 429.65 1106.25 423.91 1108.44 421 C 1110.63 418.09 1116.25 406.82 1117.18 403 C 1118.11 399.18 1117.8 387.1 1117.44 384 C 1117.09 380.9 1114.66 374.96 1113.73 373 C 1112.79 371.04 1110.58 367.09 1108.44 365 C 1106.29 362.91 1096.46 354.54 1093 352.74 C 1089.54 350.94 1079.13 348.22 1075 347.59 C 1070.87 346.95 1058.17 346.25 1053 346.59 C 1047.83 346.92 1031.61 349.1 1025 350.82 C 1018.39 352.53 993.03 362 989 363.17 C 984.97 364.33 986.15 365.42 986 362.1 C 985.85 358.77 987.48 337.73 987.5 331 C 987.52 324.27 987.05 302.01 986.17 297 C 985.29 291.99 980.67 284.81 979 282.52 C 977.33 280.23 971.86 276.02 970 274.82 C 968.14 273.61 963.58 271.37 961 270.82 C 958.42 270.27 947.69 269.37 945 269.52 C 942.31 269.67 937.12 271.29 935 272.27 C 932.88 273.25 926.51 277.06 924.52 279 C 922.53 280.94 917.07 287.9 915.74 291 C 914.42 294.1 912.13 302.49 911.69 309 C 911.25 315.51 911.72 346.97 911.49 354 C 911.25 361.03 909.89 373.59 909.4 377 C 908.91 380.41 907.59 385.22 906.73 387 C 905.86 388.78 902.93 393 901 394.18 C 899.07 395.37 893.48 398.85 888 398.48 C 882.52 398.11 854.82 391.41 848 390.59 C 841.18 389.77 826.75 390.21 822 390.52 C 817.25 390.83 805.93 392.73 802 393.59 C 798.07 394.45 787.72 397.48 784 398.84 C 780.28 400.21 770.65 404.06 766 406.82 C 761.35 409.58 743.39 422.02 739 425.56 C 734.61 429.09 727.7 436.24 723.56 441 C 719.43 445.76 705.77 470.39 699 471.61 C 692.23 472.84 664.82 455.41 658 452.83 C 651.18 450.24 639.61 447.23 633 446.59 C 626.39 445.94 600.41 446.04 594 446.58 C 587.59 447.12 575.03 450.66 571 451.82 C 566.97 452.98 558.85 455.95 555 457.83 C 551.15 459.71 538.72 466.26 533.72 470 C 528.71 473.74 511.93 487.8 506.56 494 C 501.2 500.2 486.4 521.94 481.81 530 C 477.23 538.06 465.27 566.48 462.19 572 C 459.11 577.52 453.88 581.77 452 583.44 C 450.12 585.11 446.07 587.34 444 588.17 C 441.93 589 435.1 591.28 432 591.48 C 428.9 591.69 417.03 590.93 414 590.16 C 410.97 589.38 406.03 586.41 402.72 584 C 399.41 581.59 386.21 569.77 382 566.8 C 377.79 563.83 366.03 557.05 362 555.27 C 357.97 553.49 346.82 550.29 343 549.59 C 339.18 548.89 328.51 548.4 325 548.5 C 321.49 548.6 312.2 549.89 309 550.59 C 305.8 551.29 297.51 553.7 294 555.27 C 290.49 556.84 279.86 562.5 275 565.8 C 270.14 569.1 251.34 584.53 247 587.18 C 242.66 589.84 235.69 591.06 233 591.49 C 230.31 591.93 223.43 591.88 221 591.41 C 218.57 590.95 213.32 589.54 209.5 587 C 205.68 584.46 188.91 570.13 184 566.8 C 179.09 563.48 165.51 556.4 162 554.83 C 158.49 553.26 152.89 552.03 150 551.59 C 147.11 551.15 137.1 550.31 134 550.59 C 130.9 550.87 122.69 553.04 120 554.27 C 117.31 555.5 110.18 560.48 108 562.52 C 105.82 564.56 100.29 571.26 98.89 574 C 97.5 576.74 94.94 586.21 94.5 589 Z"/>
</svg>
