<svg xmlns="http://www.w3.org/2000/svg" viewBox="0 0 512 512" width="512" height="512" role="img" aria-label="Host Takeover icon">
  <path fill="#fff" fill-rule="evenodd" d="M 47.68 237 C 47.92 240.2 49.6 251.6 51.9 256 C 54.21 260.4 67.71 276.21 70 279.62 C 72.29 283.04 73.62 286.79 74.08 289 C 74.53 291.21 75 296.56 74.39 301 C 73.77 305.44 68.58 327.56 68.12 332 C 67.66 336.44 69.3 341.83 69.95 344 C 70.6 346.17 73.24 351.36 74.38 353 C 75.52 354.64 79.49 358.66 81 359.84 C 82.51 361.03 85.38 363.46 89 364.47 C 92.62 365.49 112.42 368.77 116 369.65 C 119.58 370.53 122.07 371.83 123.65 373 C 125.23 374.17 129.24 377.9 131.29 381 C 133.34 384.1 141.36 399.69 143.5 403 C 145.64 406.31 149.68 411.1 152 413.06 C 154.32 415.03 163.11 420.74 166 422.01 C 168.89 423.28 176.9 425.23 180 425.33 C 183.1 425.43 191.85 424.61 195.98 423 C 200.12 421.39 215.45 411.45 220 409.74 C 224.55 408.04 237.39 407.39 240 406.49 C 242.61 405.58 244.66 402.29 245.3 401 C 245.95 399.71 246.43 395.45 246.22 394 C 246.02 392.55 244.26 388.26 243.31 387 C 242.36 385.74 241.58 383.66 237 381.83 C 232.42 380 205.92 372.28 199 369.26 C 192.08 366.24 175.27 356.47 170 352.64 C 164.73 348.81 151.83 336.59 148 332.19 C 144.17 327.78 135.52 315.29 132.9 310 C 130.29 304.71 123.9 286.79 122.7 281 C 121.5 275.21 120.75 259.79 121.29 254 C 121.82 248.21 126.51 229.44 127.89 225 C 129.28 220.56 133.15 213.62 134.71 211 C 136.27 208.38 140.9 201.92 143 199.61 C 145.1 197.29 152.11 190.62 155 188.6 C 157.89 186.59 167.49 181.39 171 180.12 C 174.51 178.85 185.07 176.57 189 176.34 C 192.93 176.1 204.66 176.85 209 177.84 C 213.34 178.83 227.18 183.92 231 185.89 C 234.82 187.85 240.42 190.04 246 196.87 C 251.58 203.7 279.7 245.02 284.97 252 C 290.24 258.98 294.31 262.14 297 264.43 C 299.69 266.71 308.11 272.67 311 274.07 C 313.89 275.47 322.31 277.89 325 277.95 C 327.69 278.01 334.81 276.05 337 274.61 C 339.19 273.17 344.77 266.75 346.18 264 C 347.59 261.25 350.49 251.41 350.61 248 C 350.73 244.59 349.6 235.34 347.35 231 C 345.1 226.66 331.05 209.51 328.84 206 C 326.63 202.49 326.18 199.27 325.98 197 C 325.78 194.73 325.85 188.65 326.92 184 C 327.99 179.35 335.47 156.44 336.32 152 C 337.16 147.56 335.75 143.17 335.11 141 C 334.47 138.83 331.31 132.65 330.12 131 C 328.94 129.35 325.2 126.04 323.64 125 C 322.08 123.96 318.58 121.6 315 120.92 C 311.42 120.24 292.93 119.1 289 118.44 C 285.07 117.78 279.18 115.62 277 114.54 C 274.82 113.46 271.39 111.47 267.86 108 C 264.34 104.53 246.48 84.34 242.88 81 C 239.28 77.66 235.36 76.5 233 75.64 C 230.64 74.77 222.79 72.83 220 72.61 C 217.21 72.39 208.79 72.92 206 73.54 C 203.21 74.16 195.32 77.33 193 78.62 C 190.68 79.91 185.99 83.54 183.51 86 C 181.03 88.46 171.33 100.18 169 102.39 C 166.67 104.6 163.27 106.65 161 107.4 C 158.73 108.16 151.75 109.8 147 109.72 C 142.25 109.64 119.24 106.64 115 106.62 C 110.76 106.61 107.73 108.71 106 109.57 C 104.27 110.44 99.66 113.51 98.21 115 C 96.77 116.49 92.97 122.04 91.99 124 C 91.02 125.96 88.97 129.97 88.76 134 C 88.56 138.03 90.19 158.45 90.02 163 C 89.86 167.55 88.28 175.11 87.16 178 C 86.05 180.89 82.6 187.28 79.25 191 C 75.9 194.72 57.85 210.49 54.79 214 C 51.73 217.51 50.36 222.62 49.62 225 C 48.89 227.38 47.45 233.8 47.68 237 Z M 132.61 256 C 132.61 261.06 134.27 279.42 135.7 285 C 137.12 290.58 143.43 305.04 146.43 310 C 149.42 314.96 159.95 328.55 164.66 333 C 169.37 337.45 187.11 350.08 192 353.08 C 196.89 356.08 207.87 360.54 212 362.04 C 216.13 363.53 221.15 365.89 232 367.58 C 242.85 369.27 303.39 376.25 317 378.36 C 330.61 380.47 360.57 389.17 363.73 388 C 366.89 386.83 350.08 371.65 347.6 367 C 345.13 362.35 340.68 346.72 339.78 343 C 338.87 339.28 338.71 333.89 338.82 331 C 338.92 328.11 339.65 319.25 340.8 315 C 341.96 310.75 351.74 290.79 350 289.88 C 348.26 288.96 328.75 303.53 324 306.17 C 319.25 308.81 308.34 313.76 304 315.4 C 299.66 317.04 286.86 320.97 282 322.04 C 277.14 323.1 261.75 325.39 257 325.7 C 252.25 326.02 240.75 325.74 236 325.08 C 231.25 324.41 215.75 321.01 211 319.26 C 206.25 317.51 193.64 310.75 190 308.14 C 186.36 305.53 178.07 296.91 175.78 294 C 173.49 291.09 169.07 283 167.82 280 C 166.57 277 164.14 268.31 163.72 265 C 163.3 261.69 163.36 251.1 163.77 248 C 164.18 244.9 166.3 237.7 167.67 235 C 169.04 232.3 174.8 224.1 177 221.92 C 179.2 219.73 186.62 215.02 189 213.85 C 191.38 212.68 196.8 210.98 200 210.59 C 203.2 210.21 217.31 210.38 220 210.12 C 222.69 209.86 225.14 208.71 226 208.08 C 226.86 207.44 228.12 204.83 228.32 204 C 228.52 203.17 228.79 201.3 227.93 200 C 227.07 198.7 222.16 192.8 220 191.45 C 217.84 190.1 209.89 187.5 207 186.91 C 204.11 186.32 195.31 185.5 192 185.77 C 188.69 186.03 178.2 188.3 175 189.47 C 171.8 190.65 163.6 195.24 161 197.16 C 158.4 199.07 151.88 205.43 149.81 208 C 147.74 210.57 142.43 219.11 140.98 222 C 139.52 224.89 136.6 232.49 135.74 236 C 134.87 239.51 132.62 250.94 132.61 256 Z M 346.55 330 C 346.17 333.82 347.1 340.21 347.6 343 C 348.1 345.79 349.69 353.38 351.42 357 C 353.15 360.62 361.19 374.45 364.35 378 C 367.51 381.55 378.92 389.52 382 391.38 C 385.08 393.24 391.55 395.32 394.13 396 C 396.71 396.68 403.29 398.15 407 397.96 C 410.71 397.78 425.56 395.93 430 394.25 C 434.44 392.57 447.06 384.02 450 381.72 C 452.94 379.42 456.85 374.24 458.41 372 C 459.98 369.76 463.86 363.82 465.17 360 C 466.47 356.18 470.83 340.27 471.06 335 C 471.29 329.73 469.05 313.95 467.39 309 C 465.73 304.05 458.14 290.84 455 287.09 C 451.86 283.34 439.89 274.59 437 272.66 C 434.11 270.73 429.48 269.13 427 268.41 C 424.52 267.69 415.79 265.93 413 265.72 C 410.21 265.51 402.58 265.97 400 266.36 C 397.42 266.76 390.38 268.66 388 269.54 C 385.62 270.42 379.17 273.56 377 274.91 C 374.83 276.27 368.96 280.73 367 282.63 C 365.04 284.54 359.62 290.94 358 293.35 C 356.38 295.77 352.5 302.21 351.32 306 C 350.14 309.79 346.94 326.18 346.55 330 Z M 196.31 273 C 196.15 276.41 197.57 283.6 198.47 286 C 199.37 288.4 203.38 294.57 205 296.22 C 206.62 297.88 211.68 301.03 214.16 302 C 216.64 302.97 225.71 305.27 229 305.61 C 232.29 305.96 242.9 305.8 246 305.34 C 249.1 304.88 256.67 302.4 259 301.12 C 261.33 299.85 267.09 294.98 268.57 293 C 270.05 291.02 272.93 284.38 273.31 282 C 273.69 279.62 273.01 272.48 272.24 270 C 271.47 267.52 268.45 261.73 265.84 258 C 263.24 254.27 249.67 236.88 247 233.87 C 244.33 230.85 241.55 229.58 240 228.79 C 238.45 227.99 234.07 226.32 232 226.2 C 229.93 226.07 222.47 226.47 220 227.59 C 217.53 228.71 210.19 234.37 208.12 237 C 206.06 239.63 201.21 249.28 199.99 253 C 198.77 256.72 196.47 269.59 196.31 273 Z M 373.5 331 C 373.49 334.2 375.56 344.18 376.65 347 C 377.73 349.82 382.1 356.33 384 358.32 C 385.9 360.32 392.62 365.15 395 366.3 C 397.38 367.44 404.31 369.3 407 369.39 C 409.69 369.49 418.27 368.29 421 367.22 C 423.73 366.14 431.3 361.09 433.4 359 C 435.5 356.91 440.18 349.79 441.33 347 C 442.48 344.21 444.5 335.1 444.53 332 C 444.55 328.9 442.6 319.69 441.59 317 C 440.58 314.31 436.57 308 434.75 306 C 432.93 304 426.45 298.9 424 297.69 C 421.55 296.48 413.79 294.43 411 294.3 C 408.21 294.16 399.69 295.36 397 296.37 C 394.31 297.38 387.09 302.05 385 304.08 C 382.91 306.11 377.96 313.22 376.77 316 C 375.58 318.78 373.51 327.8 373.5 331 Z"/>
</svg>
