<svg xmlns="http://www.w3.org/2000/svg" viewBox="0 0 512 512" width="512" height="512" role="img" aria-label="Polymerase Drive icon">
  <path fill="#fff" fill-rule="evenodd" d="M 169.2 359 C 169.28 362.31 171.9 373.66 173.64 377 C 175.38 380.34 182.66 388.72 186 391.36 C 189.34 394.01 201.25 400.72 206 402.6 C 210.75 404.48 225.08 408.6 232 409.56 C 238.92 410.52 265.77 411.98 273 411.86 C 280.23 411.73 296.34 409.58 302 408.35 C 307.66 407.13 323.01 402.22 327.77 400 C 332.52 397.78 344.75 389.54 348 386.85 C 351.25 384.17 357.35 376.67 359.23 374 C 361.1 371.33 363.92 367.92 366.17 361 C 368.42 354.08 376.42 316.58 381 307.07 C 385.58 297.56 406.53 275.1 410.48 269 C 414.43 262.9 418.2 252.03 419.22 248 C 420.25 243.97 420.8 234.55 420.4 230 C 420.01 225.45 416.98 209.06 415.39 204 C 413.79 198.94 407.53 185.4 405.01 181 C 402.49 176.6 394.2 164.93 391 161.39 C 387.8 157.86 377.31 148.99 374 146.82 C 370.69 144.65 362.2 141.13 359 140.41 C 355.8 139.68 346.2 139.15 343 139.8 C 339.8 140.46 330.2 145.17 328 146.74 C 325.8 148.31 322.6 153.11 321.69 155 C 320.79 156.89 319.4 162.93 319.22 165 C 319.04 167.07 319.01 170.66 319.96 175 C 320.91 179.34 327.73 201.63 328.41 207 C 329.09 212.37 327.56 223.38 326.56 227 C 325.56 230.62 321.84 238.18 318.73 242 C 315.62 245.82 299.58 259.04 296.44 264 C 293.3 268.96 289.7 286.38 288.35 290 C 286.99 293.62 285.07 297.12 283.28 299 C 281.49 300.88 275.89 306.72 271 308.23 C 266.11 309.75 242.3 311.59 236 313.65 C 229.7 315.71 215.58 325.86 210 328.15 C 204.42 330.44 185.85 334.05 182 335.79 C 178.15 337.53 174.11 342.6 172.79 345 C 171.46 347.4 169.11 355.69 169.2 359 Z M 95.84 209 C 95.59 215.82 97.26 235.97 98.8 243 C 100.34 250.03 108.5 271.94 110.72 277 C 112.93 282.06 118.34 289.52 120.23 292 C 122.12 294.48 127.06 299.61 129 301.04 C 130.94 302.47 136.93 305.49 139 305.87 C 141.07 306.24 147.21 305.6 149 304.69 C 150.79 303.77 155.04 300.38 156.3 297 C 157.57 293.62 160.11 275.62 161.24 272 C 162.37 268.38 165.32 263.78 167.25 262 C 169.19 260.22 175.48 256.24 180 254.73 C 184.52 253.22 207.1 248.57 211 247.36 C 214.9 246.15 216.72 243.97 217.76 243 C 218.8 242.03 220.71 239.14 221.11 238 C 221.51 236.86 221.9 233.14 221.66 232 C 221.43 230.86 220.89 228.33 218.86 227 C 216.83 225.67 204.41 220.55 202 219.1 C 199.59 217.65 196.3 214.46 195.51 213 C 194.72 211.54 194.05 206.76 194.34 205 C 194.63 203.24 196.79 198.04 198.31 196 C 199.82 193.96 206.66 187.14 209 185.27 C 211.34 183.4 218.42 179.07 221 177.88 C 223.58 176.68 229.79 174.56 234 173.75 C 238.21 172.94 257.1 171.43 261.75 170 C 266.4 168.57 276.33 161.99 279 159.92 C 281.67 157.85 286.24 152.16 287.55 150 C 288.86 147.84 291.28 141.58 291.68 139 C 292.07 136.42 291.82 127.69 291.37 125 C 290.92 122.31 288.67 115.58 287.34 113 C 286.01 110.42 280.26 102.12 278.47 100 C 276.68 97.88 272.22 93.97 270 92.48 C 267.78 91 260 86.75 257 85.65 C 254 84.54 244.41 82.25 241 81.79 C 237.59 81.33 228.03 80.98 224 81.18 C 219.97 81.39 206.44 82.88 202 83.75 C 197.56 84.62 184.62 88.36 181 89.6 C 177.38 90.85 171.13 93.3 167 95.8 C 162.87 98.31 146.14 109.07 141 113.85 C 135.86 118.62 120.66 137.33 117.25 142 C 113.84 146.67 109.69 155.38 108.04 159 C 106.39 162.62 102.54 171.83 101.28 177 C 100.02 182.17 96.1 202.18 95.84 209 Z M 173.82 288 C 173.71 289.96 174.88 295.36 175.52 297 C 176.16 298.64 178.71 302.63 180 303.84 C 181.29 305.06 186.35 308.16 188 308.77 C 189.65 309.38 194.38 309.85 196 309.77 C 197.62 309.69 202.24 308.6 203.65 308 C 205.06 307.4 208.23 305.97 209.61 304 C 210.99 302.03 214.69 291.12 217 288.89 C 219.31 286.66 228.8 282.46 232 282.42 C 235.2 282.39 245.62 287.95 248 288.56 C 250.38 289.16 253.35 288.73 255 288.29 C 256.65 287.85 262.54 285.29 264 284.33 C 265.46 283.37 268.28 280.27 269.15 279 C 270.01 277.73 272 273.86 272.34 272 C 272.69 270.14 272.94 263.17 272.53 261 C 272.11 258.83 267.98 253.48 268.34 251 C 268.69 248.52 274.93 238.66 275.93 237 C 276.93 235.34 276.86 235.2 278 234.96 C 279.14 234.73 285.24 235.03 287 234.73 C 288.76 234.43 293.1 233.47 295 232.05 C 296.9 230.63 304.09 223.59 305.4 221 C 306.71 218.41 307.9 209.69 307.65 207 C 307.41 204.31 304.24 196.91 303.04 195 C 301.84 193.09 297.55 189.47 296 188.5 C 294.45 187.53 289.86 185.89 288 185.59 C 286.14 185.29 279.96 185.19 278 185.59 C 276.04 186 270.65 188.34 269 189.52 C 267.35 190.69 263.07 195.4 262.02 197 C 260.98 198.6 259.18 203.04 258.88 205 C 258.58 206.96 258.48 213.52 259.12 216 C 259.76 218.48 265.28 226.23 265.07 229 C 264.85 231.77 259.18 241.21 257 242.8 C 254.82 244.39 246.07 243.84 244 244.36 C 241.93 244.89 238.51 246.48 237 247.89 C 235.49 249.3 230.43 255.72 229.39 258 C 228.36 260.28 228.49 268.21 227 269.99 C 225.51 271.77 216.55 274.66 215 275.24 C 213.45 275.81 212.93 276.05 212 275.57 C 211.07 275.09 207.45 271.45 206 270.62 C 204.55 269.8 200.17 267.66 198 267.59 C 195.83 267.52 187.21 268.87 185 269.95 C 182.79 271.02 177.76 276.13 176.6 278 C 175.45 279.87 173.93 286.04 173.82 288 Z"/>
</svg>
