<svg xmlns="http://www.w3.org/2000/svg" viewBox="0 0 512 512" width="512" height="512" role="img" aria-label="Host Material Flux icon">
  <path fill="#fff" fill-rule="evenodd" d="M 107.3 372 C 107.46 374.48 109.13 382.78 110.44 385 C 111.75 387.22 117.26 392.25 120 393.46 C 122.74 394.68 133.75 396.79 137 396.74 C 140.25 396.69 148.72 394.63 151.43 393 C 154.15 391.37 160.44 385.96 163.23 381 C 166.03 376.04 175.66 350.58 178.51 345 C 181.36 339.42 187.58 330.54 190.84 327 C 194.09 323.46 205.85 313.32 210 310.72 C 214.15 308.11 227.69 302.79 231 301.77 C 234.31 300.75 239.73 300.73 242 300.86 C 244.27 300.98 250.42 302.05 253 302.99 C 255.58 303.94 262.63 307.2 266.97 310 C 271.31 312.8 291.48 327.94 295 330.14 C 298.52 332.34 299.76 331.41 301 331.31 C 302.24 331.21 305.85 330.13 307 329.17 C 308.15 328.2 311.75 323.77 312.1 322 C 312.46 320.23 313.51 315.62 310.4 312 C 307.28 308.38 285.27 290.2 281.92 287 C 278.57 283.8 278.49 282.24 277.98 281 C 277.46 279.76 276.72 276.45 276.92 275 C 277.12 273.55 279.07 268.4 279.9 267 C 280.73 265.6 281.13 264.3 285 261.41 C 288.87 258.52 313.73 242.14 317.31 239 C 320.89 235.86 319.63 232.55 319.61 231 C 319.58 229.45 317.86 225.08 317.07 224 C 316.29 222.92 313.25 220.92 312 220.54 C 310.75 220.16 308.72 218.54 305 220.3 C 301.28 222.06 279.93 235.55 276 237.58 C 272.07 239.61 268.86 239.75 267 239.95 C 265.14 240.15 259.65 239.88 258 239.47 C 256.35 239.07 252.34 237.05 251 236.06 C 249.66 235.07 247.58 234.23 245 229.9 C 242.42 225.57 228.69 198.21 226 194.19 C 223.31 190.17 220.62 191.14 219 191.02 C 217.38 190.9 211.7 192.18 210.33 193 C 208.96 193.82 206.23 197.66 205.73 199 C 205.23 200.34 204.57 203.31 205.46 206 C 206.35 208.69 213.01 221.28 214.34 225 C 215.67 228.72 218.03 238.9 218.34 242 C 218.64 245.1 217.86 252.42 217.25 255 C 216.64 257.58 213.57 264.85 212.41 267 C 211.25 269.15 207.7 274.01 206 275.82 C 204.3 277.64 201.79 281.13 196 284.54 C 190.21 287.95 156.72 304.84 150 308.86 C 143.28 312.88 134 320.73 131 323.44 C 128 326.15 122.76 332.66 121 335.1 C 119.24 337.53 115.25 344.34 114 347.01 C 112.75 349.69 109.59 358.42 108.89 361 C 108.2 363.58 107.14 369.52 107.3 372 Z M 315.12 178 C 315.21 181.2 316.5 193.28 317.73 197 C 318.95 200.72 324.47 210.87 326.98 214 C 329.48 217.13 338.59 225.19 342 227.3 C 345.41 229.4 356.07 233.65 360 234.39 C 363.93 235.13 376.07 235.2 380 234.45 C 383.93 233.71 394.83 229.28 398 227.17 C 401.17 225.05 408.69 217.12 410.66 214 C 412.63 210.88 416.46 201.24 417.06 197 C 417.67 192.76 417.44 177.55 416.53 173 C 415.63 168.45 410.62 156.56 408.3 153 C 405.97 149.44 397.44 140.83 394 138.52 C 390.56 136.2 379.24 131.36 375 130.59 C 370.76 129.81 357.24 129.99 353 130.98 C 348.76 131.96 337.33 137.52 334 140.11 C 330.67 142.69 322.55 153.32 320.78 156 C 319.01 158.68 317.47 163.73 316.88 166 C 316.3 168.27 315.03 174.8 315.12 178 Z M 313.47 361 C 313.45 364.72 315.35 375.9 316.52 379 C 317.7 382.1 322.32 388.82 324.85 391 C 327.38 393.18 337.47 398.89 341 400.08 C 344.53 401.26 355.28 402.65 359 402.46 C 362.72 402.26 373.8 399.7 377 398.22 C 380.2 396.74 387.91 390.63 390 388.13 C 392.09 385.62 396.21 377.22 397.2 374 C 398.19 370.78 399.79 360.62 399.6 357 C 399.41 353.38 396.9 342.32 395.39 339 C 393.88 335.68 387.52 327.22 385 324.83 C 382.48 322.44 374.2 317.04 371 315.86 C 367.8 314.69 357.51 313.21 354 313.5 C 350.49 313.79 340 317.12 337 318.66 C 334 320.2 327.09 325.89 325 328.4 C 322.91 330.92 317.95 339.63 316.76 343 C 315.57 346.37 313.5 357.28 313.47 361 Z M 126.99 153 C 126.99 156.51 129.18 166.9 130.53 170 C 131.87 173.1 137.37 180.72 140 183.03 C 142.63 185.33 152.49 191.17 156 192.34 C 159.51 193.5 170.49 194.49 174 194.27 C 177.51 194.06 187.03 191.61 190 190.24 C 192.97 188.87 200.68 183.3 202.77 181 C 204.85 178.7 209.11 171.1 210.16 168 C 211.21 164.9 213.05 154.62 212.94 151 C 212.82 147.38 210.36 136.18 209.02 133 C 207.69 129.82 202.28 122.37 200 120.19 C 197.72 118.01 190.1 113.1 187 111.89 C 183.9 110.69 173.41 108.52 170 108.53 C 166.59 108.53 157.06 110.62 154 111.91 C 150.94 113.19 142.77 118.51 140.34 121 C 137.92 123.49 131.92 132.69 130.54 136 C 129.16 139.31 126.99 149.49 126.99 153 Z M 361.29 183 C 361.18 185.09 363.69 191.37 365 192.83 C 366.31 194.29 372.12 197 374 197.12 C 375.88 197.24 381.75 195.36 383.22 194 C 384.69 192.64 388.01 186.05 388.2 184 C 388.38 181.95 386.26 175.7 385 174.19 C 383.74 172.68 377.96 169.53 376 169.37 C 374.04 169.2 367.52 171.23 366 172.64 C 364.48 174.04 361.39 180.91 361.29 183 Z M 151.05 152 C 151.11 153.87 153.56 159.77 155 161.1 C 156.44 162.42 163.04 164.95 165 164.82 C 166.96 164.69 172.8 161.39 174 159.86 C 175.2 158.33 176.84 151.92 176.64 150 C 176.43 148.08 173.41 142.52 172 141.32 C 170.59 140.13 164.81 138.29 163 138.46 C 161.19 138.63 155.69 141.6 154.45 143 C 153.22 144.4 150.99 150.13 151.05 152 Z M 347.1 362 C 347.2 363.86 349.95 369.73 351.28 371 C 352.61 372.27 358.22 374.35 360 374.24 C 361.78 374.14 367.32 371.37 368.54 370 C 369.77 368.63 371.88 362.83 371.83 361 C 371.77 359.17 369.33 353.57 368 352.31 C 366.67 351.04 360.83 348.67 359 348.74 C 357.17 348.81 351.55 351.63 350.32 353 C 349.1 354.37 347.01 360.14 347.1 362 Z"/>
</svg>
