<svg xmlns="http://www.w3.org/2000/svg" viewBox="0 0 512 512" width="512" height="512" role="img" aria-label="Lineage Fitness icon">
  <path fill="#fff" fill-rule="evenodd" d="M 53.39 412 C 53.25 413.96 53.43 419.93 53.78 422 C 54.13 424.07 55.69 429.83 56.75 432 C 57.81 434.17 62.53 441.25 64 442.99 C 65.47 444.73 69.35 447.78 71 448.85 C 72.65 449.92 78.04 452.65 80 453.34 C 81.96 454.02 86.9 455.64 90 455.5 C 93.1 455.36 106.9 453 110 451.95 C 113.1 450.9 118.3 446.8 120 445.36 C 121.7 443.92 125.26 439.79 126.44 438 C 127.62 436.21 130.02 431.82 131.39 428 C 132.77 424.18 138.07 404.82 139.74 401 C 141.41 397.18 145.78 392.76 147.56 391 C 149.35 389.24 154.06 385.23 157 383.93 C 159.94 382.63 170.73 378.37 176 378.39 C 181.27 378.4 202.83 383.53 208 384.05 C 213.17 384.56 222.38 384.07 226 383.37 C 229.62 382.66 239.8 378.99 243 377.26 C 246.2 375.52 254.49 369.1 257 366.59 C 259.51 364.08 265.57 355.95 267.26 353 C 268.95 350.05 272.5 341 273.34 338 C 274.19 335 275.21 328.03 275.45 324 C 275.69 319.97 275.23 303.24 275.66 299 C 276.1 294.76 278.2 286.39 279.68 283 C 281.16 279.61 287.38 269.31 290 266.19 C 292.62 263.07 300.87 255.34 305 252.84 C 309.13 250.34 322.77 243.81 330 241.99 C 337.23 240.18 368.59 236.8 375 235.28 C 381.41 233.77 387.76 229.76 392 227.31 C 396.24 224.85 412.49 213.13 416 211.51 C 419.51 209.9 423.52 210.96 426 211.69 C 428.48 212.42 437.73 217.67 440 218.56 C 442.27 219.45 446.35 220.23 448 220.3 C 449.65 220.36 454.35 219.75 456 219.2 C 457.65 218.65 462.5 216.18 463.95 215 C 465.4 213.82 469.04 209.4 470 207.75 C 470.96 206.1 473.1 201.56 473.25 199 C 473.4 196.44 472.61 185.81 471.45 183 C 470.29 180.19 464.84 173.59 462 171.77 C 459.16 169.96 446.49 166.62 444 165.4 C 441.51 164.19 439.47 164.59 437.95 160 C 436.42 155.41 430.91 126.58 429.26 121 C 427.61 115.42 423.78 108.97 422 106.04 C 420.22 103.1 414.89 95.53 412 92.59 C 409.11 89.65 398.03 80.06 394 77.58 C 389.97 75.1 377.96 69.82 373 68.59 C 368.04 67.36 352.41 65.32 346 65.68 C 339.59 66.04 315.44 71.81 311 72.08 C 306.56 72.35 304.94 70.17 303 68.3 C 301.06 66.43 294.27 56.1 292.21 54 C 290.14 51.9 285.29 48.68 283 47.95 C 280.71 47.22 272.58 46.46 270 46.96 C 267.42 47.47 259.98 51.24 258 52.8 C 256.02 54.35 251.87 59.71 250.86 62 C 249.86 64.29 248.05 72.23 248.27 75 C 248.49 77.77 251.04 85.93 253 88.82 C 254.96 91.71 265.31 100.71 267.2 103 C 269.1 105.29 270.91 109.24 271.37 111 C 271.83 112.76 272.13 116.49 271.65 120 C 271.17 123.51 267.21 140.87 266.69 145 C 266.17 149.13 266.07 156.07 266.59 160 C 267.11 163.93 269.57 177.01 271.71 183 C 273.84 188.99 285.61 212.83 287.21 218 C 288.81 223.17 287.72 230.02 287.18 233 C 286.65 235.98 283.57 244.19 282 246.88 C 280.43 249.58 274.38 257.12 272 259.08 C 269.62 261.03 261.27 265.01 259 265.77 C 256.73 266.53 253.41 266.79 250 266.42 C 246.59 266.05 229.72 262.63 226 262.18 C 222.28 261.74 216.89 261.73 214 262.09 C 211.11 262.45 201.31 264.46 198 265.68 C 194.69 266.9 185.07 271.71 182 273.91 C 178.93 276.11 170.66 283.99 168.33 287 C 166 290.01 160.76 299.69 159.47 303 C 158.19 306.31 156.24 313.94 155.91 319 C 155.58 324.06 156.56 347.76 156.3 352 C 156.04 356.24 154.32 358.35 153.43 360 C 152.54 361.65 149.29 366.42 147.7 368 C 146.1 369.58 140.24 374.14 138 375.28 C 135.76 376.42 130.55 379.08 126 379.02 C 121.45 378.96 99.17 374.73 94 374.7 C 88.83 374.68 78.79 377.74 76 378.8 C 73.21 379.87 68.67 383.53 67.01 385 C 65.35 386.47 61.21 391.14 59.98 393 C 58.74 394.86 55.76 401.04 55.08 403 C 54.4 404.96 53.52 410.04 53.39 412 Z"/>
</svg>
