<svg xmlns="http://www.w3.org/2000/svg" viewBox="0 0 512 512" width="512" height="512" role="img" aria-label="Open Infection Slot icon">
  <path fill="#fff" fill-rule="evenodd" d="M 122.78 174 C 122.48 191.05 122.58 304.36 122.78 321 C 122.98 337.64 123.86 332.13 124.71 335 C 125.56 337.87 129.32 346.4 131 348.79 C 132.68 351.18 138.42 356.68 141 358.16 C 143.58 359.64 153.11 362.68 156 363.1 C 158.89 363.53 166.51 363.09 169 362.25 C 171.49 361.41 177.75 357.82 180.11 355 C 182.47 352.18 189.27 338.62 191.85 335 C 194.42 331.38 203.2 322.69 205.02 320 C 206.85 317.31 208.94 311.38 209.47 309 C 210 306.62 210.25 299.07 210.15 297 C 210.04 294.93 210.56 293.03 208.46 289 C 206.35 284.97 192.22 263.99 189.78 258 C 187.34 252.01 185.17 235.34 184.84 231 C 184.51 226.66 185.98 219 186.6 216 C 187.22 213 188.3 206.75 190.84 202 C 193.37 197.25 208.91 174.96 211.09 170 C 213.27 165.04 212.5 157 211.92 154 C 211.35 151 207.48 143.38 205.52 141 C 203.57 138.62 196.15 132.52 193 130.95 C 189.85 129.38 178.62 126.2 175 125.79 C 171.38 125.38 161.31 126.19 158 126.99 C 154.69 127.79 145.69 131.76 143 133.51 C 140.31 135.27 133.71 141.68 131.93 144 C 130.14 146.32 126.65 152.9 125.71 156 C 124.76 159.1 123.08 156.95 122.78 174 Z M 296.33 161 C 296.41 163.69 297.54 170.65 299.78 175 C 302.01 179.35 315.57 197.75 318 203.12 C 320.43 208.49 322.8 222.98 323.28 227 C 323.77 231.02 323.14 238.9 322.7 242 C 322.26 245.1 320.02 254.21 319.04 257 C 318.05 259.79 314.92 266.18 313.16 269 C 311.4 271.82 303.46 281.91 302 284.3 C 300.54 286.7 299.41 290.14 299 292.18 C 298.59 294.21 297.91 301.85 297.99 304 C 298.08 306.15 296.39 307.42 299.8 313 C 303.21 318.58 326.43 352.83 331 358.01 C 335.57 363.19 340.8 362.78 344 363.13 C 347.2 363.48 359.31 361.95 362 361.35 C 364.69 360.75 368.43 358.47 370 357.29 C 371.57 356.12 375.88 351.79 377.17 350 C 378.45 348.21 381.58 342.38 382.42 340 C 383.25 337.62 384.89 343.84 385.23 327 C 385.58 310.16 385.99 194.77 385.73 177 C 385.47 159.23 383.71 158.55 382.71 155 C 381.7 151.45 377.83 144.98 376 142.68 C 374.17 140.39 367.6 134.43 365 132.81 C 362.4 131.19 353.75 127.73 350.86 127 C 347.97 126.27 340.19 125.46 337 125.73 C 333.81 126 323.2 128.24 320 129.59 C 316.8 130.94 308.17 136.8 306 138.8 C 303.83 140.81 299.98 146.71 298.98 149 C 297.98 151.29 296.25 158.31 296.33 161 Z M 174.68 404 C 174.64 406.94 176.06 414.69 177 417.48 C 177.94 420.27 182.1 428.6 183.76 431 C 185.41 433.4 190.8 438.9 193 440.68 C 195.2 442.46 202.21 446.95 205 448.26 C 207.79 449.56 217.11 452.66 220 453.33 C 222.89 454 230.31 454.73 233 454.73 C 235.69 454.73 243.21 453.99 246 453.34 C 248.79 452.69 257.52 449.61 260 448.4 C 262.48 447.19 267.93 443.52 270 441.62 C 272.07 439.72 276.89 435.22 280 429.99 C 283.11 424.76 297.59 396.68 300.08 391 C 302.57 385.32 303.64 378.1 304.09 375 C 304.55 371.9 304.63 363.58 304.48 361 C 304.33 358.42 303.31 352.27 302.67 350 C 302.03 347.73 300.08 341.64 298.26 339 C 296.43 336.36 287.92 326.6 285 324.41 C 282.08 322.22 273.41 318.6 270 317.82 C 266.59 317.03 256.03 316.23 252 316.86 C 247.97 317.49 234.79 321.94 231 323.92 C 227.21 325.89 220.19 330.51 215.3 336 C 210.4 341.49 187.55 371.52 183.62 377 C 179.7 382.48 178.26 386.21 177.34 389 C 176.41 391.79 174.71 401.06 174.68 404 Z M 365.38 99 C 365.25 101.69 366.28 106.59 368.02 110 C 369.76 113.41 379.1 126.32 382.2 132 C 385.3 137.68 395.57 161.14 398.03 165 C 400.49 168.86 403.94 168.88 406 169.39 C 408.06 169.91 415.83 170.27 418 170.01 C 420.17 169.74 425.22 167.84 427 166.81 C 428.78 165.78 433.73 162.05 435.21 160 C 436.69 157.95 440.78 149.89 441.34 147 C 441.9 144.11 442.64 137.99 440.66 132 C 438.68 126.01 424.89 94.59 422.14 89 C 419.38 83.41 416.39 79.83 414 77.94 C 411.61 76.05 401.38 71.51 399 70.73 C 396.62 69.94 392.76 70.1 391 70.31 C 389.24 70.53 383.75 72 382 72.79 C 380.25 73.59 375.42 76.84 374.11 78 C 372.8 79.16 370.23 81.83 369.33 84 C 368.42 86.17 365.52 96.31 365.38 99 Z M 210.25 393 C 210.5 395.27 212.81 403.7 214.33 406 C 215.86 408.3 222.35 413.97 225 415.21 C 227.65 416.45 237.21 418 240 417.99 C 242.79 417.99 249.42 416.53 252 415.14 C 254.58 413.75 262.4 407.46 265 404.55 C 267.6 401.64 275.58 390.05 277.12 387 C 278.67 383.95 279.98 377.58 279.99 375 C 280.01 372.42 278.21 364.17 277.28 362 C 276.35 359.83 272.58 355.34 271 354.01 C 269.42 352.68 264.07 349.75 262 349.16 C 259.93 348.57 253.13 348.08 251 348.27 C 248.87 348.46 243.35 350.03 241.39 351 C 239.43 351.97 234.54 355.14 232 357.62 C 229.46 360.1 218.88 372.27 216.8 375 C 214.71 377.73 212.52 382.14 211.84 384 C 211.16 385.86 209.99 390.73 210.25 393 Z"/>
</svg>
