<svg xmlns="http://www.w3.org/2000/svg" viewBox="0 0 512 512" width="512" height="512" role="img" aria-label="Open Replication Slot icon">
  <path fill="#fff" fill-rule="evenodd" d="M 80.34 214 C 79.88 225.57 79.94 287.53 80.37 299 C 80.8 310.47 83.44 320.66 84.52 325 C 85.6 329.34 89.22 337.81 90.82 341 C 92.42 344.19 97.6 352.73 100 355.82 C 102.4 358.91 111.11 368.3 114 370.92 C 116.89 373.54 124.49 379.13 128 381.14 C 131.51 383.16 143.25 388.96 148 390.41 C 152.75 391.86 154.26 394.67 174 395.16 C 193.74 395.65 321.02 395.41 339 395.14 C 356.98 394.87 346.35 393.49 348 392.54 C 349.65 391.59 353.94 387.78 355 385.96 C 356.06 384.15 358.11 377.06 358.22 375 C 358.33 372.94 356.9 367.65 356.05 366 C 355.2 364.35 351.54 360.1 349.99 359 C 348.43 357.9 358.88 355.74 341 355.34 C 323.12 354.94 196.01 355.55 177 355.13 C 157.99 354.71 160.71 352.6 157 351.25 C 153.29 349.89 143.93 344.2 141.14 342 C 138.35 339.8 131.89 332.63 130 329.94 C 128.11 327.26 123.96 319.3 122.88 316 C 121.8 312.7 119.79 309.26 119.54 298 C 119.3 286.74 119.49 218.68 120.47 207 C 121.44 195.32 126.67 188.82 129 185.01 C 131.33 181.2 139.9 172.54 143 170.14 C 146.1 167.73 155.8 162.91 159 161.74 C 162.2 160.58 155.09 159.23 174 158.88 C 192.91 158.53 323.61 158.99 342 158.39 C 360.39 157.78 350.38 154.65 352 153.06 C 353.62 151.47 357.2 145.28 357.69 143 C 358.17 140.72 357.59 133.2 356.7 131 C 355.8 128.8 350.52 122.99 349 121.75 C 347.48 120.5 343.76 119.3 342 118.95 C 340.24 118.6 348.74 118.4 332 118.33 C 315.26 118.27 197.57 118.18 180 118.33 C 162.43 118.48 165.51 119.18 162 119.75 C 158.49 120.32 150.44 121.94 146 123.86 C 141.56 125.79 123.87 134.72 119 138.35 C 114.13 141.98 102.4 153.97 98.86 159 C 95.33 164.03 86.73 181.32 84.82 187 C 82.9 192.68 80.8 202.43 80.34 214 Z M 187.33 215 C 187.38 217.17 188.33 224.61 189.44 227 C 190.54 229.39 195.98 236.3 198 238.16 C 200.02 240.03 204.87 243.05 209 245.04 C 213.13 247.02 234.52 255.53 238 257.39 C 241.48 259.25 242.59 261.82 242.7 263 C 242.8 264.18 241.97 267.09 239 268.78 C 236.03 270.47 217.93 277.24 214 279.36 C 210.07 281.47 202.76 287.54 201 289.26 C 199.24 290.98 197.56 294.48 196.95 296 C 196.34 297.52 195.26 302.24 195.13 304 C 195 305.76 195.33 311.35 195.66 313 C 196 314.65 197.49 318.52 198.36 320 C 199.22 321.48 202.07 325.74 204 327.36 C 205.93 328.98 212.62 333.52 217 335.65 C 221.38 337.78 242.29 346.83 246.43 348 C 250.56 349.17 255.39 347.53 257 346.99 C 258.61 346.46 261.22 343.87 262 342.83 C 262.78 341.8 264.32 338.22 264.59 337 C 264.85 335.78 264.89 332.24 264.59 331 C 264.3 329.76 262.63 326.07 261.74 325 C 260.85 323.93 259.59 322.38 256 320.68 C 252.41 318.98 230.22 310.07 227 308.56 C 223.78 307.04 222.26 307.6 224.85 306 C 227.43 304.4 247.95 295.33 252 293.08 C 256.05 290.84 262.02 286.56 264 284.27 C 265.98 281.99 270.45 274.02 271.17 271 C 271.9 267.98 271.57 257.69 271.04 255 C 270.5 252.31 267.35 246.84 266 245.01 C 264.65 243.18 262.75 239.9 258 237.32 C 253.25 234.74 224.32 222.2 220.04 220 C 215.77 217.8 212.71 219.03 216.63 216 C 220.55 212.97 253.28 194.23 258 190.72 C 262.72 187.2 262.09 183.93 262.32 182 C 262.55 180.07 261.06 173.58 260.2 172 C 259.34 170.42 255.57 167.31 254 166.67 C 252.43 166.03 249.44 164.03 245 165.82 C 240.56 167.6 215.55 181.4 211 183.93 C 206.45 186.46 202.86 188.78 201 190.27 C 199.14 191.76 194.25 196.68 193 198.31 C 191.75 199.93 189.51 204.28 188.92 206 C 188.34 207.72 187.28 212.83 187.33 215 Z M 379.63 213 C 379.56 223.75 380.36 296.46 380.94 307 C 381.51 317.54 383.83 313.45 385.18 315 C 386.53 316.55 392.06 321.06 394 322.04 C 395.94 323.02 401.83 324.39 404 324.5 C 406.17 324.61 412.69 324.09 415 323.11 C 417.31 322.13 424.63 317.18 426.35 315 C 428.08 312.82 431.14 312.64 431.71 302 C 432.28 291.36 431.99 222.13 431.87 212 C 431.74 201.87 431.01 205.55 430.49 204 C 429.96 202.45 427.87 198.37 426.78 197 C 425.7 195.63 421.53 191.76 420 190.78 C 418.47 189.81 413.86 187.92 412 187.55 C 410.14 187.17 403.86 186.95 402 187.16 C 400.14 187.36 395.6 188.72 394 189.53 C 392.4 190.34 387.81 193.61 386.52 195 C 385.23 196.39 382.25 201.14 381.53 203 C 380.82 204.86 379.69 202.25 379.63 213 Z"/>
</svg>
