<svg xmlns="http://www.w3.org/2000/svg" viewBox="0 0 512 512" width="512" height="512" role="img" aria-label="Polymerase Drive icon">
  <g fill="#fff">
    <path d="M 182.91 168 C 182.93 172.24 185.31 185.06 186.77 189 C 188.23 192.94 194.29 203.1 197 206.12 C 199.71 209.14 210.21 216.61 213 218.26 C 215.79 219.91 221.73 221.62 224 222.09 C 226.27 222.57 232.62 223.06 235 222.86 C 237.38 222.66 244.21 221.52 247 220.15 C 249.79 218.78 259.31 211.25 262 209.63 C 264.69 208.01 267.11 205.98 273 204.47 C 278.89 202.96 313.3 196.72 318.98 195 C 324.67 193.28 326.48 190.06 328 187.78 C 329.52 185.51 332.64 175.08 333.67 173 C 334.7 170.92 336.73 168.56 338 167.7 C 339.27 166.84 344.35 164.77 346 164.68 C 347.65 164.58 352.63 166.04 354 166.8 C 355.37 167.56 358.5 170.74 359.27 172 C 360.05 173.26 361.39 177.24 361.51 179 C 361.62 180.76 361 186.42 360.37 189 C 359.73 191.58 354.63 201.21 355.33 204 C 356.03 206.79 365.76 214.14 367.14 216 C 368.52 217.86 368.72 220.66 368.69 222 C 368.66 223.34 367.67 227.65 366.87 229 C 366.08 230.35 362.33 234.26 361 235.1 C 359.67 235.93 355.45 237.04 354 237.09 C 352.55 237.13 348.76 236.28 347 235.53 C 345.24 234.78 338.34 230.38 337 229.84 C 335.66 229.29 335.45 228.19 334 230.24 C 332.55 232.28 324.76 247.24 323 249.6 C 321.24 251.97 319.17 252.39 317 253.11 C 314.83 253.82 304.24 255.61 302 256.53 C 299.76 257.45 296.39 260.4 295.36 262 C 294.32 263.6 292.17 269.93 292.01 272 C 291.84 274.07 292.74 279.64 293.77 282 C 294.81 284.36 299.91 292.46 302 294.8 C 304.09 297.13 311.31 302.87 314 304.6 C 316.69 306.33 324.9 310.45 328 311.53 C 331.1 312.61 340.8 314.77 344 315.03 C 347.2 315.3 356 314.72 359 314.1 C 362 313.48 370.21 310.59 373 309.02 C 375.79 307.46 383.71 301.31 386 298.94 C 388.29 296.56 393.37 289.61 395.16 286 C 396.94 282.39 402.09 268.96 403.25 264 C 404.41 259.04 406.33 243.68 406.37 238 C 406.41 232.32 404.48 214.06 403.64 209 C 402.79 203.94 399.79 193.42 398.17 189 C 396.56 184.58 390.48 170.64 388 166.2 C 385.52 161.75 377.2 149.74 374.14 146 C 371.08 142.26 362.24 133.16 358.4 130 C 354.56 126.84 341.9 118.03 337 115.42 C 332.1 112.81 316.17 106.36 311 104.75 C 305.83 103.13 291.96 100.42 287 99.82 C 282.04 99.22 268.58 98.49 263 98.98 C 257.42 99.46 238.27 102.87 233 104.51 C 227.73 106.15 215.81 112.22 212 114.85 C 208.19 117.49 198.73 126.57 196.11 130 C 193.48 133.43 187.95 144.07 186.59 148 C 185.22 151.93 182.89 163.76 182.91 168 Z"/>
    <path d="M 105.82 284 C 105.72 287.41 106.23 295.4 106.77 299 C 107.3 302.6 109.87 315.02 111 318.85 C 112.13 322.67 115.98 332.41 117.74 336 C 119.49 339.59 125.7 350.23 128 353.59 C 130.3 356.95 137.31 365.69 140 368.55 C 142.69 371.4 149.35 378.04 154 381.22 C 158.65 384.4 179.94 396.81 185 399.29 C 190.06 401.77 198.97 404.22 203 405.2 C 207.03 406.18 219.97 408.38 224 408.75 C 228.03 409.12 238.28 409.1 242 408.77 C 245.72 408.44 256.49 406.54 260 405.55 C 263.51 404.57 273.24 400.61 276 399.21 C 278.76 397.81 284.54 393.89 286.71 392 C 288.88 390.11 295.19 383.45 297 380.97 C 298.81 378.49 303.1 370.68 304.25 368 C 305.4 365.32 307.63 357.69 308.16 355 C 308.68 352.31 309.38 344.69 309.32 342 C 309.25 339.31 308.13 331.58 307.52 329 C 306.9 326.42 305.28 320.26 303.36 317 C 301.45 313.74 291.62 300.32 289 297.49 C 286.38 294.66 280.27 290.87 278 289.64 C 275.73 288.42 268.86 286.09 267 285.61 C 265.14 285.13 261.47 284.88 260 285.02 C 258.53 285.16 253.98 285.56 252.77 287 C 251.56 288.44 249.49 297.09 248.28 299 C 247.06 300.91 244.13 304.72 241 305.47 C 237.87 306.22 221.41 305.81 218 306.25 C 214.59 306.68 209.67 308.78 208 309.68 C 206.33 310.59 203.19 313.16 201.85 315 C 200.51 316.84 196.43 325.73 195 327.48 C 193.57 329.24 189.55 331.43 188 331.98 C 186.45 332.53 182.07 333.08 180 332.8 C 177.93 332.53 169.96 328.51 168 329.28 C 166.04 330.05 162.65 338.7 161 340.25 C 159.35 341.79 153.69 343.95 152 344.23 C 150.31 344.52 146.06 343.67 144.61 343 C 143.16 342.33 139.02 339.3 138 337.75 C 136.98 336.2 134.78 330.76 134.77 328 C 134.75 325.24 136.68 314.72 137.83 311 C 138.98 307.28 143.8 295.64 145.89 292 C 147.97 288.36 155.72 278.22 158 275.73 C 160.28 273.24 165.73 269.27 168 267.93 C 170.27 266.6 174.52 263.92 180 262.81 C 185.48 261.71 216.39 258.03 221 257.22 C 225.61 256.42 224.49 256.06 224.64 255 C 224.8 253.94 223.64 249.17 222.48 247 C 221.31 244.83 215.59 236.49 213.37 234 C 211.15 231.51 203.72 224.88 201 222.9 C 198.28 220.91 189.89 216.08 187 214.81 C 184.11 213.53 175.89 211.09 173 210.58 C 170.11 210.07 162 209.58 159 209.9 C 156 210.21 146.89 212.42 144 213.65 C 141.11 214.87 133.39 219.75 131 221.75 C 128.61 223.75 122.76 230.29 120.88 233 C 119 235.71 114.17 244.59 112.81 248 C 111.45 251.41 108.4 262.28 107.67 266 C 106.95 269.72 105.91 280.59 105.82 284 Z"/>
    <path d="M 143.74 328 C 143.85 330.32 146.84 334.03 148 334.6 C 149.16 335.17 153.35 335.94 155 333.54 C 156.65 331.15 161.31 312.59 164 311.43 C 166.69 310.26 178.5 321.26 181 322.25 C 183.5 323.24 187.24 321.54 188.2 321 C 189.16 320.46 190.21 317.93 190.27 317 C 190.33 316.07 190.67 313.86 188.78 312 C 186.89 310.14 173.33 300.92 172.01 299 C 170.69 297.08 174.55 294.58 176 293.43 C 177.45 292.27 184.24 288.5 186 287.84 C 187.76 287.18 192.01 285.8 193 287.06 C 193.99 288.32 194.85 298.28 195.57 300 C 196.3 301.72 199.13 303.38 200 303.69 C 200.87 303.99 203.33 303.34 204 302.96 C 204.67 302.58 206.3 301.75 206.45 300 C 206.6 298.25 205.37 287.62 205.43 286 C 205.49 284.38 205.08 284.61 207 284.28 C 208.92 283.95 221.42 281.64 224 282.81 C 226.58 283.97 230.45 294.19 232 295.54 C 233.55 296.89 238.01 296.3 239 295.83 C 239.99 295.36 241.72 292.74 241.56 291 C 241.41 289.26 236.67 281.29 237.54 279 C 238.41 276.71 247.68 271.58 250 268.85 C 252.32 266.12 257.11 253.37 260 252.59 C 262.89 251.82 275.52 260.72 278 261.34 C 280.48 261.96 283.47 259.63 284 258.56 C 284.53 257.49 284.83 252.92 283.1 251 C 281.36 249.08 267.7 242.17 267.18 240 C 266.65 237.83 275.85 231.38 278 229.98 C 280.15 228.57 286.04 226.85 288 226.4 C 289.96 225.95 295.14 223.88 297 225.64 C 298.86 227.39 304.55 241.32 306 243.42 C 307.45 245.52 310.07 245.83 311 245.94 C 311.93 246.04 314.38 245.07 315 244.46 C 315.62 243.84 317.44 242.01 317.02 240 C 316.61 237.99 311.5 226.74 310.98 225 C 310.46 223.26 309.62 224.04 312 223.15 C 314.38 222.27 329.97 215.97 334 216.4 C 338.03 216.83 348.55 226.22 351 227.31 C 353.45 228.41 356.75 227.45 357.69 227 C 358.62 226.55 359.92 223.83 360.06 223 C 360.21 222.17 360.73 220.65 359.07 219 C 357.41 217.35 344.72 210.1 343.99 207 C 343.27 203.9 351.1 191.69 352.06 189 C 353.03 186.31 353.35 182.26 353.34 181 C 353.33 179.74 352.66 177.5 352 176.78 C 351.34 176.05 348.03 174.1 347 174.01 C 345.97 173.91 343.33 173.8 342 175.87 C 340.67 177.94 336.1 191.18 334.13 194 C 332.17 196.82 325.18 201.88 323 203.18 C 320.82 204.49 317.44 205.73 313 206.63 C 308.56 207.54 284.96 210.66 280 211.91 C 275.04 213.16 267.71 216.87 265 218.74 C 262.29 220.61 256.33 226.15 253.73 230 C 251.14 233.85 242.24 252.53 239.89 256 C 237.54 259.47 232.85 262.49 231 263.59 C 229.15 264.68 226.75 265.8 222 266.59 C 217.25 267.37 190.37 270.05 185 271.2 C 179.63 272.35 172.49 276.21 170 277.74 C 167.51 279.27 162.66 283.91 160.89 286 C 159.12 288.09 154.32 295.3 152.89 298 C 151.45 300.7 147.94 309.01 147 312.11 C 146.06 315.21 143.64 325.68 143.74 328 Z"/>
    <path d="M 108.51 151 C 108.44 151.94 109.43 154.47 110 155.11 C 110.57 155.74 109.04 156.93 114 157.18 C 118.96 157.43 152.52 157.61 158 157.52 C 163.48 157.42 165.75 156.94 167 156.27 C 168.25 155.59 169.99 152.06 170.09 151 C 170.19 149.94 168.76 146.7 167.93 146 C 167.09 145.3 167.47 144.36 162 144.18 C 156.53 144 120.31 144.05 115 144.23 C 109.69 144.42 111.27 145.3 110.6 146 C 109.93 146.7 108.57 150.06 108.51 151 Z"/>
    <path d="M 125.02 121 C 125.04 121.95 126.18 125.48 127 126.23 C 127.82 126.98 127.83 128.07 133 128.27 C 138.17 128.47 171.98 128.36 177 128.13 C 182.02 127.9 180.89 126.63 181.55 126 C 182.22 125.37 183.43 122.93 183.42 122 C 183.41 121.07 182.15 117.72 181.49 117 C 180.83 116.28 182.22 115.23 177 115.04 C 171.78 114.84 136.18 114.94 131 115.14 C 125.82 115.35 127.45 116.39 126.83 117 C 126.21 117.61 125 120.05 125.02 121 Z"/>
    <path d="M 125.47 179 C 125.6 179.93 127.22 183.3 128 183.96 C 128.78 184.61 129.18 185.22 133 185.35 C 136.82 185.48 161.32 185.45 165 185.21 C 168.68 184.96 168.08 183.64 168.62 183 C 169.16 182.36 170.27 179.93 170.21 179 C 170.14 178.07 168.74 174.72 168 174.03 C 167.26 173.34 166.82 172.47 163 172.31 C 159.18 172.14 134.74 172.17 131 172.45 C 127.26 172.73 127.33 174.32 126.76 175 C 126.19 175.68 125.34 178.07 125.47 179 Z"/>
  </g>
</svg>
