<svg xmlns="http://www.w3.org/2000/svg" viewBox="0 0 1254 1254" width="1254" height="1254" role="img" aria-label="Productive Infection icon">
  <path fill="#fff" fill-rule="evenodd" d="M 175.46 625 C 174.93 635.44 174.77 653.98 175.51 664 C 176.25 674.02 180.4 710.12 182.6 722 C 184.8 733.88 193.58 768.46 196.81 779 C 200.03 789.54 209.59 814.6 213.83 824 C 218.06 833.4 232.72 861.4 237.8 870 C 242.88 878.6 257.71 900.18 263 907.26 C 268.29 914.34 282.49 931.64 289 938.48 C 295.51 945.32 318.25 966.96 326 973.44 C 333.75 979.92 355.42 995.78 364 1001.18 C 372.58 1006.59 399.91 1021.49 409 1025.73 C 418.09 1029.97 442.7 1039.33 452 1042.2 C 461.3 1045.06 490.32 1051.88 499 1053.47 C 507.68 1055.05 528.66 1057.1 536 1057.52 C 543.34 1057.95 564.21 1057.77 570 1057.56 C 575.79 1057.34 584.77 1056.72 592 1055.44 C 599.23 1054.16 630.8 1047.84 640 1045.18 C 649.2 1042.53 673.35 1033.26 681 1029.74 C 688.65 1026.23 707.59 1015.45 714 1011.18 C 720.41 1006.92 738.1 992.8 743 988.44 C 747.9 984.08 757.59 973.8 761.44 969 C 765.28 964.2 777.21 946.96 780.21 942 C 783.22 937.04 788.42 926.99 790.51 921 C 792.59 915.01 799.38 890.51 800.4 884 C 801.43 877.49 800.63 862.03 800.4 858 C 800.17 853.97 799.12 848.2 798.17 845 C 797.23 841.8 793.24 830.67 791.26 827 C 789.28 823.33 782.13 812.8 779 809.52 C 775.87 806.24 765.44 797.71 761 795.26 C 756.56 792.81 741.06 787.04 736 785.82 C 730.94 784.6 717.17 783.29 712 783.5 C 706.83 783.71 691.68 786.13 686 787.82 C 680.32 789.51 662.68 796.54 657 799.82 C 651.32 803.1 636.86 814.37 631 819.56 C 625.14 824.74 604.93 845.8 600.28 850 C 595.63 854.2 589.75 858.1 586 860.18 C 582.25 862.27 568.24 868.8 564 870.18 C 559.76 871.56 548.93 873.17 545 873.5 C 541.07 873.83 529.62 873.73 526 873.41 C 522.38 873.09 513.82 871.62 510 870.41 C 506.18 869.21 493.13 863.91 489 861.74 C 484.87 859.57 473.87 852.52 470 849.44 C 466.13 846.37 455.46 837.01 451.56 832 C 447.66 826.99 435.06 806.68 432.27 801 C 429.48 795.32 425.6 780.82 424.6 777 C 423.59 773.18 422.72 767.31 422.51 764 C 422.31 760.69 422.04 749.13 422.6 745 C 423.15 740.87 426.05 728.13 427.85 724 C 429.65 719.87 437.12 708.12 440.03 705 C 442.94 701.88 452.08 695.46 456 693.83 C 459.92 692.19 474.8 690.07 478 689.18 C 481.2 688.29 485.53 686.04 487 685.2 C 488.47 684.35 491.35 682.57 492.22 681 C 493.08 679.43 495.63 672.22 495.4 670 C 495.17 667.78 494.74 664.58 490 659.52 C 485.26 654.45 454.91 626.84 449.56 621 C 444.22 615.16 440.44 608.06 438.27 603 C 436.11 597.94 429.71 577.89 428.6 572 C 427.48 566.11 427.41 550.24 427.51 546 C 427.62 541.76 428.85 534.51 429.6 531 C 430.36 527.49 433.46 515.72 434.83 512 C 436.2 508.28 440.69 498.62 442.83 495 C 444.97 491.38 453.17 479.94 455.56 477 C 457.96 474.06 463.47 468.75 466 466.56 C 468.53 464.37 476.59 458.01 480 455.82 C 483.41 453.62 494.97 447.14 499 445.28 C 503.03 443.43 515.07 439.03 519 437.82 C 522.93 436.61 531.11 434.24 537 433.59 C 542.89 432.94 567.84 430.98 576 431.52 C 584.16 432.06 608.56 436.84 616 438.84 C 623.44 440.84 639.01 446.89 648 450.85 C 656.99 454.82 694.63 473.73 703 477.2 C 711.37 480.67 723.94 483.59 729 484.44 C 734.06 485.29 747.97 485.64 752 485.41 C 756.03 485.18 764.9 483.08 768 482.18 C 771.1 481.28 778.69 478.56 782 476.73 C 785.31 474.9 797 466.97 800 464.44 C 803 461.92 808.62 455.67 811 452.26 C 813.38 448.85 821.09 435.72 823 431.45 C 824.91 427.19 828.57 414.56 829.44 411 C 830.32 407.44 831.28 400.93 831.49 397 C 831.69 393.07 831.85 377.75 831.4 373 C 830.96 368.25 828.48 355.75 827.17 351 C 825.86 346.25 820.79 331.65 818.73 327 C 816.66 322.35 809.9 310.24 807.19 306 C 804.47 301.76 795.61 289.82 792.44 286 C 789.26 282.18 780.12 272.41 776.48 269 C 772.85 265.59 761.98 256.43 757.28 253 C 752.58 249.57 736.71 239.09 731 235.82 C 725.29 232.54 710.06 224.47 702 221.27 C 693.94 218.07 660.65 207.06 653 204.82 C 645.35 202.58 634.1 200.55 628 199.59 C 621.9 198.63 600.61 196.04 594 195.52 C 587.39 194.99 570.2 194.4 564 194.51 C 557.8 194.62 541.03 195.75 534 196.59 C 526.97 197.42 502.51 201.32 496 202.59 C 489.49 203.85 475.86 207.45 471 208.82 C 466.14 210.19 455.1 213.51 449 215.83 C 442.9 218.15 420.68 226.83 412 231.27 C 403.32 235.71 374.35 252.42 365 258.8 C 355.65 265.18 330.35 284.92 321.52 293 C 312.69 301.08 286.22 329.35 279.53 337 C 272.85 344.65 261.13 360.8 256.81 367 C 252.5 373.2 242.76 387.7 237.8 397 C 232.84 406.3 213.47 445.74 208.83 457 C 204.18 468.26 195.75 495.05 192.83 506 C 189.91 516.95 182.37 550.7 180.57 563 C 178.78 575.3 175.98 614.56 175.46 625 Z M 468.5 759 C 468.07 761.79 468.25 769.52 468.6 772 C 468.94 774.48 469.76 779.28 471.81 783 C 473.87 786.72 485 803.87 488.5 808 C 492 812.13 502.57 820.7 505.72 823 C 508.87 825.3 516.49 829.19 519 830.27 C 521.51 831.35 527.73 833.22 530 833.41 C 532.27 833.61 538.6 833.23 541 832.16 C 543.4 831.08 551.59 824.77 553.19 823 C 554.78 821.23 556.07 816.55 556.4 815 C 556.74 813.45 556.86 809.78 556.4 808 C 555.95 806.22 554.02 800.53 552 797.74 C 549.98 794.95 538.58 783.76 536.82 781 C 535.05 778.24 534.27 772.66 534.91 771 C 535.55 769.34 539.48 766.84 543 764.89 C 546.52 762.95 564.35 754.92 569 752.18 C 573.65 749.45 584.57 741.56 588 738.44 C 591.43 735.32 599.7 725.77 602.2 722 C 604.7 718.23 610.72 705.82 612.18 702 C 613.65 698.18 615.96 688.82 616.4 685 C 616.85 681.18 616.82 668.72 616.49 665 C 616.15 661.28 614.18 652.2 613.17 649 C 612.16 645.8 608.91 637.77 606.73 634 C 604.54 630.23 595.38 616.59 592 612.52 C 588.62 608.44 579.11 598.95 574 594.56 C 568.89 590.16 546.38 573.47 542.52 570 C 538.65 566.53 537.14 562.65 536.6 561 C 536.05 559.35 536.61 555.49 537.27 554 C 537.93 552.51 538.69 548.91 543 546.56 C 547.31 544.2 574.45 533.46 579 531.18 C 583.55 528.9 585.83 525.76 587 524.5 C 588.17 523.24 589.61 520.71 590.27 519 C 590.94 517.29 593.21 510.17 593.4 508 C 593.6 505.83 592.92 500.12 592.16 498 C 591.39 495.88 587.67 489.29 586 487.52 C 584.33 485.74 577.76 481.75 576 480.83 C 574.24 479.91 571.48 478.82 569 478.59 C 566.52 478.36 555.51 478.15 552 478.59 C 548.49 479.03 538.51 481.62 535 482.83 C 531.49 484.03 521.1 488.64 518 490.26 C 514.9 491.89 507.89 496.26 505 498.56 C 502.11 500.86 492.81 508.96 490 512.52 C 487.19 516.08 479.64 527.99 477.83 533 C 476.02 538.01 472.69 556.14 472.49 561 C 472.28 565.86 475.08 577 475.83 580 C 476.58 583 477.6 586.8 479.74 590 C 481.88 593.2 490.25 605.01 496.52 611 C 502.79 616.99 534.89 642.52 540.44 648 C 545.98 653.48 549 660.8 550.15 664 C 551.29 667.2 551.79 676.31 551.49 679 C 551.18 681.69 548.86 687.62 547.18 690 C 545.51 692.38 540.78 698.51 535.28 702 C 529.79 705.49 499.55 720.61 494 723.82 C 488.45 727.02 483.72 730.81 481.53 733 C 479.33 735.19 474.09 742.31 472.74 745 C 471.4 747.69 468.93 756.21 468.5 759 Z M 833.5 530 C 832.96 535.68 832.84 550.8 833.6 557 C 834.35 563.2 839.05 584.21 840.83 590 C 842.61 595.79 848.14 608.25 850.8 613 C 853.46 617.75 862.72 631.51 866.56 636 C 870.41 640.49 883.51 652.9 888 656.44 C 892.49 659.99 905.04 667.83 910 670.28 C 914.96 672.74 930.73 678.71 936 680.18 C 941.27 681.65 956.35 684.04 961 684.48 C 965.65 684.92 975.83 685.12 981 684.47 C 986.17 683.82 1005.52 679.86 1011 678.18 C 1016.48 676.5 1029.45 670.77 1034 668.21 C 1038.55 665.66 1051.13 656.67 1055 653.44 C 1058.87 650.22 1068.29 640.77 1071.47 637 C 1074.65 633.23 1082.89 622.17 1085.75 617 C 1088.62 611.83 1097.15 593.2 1099.18 587 C 1101.21 580.8 1104.76 562.99 1105.4 557 C 1106.05 551.01 1105.96 534.58 1105.42 529 C 1104.88 523.42 1101.79 508.37 1100.17 503 C 1098.55 497.63 1092.4 482.06 1089.74 477 C 1087.08 471.94 1078.03 458.39 1074.44 454 C 1070.85 449.61 1058.87 437.84 1055 434.56 C 1051.13 431.28 1042.17 424.92 1037 422.26 C 1031.83 419.6 1010.58 410.65 1005 408.82 C 999.42 406.99 987.96 405.03 983 404.59 C 978.04 404.15 962.17 404.15 957 404.59 C 951.83 405.03 937.96 407.45 933 408.82 C 928.04 410.19 914.17 415.23 909 417.89 C 903.83 420.55 887.7 430.83 883 434.56 C 878.3 438.29 867 449.82 863.56 454 C 860.13 458.18 852.28 470.04 849.73 475 C 847.17 479.96 840.51 496.32 838.83 502 C 837.15 507.68 834.04 524.32 833.5 530 Z M 830.5 815 C 830.4 819.44 831.68 831.76 832.58 836 C 833.49 840.24 837.34 851.94 839.25 856 C 841.15 860.06 848.49 871.97 851 875.28 C 853.51 878.59 860.41 885.52 863.51 888 C 866.61 890.48 877.23 897.38 881 899.26 C 884.77 901.14 895.14 905.23 900 906.18 C 904.86 907.14 922.21 909.03 928 908.52 C 933.79 908.02 951.56 902.84 956 901.26 C 960.44 899.68 967.75 895.52 971 893.22 C 974.25 890.92 984.53 882.23 987.44 879 C 990.36 875.77 997.25 865.41 999.19 862 C 1001.13 858.59 1005.06 849.41 1006.22 846 C 1007.38 842.59 1009.86 832.93 1010.4 829 C 1010.95 825.07 1011.93 812.75 1011.49 808 C 1011.05 803.25 1007.32 786.93 1006.16 783 C 1005 779.07 1001.88 772.89 1000.26 770 C 998.63 767.11 992.63 757.73 990.44 755 C 988.24 752.27 981.84 745.8 979 743.56 C 976.16 741.31 966 734.88 963 733.26 C 960 731.64 952.79 728.74 950 727.84 C 947.21 726.95 939.31 725.04 936 724.59 C 932.69 724.14 921.93 723.29 918 723.52 C 914.07 723.75 901.41 725.97 898 726.82 C 894.59 727.67 887.71 730.48 885 731.74 C 882.29 733 874.83 736.75 871.73 739 C 868.63 741.25 857.78 750.62 855 753.52 C 852.22 756.41 846.59 764.16 844.81 767 C 843.04 769.84 838.97 778.31 837.82 781 C 836.66 783.69 834.35 789.49 833.6 793 C 832.84 796.51 830.6 810.56 830.5 815 Z M 898.5 536 C 898.08 541.06 900.11 557.07 900.86 561 C 901.6 564.93 904.53 571.52 905.74 574 C 906.95 576.48 910.78 582.78 912.56 585 C 914.35 587.22 920.78 593.61 923 595.44 C 925.22 597.28 930.49 601.3 934 602.74 C 937.51 604.18 953.07 608.72 957 609.41 C 960.93 610.1 969.31 609.64 972 609.41 C 974.69 609.18 980.73 607.83 983 607.18 C 985.27 606.53 991.39 604.47 994 603.11 C 996.61 601.75 1005.16 597.01 1008.28 594 C 1011.4 590.99 1021.78 578.34 1024.17 574 C 1026.56 569.66 1030.65 556.13 1031.4 552 C 1032.16 547.87 1031.72 537 1031.49 534 C 1031.26 531 1030.55 526.33 1029.16 523 C 1027.77 519.67 1019.98 504.88 1018 501.74 C 1016.02 498.6 1012.27 494.55 1010 492.6 C 1007.73 490.64 999.72 484.57 996 482.82 C 992.28 481.07 978.24 476.41 974 475.66 C 969.76 474.9 958 475.32 955 475.54 C 952 475.77 948.2 476.5 945 477.84 C 941.8 479.19 927.35 486.27 924 488.56 C 920.65 490.85 914.54 497.58 912.56 500 C 910.59 502.42 906.35 508.28 904.89 512 C 903.44 515.72 898.92 530.94 898.5 536 Z M 874.5 812 C 874.14 815.31 874.79 823.69 875.83 827 C 876.87 830.31 882.17 841.03 884.56 844 C 886.96 846.97 895.75 853.94 899 855.74 C 902.25 857.54 912.49 861.06 916 861.41 C 919.51 861.77 929.59 860.31 933 859.18 C 936.41 858.05 946.4 852.43 949 850.44 C 951.6 848.46 956.49 843.04 958.19 840 C 959.88 836.96 964.79 824.72 965.4 821 C 966.02 817.28 965.1 807.41 964.17 804 C 963.24 800.59 958.62 790.91 956.43 788 C 954.24 785.09 946.25 777.72 943 775.82 C 939.75 773.91 928.82 770 925 769.59 C 921.18 769.18 909.62 770.6 906 771.84 C 902.38 773.08 892.76 779.2 890 781.59 C 887.24 783.98 880.89 791.86 879.29 795 C 877.69 798.14 874.86 808.69 874.5 812 Z"/>
</svg>
