<svg xmlns="http://www.w3.org/2000/svg" viewBox="0 0 512 512" width="512" height="512" role="img" aria-label="Polymerase Drive icon">
  <path fill="#fff" fill-rule="evenodd" d="M 282.1 144 C 282.16 146.58 283.77 156.42 284.55 159 C 285.34 161.58 285.84 164.56 289.68 169 C 293.53 173.44 317.69 197.25 321.75 202 C 325.82 206.75 328.35 213.35 329.01 215 C 329.67 216.65 329.28 217.42 328.14 218 C 327.01 218.58 319.97 219.56 318 220.59 C 316.03 221.63 310.59 226.2 309.13 228 C 307.67 229.8 304.65 235.83 303.88 238 C 303.11 240.17 301.81 246.42 301.67 249 C 301.53 251.58 301.98 260.31 302.52 263 C 303.06 265.69 305.61 272.8 306.9 275 C 308.19 277.2 313.03 282.89 315 284.3 C 316.97 285.71 324.86 287.66 326 288.66 C 327.14 289.67 326.8 292.05 326.08 294 C 325.35 295.95 322.21 303.13 319 307.53 C 315.79 311.94 298.02 331.52 295 336.63 C 291.98 341.74 290.06 353.55 289.77 357 C 289.48 360.45 291.11 367.52 292.2 370 C 293.29 372.48 298.15 379.25 300.3 381 C 302.45 382.75 310.14 386.29 313 386.9 C 315.86 387.5 324.8 387.52 328 386.83 C 331.2 386.14 340.71 382.36 344 380.2 C 347.29 378.05 356.66 369.64 359.87 366 C 363.08 362.36 372.22 349.65 375.04 345 C 377.86 340.35 385.18 325.65 387.16 321 C 389.15 316.35 392.95 305.06 394.22 300 C 395.5 294.94 398.88 277.37 399.51 272 C 400.15 266.63 400.61 253.27 400.4 248 C 400.18 242.73 398.53 226.68 397.43 221 C 396.32 215.32 391.8 198.68 389.71 193 C 387.62 187.32 380.53 171.68 377.19 166 C 373.85 160.32 361.3 142.66 357.36 138 C 353.41 133.34 342.76 123.44 339 120.9 C 335.24 118.35 323.89 114.18 321 113.37 C 318.11 112.56 312.96 112.86 311 113.05 C 309.04 113.24 303.86 114.42 302 115.18 C 300.14 115.94 294.45 119.31 293 120.43 C 291.55 121.55 288.92 124.6 287.99 126 C 287.06 127.4 284.59 132.14 283.98 134 C 283.37 135.86 282.04 141.42 282.1 144 Z M 157.12 207 C 157.01 210.93 159.02 222.04 160.76 226 C 162.51 229.96 172.37 242.68 174 245.36 C 175.63 248.05 176.51 250.49 176.51 252 C 176.52 253.51 175.43 257.62 174.02 260 C 172.61 262.38 164.54 272 162.86 275 C 161.18 278 158.35 286.21 157.78 289 C 157.2 291.79 156.84 298.93 157.27 302 C 157.71 305.07 160.48 315.62 162 318.74 C 163.52 321.86 169.52 329.9 172 332.2 C 174.48 334.5 182.59 339.84 186 341.02 C 189.41 342.2 201.59 343.76 205 343.64 C 208.41 343.52 216.25 341.15 219 339.85 C 221.75 338.54 229.48 332.95 231.58 331 C 233.67 329.05 237.93 323.27 239.27 321 C 240.6 318.73 243.6 312.09 244.5 309 C 245.4 305.91 247.22 293.58 248 291.1 C 248.78 288.62 250.97 286 252 285.03 C 253.03 284.06 255.52 282.37 258 281.69 C 260.48 281.02 272.96 279.81 276 278.5 C 279.04 277.19 285.71 271.32 287.39 269 C 289.07 266.68 292.02 259 292.25 256 C 292.47 253 291.04 242.92 289.57 240 C 288.1 237.08 281.26 229.47 278 227.77 C 274.74 226.08 260.71 224.39 258 223.59 C 255.29 222.78 252.84 221.09 251.77 220 C 250.71 218.91 248.6 216 247.7 213 C 246.79 210 244.16 194.38 243.05 191 C 241.95 187.62 238.76 182.44 237 180.25 C 235.24 178.06 228.58 171.55 226 169.82 C 223.42 168.09 215.41 164.17 212 163.49 C 208.59 162.8 196.82 162.32 193 163.16 C 189.18 164 178.22 169.02 175 171.58 C 171.78 174.15 163.68 184.34 161.83 188 C 159.99 191.66 157.23 203.07 157.12 207 Z M 112.78 252 C 112.88 253.51 114.74 259.38 116 260.63 C 117.26 261.88 121.8 263.81 125 264.08 C 128.2 264.35 144.21 263.7 147 263.26 C 149.79 262.81 151.22 260.85 152 259.79 C 152.78 258.73 154.63 254.59 154.53 253 C 154.42 251.41 152.29 245.61 151 244.39 C 149.71 243.18 145.2 241.46 142 241.23 C 138.8 241 122.79 241.69 120 242.18 C 117.21 242.67 115.77 244.99 115.02 246 C 114.28 247.01 112.68 250.49 112.78 252 Z"/>
</svg>
