<svg xmlns="http://www.w3.org/2000/svg" viewBox="0 0 512 512" width="512" height="512" role="img" aria-label="Polymerase Drive icon">
  <path fill="#fff" fill-rule="evenodd" d="M 208.95 144 C 208.87 146.37 209.6 152.73 210.18 155 C 210.77 157.27 213.48 163.93 214.64 166 C 215.81 168.07 219.98 173.48 221.46 175 C 222.95 176.52 226.67 179.71 229 180.72 C 231.33 181.74 239.35 184.69 244 184.84 C 248.65 185 270.07 182.2 274 182.2 C 277.93 182.2 280.45 184.01 282 184.83 C 283.55 185.64 287.81 188.81 289 190.07 C 290.19 191.33 292.84 195.25 293.56 197 C 294.27 198.75 295.86 204.73 295.91 207 C 295.96 209.27 294.8 216.71 294 218.98 C 293.2 221.25 288.58 227.52 288.17 229 C 287.76 230.48 288.78 233.03 290 233.29 C 291.22 233.55 297.52 232.55 300 231.53 C 302.48 230.51 311.42 225.42 314 223.4 C 316.58 221.38 323.06 214.52 324.98 212 C 326.89 209.48 331.28 201.69 332.51 199 C 333.75 196.31 336.28 189 336.96 186 C 337.65 183 339.76 174.41 339.14 170 C 338.53 165.59 332.84 147.7 331 143.36 C 329.16 139.02 323.42 130.74 321.36 128 C 319.29 125.26 314.55 119.61 311 116.88 C 307.45 114.16 290.82 103.57 287 101.61 C 283.18 99.64 276.69 98.3 274 97.84 C 271.31 97.38 263.89 96.92 261 97.13 C 258.11 97.34 248.79 99.06 246 99.85 C 243.21 100.65 236.27 103.57 234 104.83 C 231.73 106.08 225.86 110.28 224 111.99 C 222.14 113.7 217.34 119.3 216 121.37 C 214.66 123.44 211.73 129.68 211 132.02 C 210.27 134.36 209.03 141.63 208.95 144 Z M 302.49 258 C 302.54 260.07 304.79 265.87 307.01 268 C 309.23 270.13 321.31 276.63 324 278.61 C 326.69 280.59 330.21 283.31 333 287.17 C 335.79 291.04 348.06 312.38 350.95 316 C 353.85 319.62 358.72 321.29 361 322.16 C 363.28 323.03 369.9 324.73 373 324.45 C 376.1 324.16 388.26 320.59 391 319.4 C 393.74 318.22 397.94 314.49 399.48 313 C 401.03 311.51 404.21 308.31 405.94 305 C 407.68 301.69 414.9 286.37 416.31 281 C 417.73 275.63 419.52 257.55 419.62 253 C 419.71 248.45 417.93 239.99 417.25 237 C 416.57 234.01 414.68 227.36 413 224.09 C 411.32 220.82 404 208.55 401 205.38 C 398 202.22 387.62 194.97 384 193.45 C 380.38 191.93 369.1 190.57 366 190.63 C 362.9 190.69 356.08 193 354.02 194 C 351.95 195 348.38 196.71 346 200.32 C 343.62 203.94 333.44 225.11 331.01 229 C 328.57 232.89 324.96 236.04 322.43 238 C 319.9 239.96 308.59 245.93 306.53 248 C 304.47 250.07 302.44 255.93 302.49 258 Z M 242.44 373 C 242.45 375.58 244.15 383.58 245.04 386 C 245.92 388.42 249.25 394.32 251 396.39 C 252.75 398.46 259.62 404.45 262 405.99 C 264.38 407.53 271.42 410.52 274 411.3 C 276.58 412.07 284.31 413.38 287 413.49 C 289.69 413.61 297.31 412.94 300 412.38 C 302.69 411.82 310.42 409.31 313 408.04 C 315.58 406.77 322.83 401.96 325 400.08 C 327.17 398.2 332.45 392.16 334 389.85 C 335.55 387.54 339.06 380.32 340 377.75 C 340.94 375.18 342.72 367.87 343.1 365 C 343.49 362.13 344.35 354.44 343.7 350 C 343.06 345.56 339.01 327.27 336.85 322 C 334.69 316.73 326.21 302.88 322.82 299 C 319.42 295.12 307.49 286.55 304 284.46 C 300.51 282.37 291.17 279.33 289 278.78 C 286.83 278.24 283.73 278.78 283 279.22 C 282.27 279.65 281.32 281.06 281.96 283 C 282.61 284.94 288.66 295 289.22 298 C 289.79 301 288.66 309 287.42 312 C 286.18 315 281.04 322.97 277.24 327 C 273.43 331.03 253.92 347.49 250.58 351 C 247.24 354.51 245.76 358.73 244.92 361 C 244.08 363.27 242.43 370.42 242.44 373 Z M 174.38 274 C 174.61 275.71 176.84 281.04 179.28 284 C 181.72 286.96 195.45 300.45 198 302.6 C 200.55 304.75 202.66 304.85 204 304.79 C 205.34 304.73 208.54 304.05 211 302.01 C 213.46 299.96 225.66 287.27 227.83 285 C 230 282.73 231.41 281.14 232.01 280 C 232.61 278.86 233.74 275.31 233.63 274 C 233.53 272.69 232.59 269.35 231 267.29 C 229.41 265.22 220.42 256.21 218.25 254 C 216.08 251.79 211.47 246.93 210 245.88 C 208.53 244.82 205.14 243.81 204 243.75 C 202.86 243.7 200.24 244.49 199 245.33 C 197.76 246.17 194.27 249.57 192 251.86 C 189.73 254.15 178.82 265.19 177 267.48 C 175.18 269.77 174.14 272.29 174.38 274 Z M 173.56 332 C 173.31 333.65 174.22 336.75 174.78 338 C 175.34 339.25 177.94 343.1 179 344.1 C 180.06 345.1 183.76 347.23 185 347.7 C 186.24 348.16 185.94 348.57 191 348.6 C 196.06 348.64 228.63 348.7 234 348.02 C 239.37 347.34 241.65 343.66 242.94 342 C 244.23 340.34 246.35 333.86 246.49 332 C 246.62 330.14 244.81 325.24 244.25 324 C 243.69 322.76 241.92 320.75 241.07 320 C 240.21 319.25 237.25 317.22 236 316.75 C 234.75 316.29 234.17 315.58 229 315.52 C 223.83 315.45 191.36 315.45 186 316.12 C 180.64 316.79 178.44 320.36 177.16 322 C 175.87 323.64 173.8 330.35 173.56 332 Z M 178.75 208 C 178.74 209.86 179.76 215.24 180.44 217 C 181.11 218.76 183.97 223.58 185.27 225 C 186.57 226.42 191.37 229.91 193 230.74 C 194.63 231.57 199.24 232.88 201 233.04 C 202.76 233.19 208.14 232.83 210 232.27 C 211.86 231.71 217.42 228.9 219 227.64 C 220.58 226.37 224.32 221.82 225.26 220 C 226.2 218.18 227.96 212.07 228.12 210 C 228.28 207.93 227.5 201.96 226.8 200 C 226.09 198.04 222.74 192.52 221.31 191 C 219.89 189.48 214.69 186.08 213 185.28 C 211.31 184.49 206.86 183.33 205 183.3 C 203.14 183.27 196.88 184.31 195.02 185 C 193.16 185.69 188.46 188.55 186.97 190 C 185.48 191.45 181.44 197.14 180.59 199 C 179.74 200.86 178.77 206.14 178.75 208 Z M 105.68 205 C 105.71 206.17 107.04 210.43 108 211.34 C 108.96 212.26 110.35 213.6 115 213.84 C 119.65 214.08 148.47 213.97 153 213.67 C 157.53 213.38 157.99 211.79 158.79 211 C 159.59 210.21 160.75 207.08 160.77 206 C 160.79 204.92 159.8 201.4 159 200.53 C 158.2 199.66 157.86 197.84 153 197.54 C 148.14 197.25 116.68 197.43 112 197.69 C 107.32 197.94 108.39 199.24 107.73 200 C 107.08 200.76 105.65 203.83 105.68 205 Z M 91.29 257 C 91.38 258.14 93.09 262.14 94.09 263 C 95.1 263.86 96.46 265.07 101 265.28 C 105.54 265.5 133.63 265.44 138 265.1 C 142.37 264.76 142.55 262.84 143.29 262 C 144.03 261.16 145.28 258.18 145.14 257 C 145.01 255.82 143.05 251.47 142 250.6 C 140.95 249.73 139.44 248.76 135 248.56 C 130.56 248.37 103.32 248.4 99 248.75 C 94.68 249.1 93.96 251.15 93.16 252 C 92.37 252.85 91.19 255.86 91.29 257 Z M 105.68 308 C 105.75 309.14 107.02 313.14 108.09 314 C 109.16 314.86 111.26 316.11 116 316.33 C 120.74 316.56 149.53 316.53 154 316.18 C 158.47 315.84 158.57 313.85 159.27 313 C 159.97 312.15 160.91 309.14 160.77 308 C 160.62 306.86 158.95 302.83 157.83 302 C 156.72 301.17 154.63 300.19 150 300.01 C 145.37 299.82 117.4 299.88 113 300.18 C 108.6 300.49 108.22 302.19 107.46 303 C 106.71 303.81 105.62 306.86 105.68 308 Z"/>
</svg>
