<svg xmlns="http://www.w3.org/2000/svg" viewBox="0 0 512 512" width="512" height="512" role="img" aria-label="Tissue Compatibility icon">
  <path fill="#fff" fill-rule="evenodd" d="M 63.3 287 C 63.45 293.1 66.31 311.66 67.38 316 C 68.44 320.34 72.31 326.83 73.61 329 C 74.91 331.17 78.27 335.35 79.97 337 C 81.68 338.65 87.85 343.58 90.13 345 C 92.41 346.42 97.78 349.58 102 350.7 C 106.22 351.82 125.63 355.58 131 355.87 C 136.37 356.15 149.76 354.45 154 353.45 C 158.24 352.44 168.7 348.15 172 346.14 C 175.3 344.13 183.58 336.91 185.96 334 C 188.33 331.09 193.06 318.28 195 317.97 C 196.94 317.66 202.64 328.7 204.7 331 C 206.77 333.3 212.7 338.55 215 340.21 C 217.3 341.88 224 345.89 227 347.14 C 230 348.38 240.07 351.68 244 352.29 C 247.93 352.9 260.45 353.64 265 353.04 C 269.55 352.43 283.97 348.28 288 346.42 C 292.03 344.56 301 337.96 304 335.01 C 307 332.06 314.42 317.73 317 317.85 C 319.58 317.96 325.8 332.99 329 336.12 C 332.2 339.24 343.35 346.33 348 348.12 C 352.65 349.91 368.42 353.03 374 353.44 C 379.58 353.86 397.35 352.82 402 352.14 C 406.65 351.47 415.69 348.52 419 346.9 C 422.31 345.28 431.51 338.94 434 336.47 C 436.49 334 441.69 326.15 443.07 323 C 444.44 319.85 446.95 309.31 447.34 306 C 447.73 302.69 447.52 295.96 446.88 291 C 446.25 286.04 442.27 262.65 441.2 258 C 440.12 253.35 437.71 248.17 436.51 246 C 435.32 243.83 431.26 238.58 429.66 237 C 428.05 235.42 423.03 231.73 421 230.67 C 418.97 229.62 416.1 227.7 410 226.76 C 403.9 225.83 368.61 221.95 362 221.63 C 355.39 221.31 349.08 222.49 346 223.66 C 342.92 224.84 334.17 231.11 332.18 233 C 330.19 234.89 328.01 238.28 326.77 242 C 325.53 245.72 322.32 264.74 320.17 269 C 318.02 273.26 310.25 280.42 306 283.2 C 301.75 285.98 284.48 294.23 279 295.88 C 273.52 297.53 258.68 299.46 253 299.18 C 247.32 298.91 228.65 294.65 224 293.2 C 219.35 291.76 210.87 286.94 208 285.16 C 205.13 283.38 198.2 278.19 196.2 276 C 194.19 273.81 190.03 267.93 188.59 264 C 187.15 260.07 184.15 241.97 182.23 238 C 180.31 234.03 172.3 227.27 170 225.58 C 167.7 223.89 165.17 222.78 160 221.62 C 154.83 220.46 126.1 215.13 120 214.38 C 113.9 213.63 104.72 213.51 101 214.32 C 97.28 215.13 86.92 219.99 84 222.23 C 81.08 224.47 74.57 232.41 72.7 236 C 70.83 239.59 66.84 251.73 65.87 257 C 64.9 262.27 63.14 280.9 63.3 287 Z M 184.9 213 C 184.88 214.54 186.22 219.83 186.85 221 C 187.48 222.17 190.16 223.99 191 224.34 C 191.84 224.69 193.86 224.79 195 224.35 C 196.14 223.92 200.76 220.23 202 220.09 C 203.24 219.95 205.78 220.53 206.99 223 C 208.21 225.47 213.35 241.34 213.76 244 C 214.17 246.66 212.11 248.14 211 248.76 C 209.89 249.38 204.21 249.56 203.06 250 C 201.91 250.44 200.24 251.97 199.89 253 C 199.54 254.03 199.31 258.66 199.66 260 C 200.02 261.34 202.38 265.02 203.35 266 C 204.31 266.98 207.9 269.13 209 269.47 C 210.1 269.82 213.08 269.7 214 269.34 C 214.92 268.99 217.28 267.14 217.9 266 C 218.52 264.86 219.06 259.28 220 258.31 C 220.94 257.33 224.16 255.8 227 256.6 C 229.84 257.39 245.28 264.51 247.5 266 C 249.72 267.49 248.8 269.86 248.51 271 C 248.21 272.14 245.04 275.86 244.64 277 C 244.23 278.14 244.23 281.07 244.63 282 C 245.02 282.93 247.36 285.41 248.43 286 C 249.51 286.59 253.6 287.69 255 287.73 C 256.4 287.77 260.82 286.94 262 286.35 C 263.18 285.76 265.95 282.97 266.42 282 C 266.89 281.03 266.92 278.14 266.51 277 C 266.11 275.86 262.77 272.19 262.51 271 C 262.25 269.81 261.68 267.04 264 265.52 C 266.32 264 282.2 257.06 285 256.28 C 287.8 255.5 290.23 257 291.11 258 C 291.98 259 292.88 264.84 293.49 266 C 294.1 267.16 296.12 268.84 297 269.19 C 297.88 269.55 300.9 269.76 302 269.43 C 303.1 269.1 306.67 266.97 307.64 266 C 308.61 265.03 311 261.34 311.37 260 C 311.75 258.66 311.61 254.06 311.26 253 C 310.91 251.94 309.1 250.19 308 249.77 C 306.9 249.36 301.77 249.6 300.66 249 C 299.56 248.4 296.96 246.69 297.3 244 C 297.65 241.31 302.78 225.48 303.99 223 C 305.2 220.52 307.76 219.9 309 220.04 C 310.24 220.17 314.86 223.86 316 224.3 C 317.14 224.74 319.16 224.63 320 224.29 C 320.84 223.95 323.51 222.06 324.1 221 C 324.69 219.94 325.73 215.55 325.72 214 C 325.71 212.45 324.59 207.17 324 206.01 C 323.41 204.86 320.83 203.14 320 202.81 C 319.17 202.48 317.14 202.32 316 202.78 C 314.86 203.24 310.2 206.93 309 207.26 C 307.8 207.59 305.69 208.09 304.36 206 C 303.03 203.91 296.78 189.62 296.12 187 C 295.47 184.38 296.98 181.5 298 180.62 C 299.02 179.75 304.87 179.09 306 178.51 C 307.13 177.93 308.62 175.98 308.92 175 C 309.22 174.02 309.27 170.23 308.87 169 C 308.46 167.77 306.02 164.09 305 163.14 C 303.98 162.18 300.14 160.09 299 159.74 C 297.86 159.38 294.93 159.28 294 159.7 C 293.07 160.13 290.55 162.69 290 163.86 C 289.45 165.03 289.51 170 288.69 171 C 287.86 172 284.56 174.03 282 173.51 C 279.44 173 265.99 167.4 263.95 166 C 261.91 164.6 262.02 161.24 262.28 160 C 262.54 158.76 266.01 155.14 266.43 154 C 266.85 152.86 266.84 149.97 266.38 149 C 265.92 148.03 263.18 145.17 262 144.57 C 260.82 143.97 256.45 143.18 255 143.23 C 253.55 143.28 249.08 144.44 248 145.04 C 246.92 145.63 244.9 148.07 244.54 149 C 244.18 149.93 244.08 152.86 244.49 154 C 244.9 155.14 248.35 158.7 248.51 160 C 248.66 161.3 248.22 165.12 246 166.55 C 243.78 167.98 229.45 173.41 227 173.87 C 224.55 174.33 222.99 172.12 222.32 171 C 221.66 169.88 221.14 164.15 220.59 163 C 220.04 161.85 217.89 160.24 217 159.91 C 216.11 159.57 213.22 159.31 212 159.74 C 210.78 160.16 206.23 162.94 205.17 164 C 204.1 165.06 202.03 168.86 201.69 170 C 201.35 171.14 201.53 174.11 201.88 175 C 202.22 175.89 203.85 178.05 205 178.63 C 206.15 179.2 211.96 179.71 213 180.57 C 214.04 181.44 215.72 184.37 215.07 187 C 214.42 189.63 208.16 203.92 206.71 206 C 205.26 208.08 202.21 207.48 201 207.15 C 199.79 206.82 196.03 203.24 195 202.8 C 193.97 202.36 191.83 202.53 191 202.87 C 190.17 203.21 187.63 205.04 187 206.09 C 186.37 207.14 184.91 211.46 184.9 213 Z"/>
</svg>
