<svg xmlns="http://www.w3.org/2000/svg" viewBox="0 0 512 512" width="512" height="512" role="img" aria-label="Trait Synergy icon">
  <path fill="#fff" fill-rule="evenodd" d="M 250.4 219 C 250.54 220.27 251.22 222.38 254.43 226 C 257.64 229.62 278.8 250.69 281.47 254 C 284.13 257.31 281.94 255.93 280.23 258 C 278.52 260.07 266.64 271.93 264.95 274 C 263.25 276.07 263.72 277.12 263.83 278 C 263.94 278.88 265.26 281.73 266 282.48 C 266.74 283.23 268.73 285.37 271 285.28 C 273.27 285.2 284.18 281.69 288 281.64 C 291.82 281.59 304.35 283.41 308 284.79 C 311.65 286.17 320.73 292.29 323.34 295 C 325.95 297.71 332 307.49 333.26 311 C 334.51 314.51 335.8 325.51 335.46 329 C 335.13 332.49 331.29 342.56 330 344.73 C 328.71 346.91 326 349.25 323 350.05 C 320 350.86 304.72 351.56 301 352.53 C 297.28 353.49 289.65 357.3 287 359.41 C 284.35 361.53 277.05 369.84 275.36 373 C 273.67 376.16 271.06 387.11 270.65 390 C 270.24 392.89 270.96 398.83 271.38 401 C 271.8 403.17 272.97 408.31 274.71 411 C 276.45 413.69 284.97 424.58 288.21 427 C 291.44 429.42 303.02 433.6 306 434.39 C 308.98 435.18 314.83 434.85 317 434.65 C 319.17 434.44 325.08 433.07 327 432.38 C 328.92 431.7 333.78 429.28 335.59 428 C 337.39 426.72 342.95 421.76 344.46 420 C 345.97 418.24 349.14 413.38 350.24 411 C 351.35 408.62 352.71 400.51 355.17 397 C 357.62 393.49 370.62 381.24 374.01 377 C 377.4 372.76 386.14 358.4 388 355.99 C 389.86 353.59 390.24 354.03 392 353.72 C 393.76 353.42 402.62 353.39 405 353.04 C 407.38 352.68 413.04 351.08 415 350.25 C 416.96 349.42 422.34 346.27 423.99 345 C 425.64 343.73 429.71 339.65 431.01 338 C 432.3 336.35 435.6 331.17 436.53 329 C 437.45 326.83 439.61 319.48 439.96 317 C 440.32 314.52 440.22 307.27 439.95 305 C 439.68 302.73 438.45 297.38 437.36 295 C 436.28 292.62 431.14 284.09 429.45 282 C 427.76 279.91 423.01 276.05 421 274.78 C 418.99 273.5 412.99 270.58 410 269.67 C 407.01 268.76 395.21 268.76 392.05 266 C 388.89 263.24 382 247.02 379.41 243 C 376.82 238.98 369.94 230.17 367 227.14 C 364.06 224.11 354.62 216.11 351 213.68 C 347.38 211.26 336.44 205.33 332 203.72 C 327.56 202.1 312.86 198.57 308 198.06 C 303.14 197.56 289.75 197.93 285 198.84 C 280.25 199.76 265.31 205.36 262 206.9 C 258.69 208.44 254.2 212.49 253 213.74 C 251.8 214.99 250.25 217.73 250.4 219 Z M 110.56 190 C 110.58 195.27 112.42 213.32 113.78 219 C 115.13 224.68 121.1 240.09 123.7 245 C 126.31 249.91 135.04 262.3 139 266.56 C 142.96 270.81 157.04 282.9 162 286.18 C 166.96 289.46 181.52 296.46 187 298.27 C 192.48 300.07 209.32 303.36 215 303.64 C 220.68 303.93 237.68 301.85 241.92 301 C 246.16 300.15 254.03 296.46 256 295.45 C 257.97 294.44 260.37 292.08 261 291.2 C 261.63 290.33 262.11 287.85 262.06 287 C 262.02 286.15 263.37 286.2 260.53 283 C 257.7 279.8 237.15 259.2 234.61 256 C 232.07 252.8 234.26 254.07 235.97 252 C 237.69 249.93 249.57 238.17 251.2 236 C 252.82 233.83 251.98 232.03 251.67 231 C 251.36 229.97 249.27 226.74 248.17 226 C 247.07 225.26 244.01 223.46 241 223.8 C 237.99 224.15 223.24 229.06 219 229.37 C 214.76 229.67 203.82 228.14 200 226.77 C 196.18 225.39 184.93 218.83 182 216.06 C 179.07 213.3 172.95 202.8 171.69 200 C 170.43 197.2 169.64 191.48 169.82 189 C 170 186.52 172.59 177.86 173.43 176 C 174.28 174.14 176.18 172.22 178 170.99 C 179.82 169.76 188.83 165.55 191 164.1 C 193.17 162.65 197.44 158.82 199 156.95 C 200.56 155.08 205.01 148.47 206.14 146 C 207.27 143.53 209.56 135.69 209.96 133 C 210.37 130.31 210.38 122.48 210.09 120 C 209.8 117.52 208.06 111.17 207.19 109 C 206.32 106.83 203.34 101.11 201.66 99 C 199.99 96.89 193.65 90.31 191 88.55 C 188.35 86.78 179.2 82.7 176 81.91 C 172.8 81.12 163.41 80.48 160 80.9 C 156.59 81.31 146.15 84.3 143 85.96 C 139.85 87.63 131.49 94.93 129.5 97 C 127.51 99.07 124.74 103.83 123.74 106 C 122.73 108.17 120.13 113.76 119.8 118 C 119.47 122.24 121.15 141.83 120.51 147 C 119.88 152.17 114.69 163.56 113.66 168 C 112.63 172.44 110.55 184.73 110.56 190 Z"/>
</svg>
