<svg xmlns="http://www.w3.org/2000/svg" viewBox="0 0 512 512" width="512" height="512" role="img" aria-label="Variant Pool icon">
  <path fill="#fff" fill-rule="evenodd" d="M 46.84 265 C 46.49 273.27 46.98 290.8 47.37 297 C 47.76 303.2 49.01 317.77 50.6 325 C 52.2 332.23 60.43 360.49 62.82 367 C 65.21 373.51 71.13 383.87 73.73 388 C 76.34 392.13 85.08 403.67 88 406.99 C 90.92 410.31 98.49 417.37 102 420.09 C 105.51 422.81 117.87 431.02 122 433.29 C 126.13 435.55 137.66 440.5 142 442.04 C 146.34 443.58 156.77 447 164 448.18 C 171.23 449.37 201.67 453.02 212 453.53 C 222.33 454.04 253.36 453.47 264 453.12 C 274.64 452.77 306.11 451.06 315 450.13 C 323.89 449.2 343.8 445.63 350 444.15 C 356.2 442.66 370.76 437.48 375 435.75 C 379.24 434.02 387.8 429.37 391 427.38 C 394.2 425.39 402.39 419.94 406 416.49 C 409.61 413.04 422.21 399.63 425.94 394 C 429.68 388.37 439.19 369.75 442.12 362 C 445.04 354.25 452.11 329.75 454.25 319 C 456.39 308.25 461.79 271.23 462.85 258 C 463.92 244.77 464.92 203.92 464.54 191 C 464.17 178.08 460.87 143.54 459.25 133 C 457.62 122.46 450.78 94.73 448.79 89 C 446.8 83.27 442.25 79.18 440 77.56 C 437.75 75.95 429.79 73.39 427 73.4 C 424.21 73.4 415.39 76.01 413 77.62 C 410.61 79.24 405.02 86.07 403.89 89 C 402.77 91.93 401.59 98.66 402.12 106 C 402.65 113.34 408.11 148.74 408.99 160 C 409.88 171.26 410.75 205.91 410.66 215 C 410.56 224.09 408.93 241.18 408.04 248 C 407.14 254.82 403.68 274.6 402.02 281 C 400.36 287.4 394.75 304.14 392 309.92 C 389.25 315.71 379.36 332.03 375.39 337 C 371.43 341.97 358.62 354.17 353.61 358 C 348.61 361.83 332.33 371.43 327 374.04 C 321.67 376.65 307.27 381.71 302 383.27 C 296.73 384.83 281.79 388.21 276 389.14 C 270.21 390.08 251.99 391.96 246 392.28 C 240.01 392.61 223.27 392.52 218 392.28 C 212.73 392.05 200.17 390.86 195 390.02 C 189.83 389.18 173.06 385.66 168 384.14 C 162.94 382.62 149.71 377.19 146 375.31 C 142.29 373.44 134.51 367.9 132.13 366 C 129.75 364.1 124.78 359.06 123 356.89 C 121.22 354.72 116.77 349.12 114.87 345 C 112.97 340.88 106.07 324.23 104.61 317 C 103.15 309.77 100.6 286.99 100.74 275 C 100.88 263.01 105.83 209.99 105.98 201 C 106.13 192.01 103.53 190.18 102.19 188 C 100.85 185.82 94.98 180.96 93 179.92 C 91.02 178.88 85.17 177.93 83 177.91 C 80.83 177.89 73.96 179.03 72 179.69 C 70.04 180.35 65.53 182.93 64 184.3 C 62.47 185.68 58.54 189.62 57.17 193 C 55.81 196.38 51.87 209.56 50.8 217 C 49.74 224.44 47.2 256.73 46.84 265 Z M 304.9 134 C 304.86 136.17 305.69 142.93 306.41 145 C 307.13 147.07 310.34 152.33 311.85 154 C 313.36 155.67 317.99 159.35 321 161.16 C 324.01 162.97 338.41 169.59 341 171.54 C 343.59 173.49 345.72 178.61 346.1 180 C 346.48 181.39 345.31 184.04 344.68 185 C 344.05 185.96 342.55 188.34 340 189.33 C 337.45 190.33 322.89 193.53 320 194.63 C 317.11 195.73 313.28 198.52 312.06 200 C 310.85 201.48 308.41 207.14 308.22 209 C 308.04 210.86 309.26 216.46 310.27 218 C 311.28 219.54 315.96 223.09 318 223.91 C 320.04 224.72 327.21 225.93 330 225.88 C 332.79 225.83 342.05 224.32 345 223.4 C 347.95 222.48 355.99 218.67 358.57 217 C 361.15 215.33 368.14 209.34 370 207.27 C 371.86 205.21 375.56 199.3 376.59 197 C 377.62 194.7 379.68 187.58 379.95 185 C 380.22 182.42 379.7 174.38 379.21 172 C 378.72 169.62 376.23 163.76 375.23 162 C 374.23 160.24 372.78 157.1 369.55 155 C 366.33 152.9 347.17 143.8 344 141.63 C 340.83 139.46 338.93 135.43 338.83 134 C 338.73 132.57 341.12 129.11 343 127.83 C 344.88 126.55 355 122.75 357 121.63 C 359 120.51 361.55 118.41 362.37 117 C 363.18 115.59 364.93 109.86 364.91 108 C 364.89 106.14 363.16 100.46 362.13 99 C 361.11 97.54 356.67 94.5 355 93.88 C 353.33 93.26 347.96 92.89 346 92.99 C 344.04 93.1 337.96 94.22 336 94.88 C 334.04 95.54 329.55 97.33 327 99.41 C 324.45 101.49 313.45 112.46 311.36 115 C 309.27 117.54 307.44 122.04 306.77 124 C 306.1 125.96 304.93 131.83 304.9 134 Z M 125.41 332 C 125.29 333.6 126.83 337.89 127.82 339 C 128.81 340.11 131.64 343.28 135 342.76 C 138.36 342.25 156.72 332.43 160.36 334 C 163.99 335.57 168.5 354.94 170.22 358 C 171.94 361.06 175.47 363.09 177 363.62 C 178.53 364.15 182.21 364.04 185 363.14 C 187.79 362.23 200.9 354.38 204 354.85 C 207.1 355.33 213.04 366.14 215 367.73 C 216.96 369.32 221.38 370.28 223 370.21 C 224.62 370.13 229.49 367.95 230.65 367 C 231.81 366.05 234.08 362.86 234.27 361 C 234.46 359.14 234.11 352.51 232.47 349 C 230.83 345.49 220.81 329.5 218.39 327 C 215.96 324.5 212.04 324.1 209 324.82 C 205.96 325.53 192.17 335.37 189 333.94 C 185.83 332.51 180.17 313.98 178.31 311 C 176.45 308.02 173 305.64 171 305.12 C 169 304.6 162.2 304.95 159 305.96 C 155.8 306.98 143.1 313.14 140 314.95 C 136.9 316.76 130.51 321.71 129 323.47 C 127.49 325.23 125.54 330.4 125.41 332 Z M 213.88 242 C 213.9 243.65 215.1 248.55 215.82 250 C 216.53 251.45 218.2 254.56 220.8 256 C 223.4 257.44 238.26 262.43 241 263.98 C 243.74 265.53 246.71 268.93 247.27 271 C 247.84 273.07 247.91 280.9 246.51 284 C 245.11 287.1 234.83 298.32 233.75 301 C 232.66 303.68 235.15 308.69 236 309.92 C 236.85 311.14 240.35 312.58 242 312.83 C 243.65 313.08 249.93 312.78 252 312.31 C 254.07 311.84 259.93 309.52 262 308.29 C 264.07 307.06 269.89 302.95 272 300.44 C 274.11 297.93 280.88 287.87 282.38 284 C 283.88 280.13 286.39 267.13 286.51 263 C 286.63 258.87 284.85 247.57 283.55 244 C 282.26 240.43 276.74 231.15 274 228.49 C 271.26 225.83 259.69 219.5 257 218.28 C 254.31 217.07 250.17 216.76 248 216.7 C 245.83 216.65 238.17 217.22 236 217.72 C 233.83 218.22 228.64 220.57 227 221.53 C 225.36 222.49 221.33 225.71 220.15 227 C 218.97 228.29 216.25 232.45 215.6 234 C 214.96 235.55 213.86 240.35 213.88 242 Z"/>
</svg>
