<svg xmlns="http://www.w3.org/2000/svg" viewBox="0 0 512 512" width="512" height="512" role="img" aria-label="Variation Pulse icon">
  <path fill="#fff" fill-rule="evenodd" d="M 101.59 266 C 101.57 268.89 102.75 279.9 103.66 283 C 104.56 286.1 108.56 293.7 110.36 296 C 112.15 298.3 118.56 303.92 121 305.26 C 123.44 306.6 131.73 308.72 134 308.98 C 136.27 309.24 141.35 308.27 143 307.78 C 144.65 307.3 147.83 306.62 150 304.28 C 152.17 301.94 161.42 287.87 164 285.16 C 166.58 282.44 167.87 280.03 175 277.99 C 182.13 275.96 225.77 266.76 233 265.47 C 240.23 264.19 242.73 265.2 245 265.55 C 247.27 265.89 253.06 267.81 255 268.79 C 256.94 269.76 261.8 273.12 263.77 275 C 265.73 276.88 271.9 283.9 274.02 287 C 276.15 290.1 282.77 301.8 284.32 305 C 285.88 308.2 288.59 315.21 289.08 318 C 289.56 320.79 290.11 327.87 289.02 332 C 287.93 336.13 279.52 354.38 278.5 358 C 277.48 361.62 278.7 365.18 279.16 367 C 279.63 368.82 281.67 373.91 283 375.64 C 284.33 377.37 289.83 382.49 292 383.72 C 294.17 384.95 301.42 387.17 304 387.55 C 306.58 387.92 314.21 387.78 317 387.34 C 319.79 386.89 328 384.76 331 383.28 C 334 381.8 343.61 375.21 346 373.01 C 348.39 370.81 352.82 364.69 354.1 362 C 355.37 359.31 358.15 350.1 358.32 347 C 358.48 343.9 356.56 334.43 355.7 332 C 354.84 329.57 351.31 324.9 350 323.48 C 348.69 322.07 346.31 319.44 343 318.32 C 339.69 317.19 321.82 313.95 318 312.58 C 314.18 311.2 309.85 309.86 306.03 305 C 302.2 300.14 283.84 270.66 281 265.59 C 278.16 260.53 278.46 257.77 278.56 256 C 278.67 254.23 277.31 255 282 248.45 C 286.69 241.89 318.32 199.02 324 192.55 C 329.68 186.08 333.59 186.91 337 185.84 C 340.41 184.77 353.8 183.39 357 182.16 C 360.2 180.94 366.22 176.44 368 173.95 C 369.78 171.45 373.86 161.4 374.21 158 C 374.55 154.6 372.74 144.31 371.33 141 C 369.92 137.69 363.17 128.51 360.55 126 C 357.94 123.49 349.16 118.01 346 116.66 C 342.84 115.32 333.38 113.09 330 113.02 C 326.62 112.95 316.08 114.87 313.29 116 C 310.49 117.13 304.56 121.83 302.94 124 C 301.33 126.17 298.11 134.52 297.67 137 C 297.23 139.48 297.72 144.59 298.7 148 C 299.67 151.41 306.56 165.97 307.12 170 C 307.68 174.03 306.32 182.17 304.14 187 C 301.96 191.83 289.96 211.57 286 216.74 C 282.04 221.91 269.55 234.15 265.83 237 C 262.11 239.85 253.91 243.21 250 244.31 C 246.09 245.42 233.68 246.5 228 247.72 C 222.32 248.95 200.37 255.05 195 256.14 C 189.63 257.24 179.62 258.51 176 258.35 C 172.38 258.19 163.82 256.68 160 254.61 C 156.18 252.54 142.72 240.2 139 238.34 C 135.28 236.47 126.43 236.39 124 236.56 C 121.57 236.73 117.11 238.91 115.45 240 C 113.8 241.09 109.2 245.59 108 247.14 C 106.8 248.69 104.48 253.05 103.81 255 C 103.15 256.95 101.6 263.11 101.59 266 Z M 373.6 314 C 372.69 317.51 374.98 319.06 375.64 320 C 376.3 320.94 378.93 322.78 380 323.14 C 381.07 323.49 384.81 323.76 386 323.43 C 387.19 323.11 389.93 322.52 391.51 320 C 393.08 317.48 399.5 304.06 401.26 299 C 403.01 293.94 407.54 276.48 408.47 271 C 409.4 265.52 410.38 251.37 410.26 246 C 410.14 240.63 408.43 224.48 407.32 219 C 406.21 213.52 401.08 196.26 399.49 193 C 397.91 189.74 393.6 187.81 392 187.46 C 390.4 187.11 385.18 188.74 384 189.62 C 382.82 190.5 380.06 191.93 380.54 196 C 381.02 200.07 387.72 222.7 388.68 229 C 389.63 235.3 390.21 251.11 389.78 257 C 389.34 262.89 386.12 280.11 384.45 286 C 382.78 291.89 374.51 310.49 373.6 314 Z M 148.58 331 C 148.42 332.59 149.71 335.73 151.4 338 C 153.1 340.27 162.05 350.14 165 352.96 C 167.95 355.77 176.59 362.79 180 365.21 C 183.41 367.63 194.07 374.33 198 376.38 C 201.93 378.42 213.76 383.55 218 385.02 C 222.24 386.49 235.8 389.95 239 390.57 C 242.2 391.2 247.34 391.54 249 391.06 C 250.66 390.59 254.32 387.14 255.05 386 C 255.78 384.86 256.38 381.28 256.06 380 C 255.75 378.72 255.52 375.15 252 373.62 C 248.48 372.1 227.27 367.15 222 365.24 C 216.73 363.34 204.93 357.49 201 355.19 C 197.07 352.89 187.93 346.38 184 342.96 C 180.07 339.53 165.69 324.33 163 322.05 C 160.31 319.78 159.03 320.88 158 320.94 C 156.97 320.99 153.97 321.54 153 322.58 C 152.03 323.62 148.75 329.41 148.58 331 Z M 151.61 155 C 151.52 156.22 152.44 158.93 153 159.79 C 153.56 160.65 155.66 162.99 157 163.34 C 158.34 163.69 162.58 165.4 166 163.2 C 169.42 160.99 185.84 145.23 190.08 142 C 194.31 138.77 202.77 133.89 207 131.9 C 211.23 129.92 225.73 124.3 231 122.8 C 236.27 121.3 254.75 118.53 258 117.42 C 261.25 116.3 262.05 113.39 262.46 112 C 262.87 110.61 262.56 105.32 262 104.02 C 261.44 102.71 258.34 99.91 257 99.37 C 255.66 98.84 252.1 98.5 249 98.86 C 245.9 99.21 231.65 101.54 227 102.77 C 222.35 104.01 208.13 109.08 204 110.84 C 199.87 112.59 190.51 117.59 187 119.78 C 183.49 121.97 173.45 129.08 170.03 132 C 166.61 134.92 155.76 145.62 153.86 148 C 151.95 150.38 151.7 153.78 151.61 155 Z M 189.41 300 C 189.28 301.4 190.37 304.14 191.79 306 C 193.21 307.86 199.51 315.18 203.15 318 C 206.79 320.82 223.09 331.18 227 333.26 C 230.91 335.34 237.9 337.37 241 338.15 C 244.1 338.92 254.42 340.58 257 340.79 C 259.58 341.01 264.55 340.82 266 340.22 C 267.45 339.62 270.47 336.16 271.01 335 C 271.55 333.84 271.66 330.16 271.24 329 C 270.83 327.84 269.61 324.64 267 323.73 C 264.39 322.83 249.62 321.16 246 320.28 C 242.38 319.4 234.89 316.64 232 315.21 C 229.11 313.78 221.1 308.89 218 306.43 C 214.9 303.96 204.58 292.8 202 291.35 C 199.42 289.9 194.3 291.53 193 292.42 C 191.7 293.31 189.53 298.6 189.41 300 Z M 192.66 188 C 192.73 189.4 194.72 194.64 196 195.55 C 197.28 196.46 202.21 198.15 205 196.82 C 207.79 195.5 219.9 184.79 223 182.72 C 226.1 180.64 232 177.85 235 176.78 C 238 175.71 248.18 172.94 252 172.35 C 255.82 171.77 269.42 171.72 272 171.1 C 274.58 170.47 276.43 167.43 277 166.28 C 277.57 165.13 277.89 161.23 277.47 160 C 277.06 158.77 274.29 155.09 273 154.37 C 271.71 153.65 267.38 153.1 265 153.05 C 262.62 153 253.31 153.4 250 153.9 C 246.69 154.39 237.44 156.04 233 157.85 C 228.56 159.67 210.9 168.98 207 171.48 C 203.1 173.97 196.78 180.29 195.3 182 C 193.82 183.71 192.59 186.6 192.66 188 Z M 333.16 281 C 332.58 284.41 333.87 285.12 334.37 286 C 334.87 286.88 337.11 289.07 338 289.54 C 338.89 290.02 341.99 290.66 343 290.6 C 344.01 290.55 346.79 289.89 347.74 289 C 348.69 288.11 351.25 284.48 352.22 282 C 353.18 279.52 356.41 268.41 357.09 265 C 357.77 261.59 358.75 252.62 358.77 249 C 358.78 245.38 357.8 233.51 357.22 230 C 356.64 226.49 354.22 217.07 353.17 215 C 352.11 212.93 348.36 210.36 347 209.96 C 345.64 209.57 341.16 210.42 340 211.15 C 338.84 211.88 335.8 214.02 335.79 217 C 335.78 219.98 339.47 236.28 339.91 240 C 340.34 243.72 340.69 248.76 339.99 253 C 339.3 257.24 333.74 277.59 333.16 281 Z M 121.25 210 C 120.96 212.27 122.31 215 123.01 216 C 123.71 217 126.76 219.3 128 219.64 C 129.24 219.98 133.86 219.65 135 219.27 C 136.14 218.9 137.42 219.44 139.04 216 C 140.66 212.56 149.56 189.72 150.7 186 C 151.84 182.28 150.46 181.04 150.08 180 C 149.7 178.96 148.04 176.59 147 175.98 C 145.96 175.36 141.43 173.8 140 174.01 C 138.57 174.22 134.66 175.93 133.19 178 C 131.72 180.07 127.02 190.69 125.78 194 C 124.55 197.31 121.53 207.73 121.25 210 Z M 171.04 238 C 170.57 241 171.83 242.09 172.45 243 C 173.06 243.91 176.01 246.36 177 246.79 C 177.99 247.22 180.94 247.46 182 247.17 C 183.06 246.88 186.11 246.81 187.28 244 C 188.45 241.19 193.05 223.24 193.34 220 C 193.62 216.76 191.07 213.59 190 212.63 C 188.93 211.67 184.35 210.54 183 210.68 C 181.65 210.82 178.21 211.18 176.98 214 C 175.74 216.82 171.5 235 171.04 238 Z"/>
</svg>
