<svg xmlns="http://www.w3.org/2000/svg" viewBox="0 0 512 512" width="512" height="512" role="img" aria-label="Variant Diversity icon">
  <path fill="#fff" fill-rule="evenodd" d="M 199.96 244 C 200.05 245.65 201.94 251.63 202.88 253 C 203.81 254.37 204.85 256.76 209 257.27 C 213.15 257.78 239.18 257.68 243 257.96 C 246.82 258.25 245.11 257.1 245.93 260 C 246.75 262.9 250.41 280.42 250.96 286 C 251.52 291.58 251.7 308.63 251.3 314 C 250.89 319.37 248.86 331.28 247.02 338 C 245.18 344.72 234.66 374.04 233.49 379 C 232.31 383.96 234.91 384.76 235.63 386 C 236.36 387.24 239.29 390.23 240.46 391 C 241.64 391.77 245.5 393.26 247 393.41 C 248.5 393.56 253.45 393.08 255 392.47 C 256.55 391.85 260.65 389.17 262 387.47 C 263.35 385.77 266.59 379.36 268.05 376 C 269.51 372.64 274.72 359.55 276.16 355 C 277.6 350.45 279.08 334.58 282.03 332 C 284.98 329.42 301.75 330.72 304.73 330 C 307.7 329.28 309.95 326.24 310.81 325 C 311.67 323.76 313 319.45 313.05 318 C 313.1 316.55 312.06 312.27 311.33 311 C 310.6 309.73 308.62 306.44 306 305.71 C 303.38 304.99 288.25 304.36 286 303.98 C 283.75 303.59 284.69 305.72 284.2 302 C 283.71 298.28 283.3 277.82 281.25 268 C 279.19 258.18 266.39 215.37 264.3 207 C 262.22 198.63 261.22 189.24 261.09 187 C 260.95 184.76 259.6 185.66 263 185.37 C 266.4 185.08 290.14 184.88 294 184.22 C 297.86 183.56 299.45 180.37 300.32 179 C 301.19 177.63 302.45 172.55 302.42 171 C 302.38 169.45 300.93 165.24 299.96 164 C 298.98 162.76 296.87 159.69 293 158.96 C 289.13 158.24 265.33 158.65 262.52 157 C 259.72 155.35 264.51 146.82 265.84 143 C 267.17 139.18 274.65 123.41 275.42 120 C 276.2 116.59 274.32 111.72 273.35 110 C 272.37 108.28 267.79 104.18 266 103.39 C 264.21 102.61 258.01 101.94 256 102.41 C 253.99 102.89 248.39 105.87 246.51 108 C 244.62 110.13 239.4 119.28 237.76 123 C 236.13 126.72 231.74 139.66 230.71 144 C 229.67 148.34 228.05 160.97 227.75 165 C 227.45 169.03 226.92 176.28 227.8 183 C 228.69 189.72 238.23 224.96 236.28 230 C 234.34 235.04 212.54 231.04 209 231.77 C 205.46 232.49 202.99 235.74 202.06 237 C 201.12 238.26 199.88 242.35 199.96 244 Z M 70.95 236 C 71.12 237.5 72.86 243.19 74 244.55 C 75.14 245.91 78.38 249.31 82 249.14 C 85.62 248.98 105.9 243.52 109 242.98 C 112.1 242.44 110.45 241.25 112 243.92 C 113.55 246.59 120.23 262.1 124 268.83 C 127.77 275.55 146.08 304.63 148.46 309 C 150.83 313.37 149.64 310.09 147 311.12 C 144.36 312.16 125.86 317.46 122.92 319 C 119.97 320.54 118.89 324.35 118.53 326 C 118.18 327.65 118.94 333.53 119.5 335 C 120.06 336.47 122.81 339.46 124 340.23 C 125.19 341 127.28 342.83 131 342.46 C 134.72 342.09 156.46 334.83 160 336.64 C 163.54 338.46 164.73 354.38 165.28 360 C 165.83 365.62 165.16 387.18 165.32 391 C 165.48 394.82 166.14 395.76 166.83 397 C 167.52 398.24 170.85 402.09 172 402.98 C 173.15 403.86 176.66 405.34 178 405.6 C 179.34 405.87 183.69 405.81 185 405.54 C 186.31 405.27 189.55 404.09 190.72 403 C 191.9 401.91 195.59 397.38 196.37 395 C 197.15 392.62 198.08 383.2 198.27 380 C 198.47 376.8 198.58 367.93 198.27 364 C 197.96 360.07 196.25 346.65 195.26 342 C 194.27 337.35 190.18 323.34 188.65 319 C 187.13 314.66 184.71 307.65 180.51 300 C 176.3 292.35 152.37 253.16 147.98 245 C 143.58 236.84 139.42 225.44 137.96 221 C 136.5 216.56 134.37 206.13 133.86 202 C 133.35 197.87 132.37 187.1 133.04 181 C 133.7 174.9 139.84 147.75 140.31 143 C 140.78 138.25 138.42 136.36 137.56 135 C 136.7 133.64 133.3 130.58 132 129.87 C 130.7 129.16 126.55 128.14 125 128.13 C 123.45 128.13 118.35 129.23 117 129.83 C 115.65 130.44 112.92 132.64 111.98 134 C 111.03 135.36 108.99 138.25 107.84 143 C 106.69 147.75 101.28 172.46 100.8 180 C 100.33 187.54 105.73 211.37 103.27 216 C 100.81 220.63 80.2 223.37 77 224.82 C 73.8 226.27 72.96 228.84 72.33 230 C 71.71 231.16 70.78 234.5 70.95 236 Z M 313.51 387 C 313.51 388.73 315.12 394.4 316 395.87 C 316.88 397.34 320.55 400.46 322 401.22 C 323.45 401.99 328.14 403.43 330 403.26 C 331.86 403.09 337.3 401.78 340 399.59 C 342.7 397.39 353.03 385.88 356.16 382 C 359.28 378.12 367.52 366.55 370.23 362 C 372.94 357.45 380.37 342.72 382.42 338 C 384.46 333.28 386.74 318.16 390 316.31 C 393.26 314.47 410.8 320.07 414 320.14 C 417.2 320.21 419.85 317.84 420.95 317 C 422.05 316.16 424.18 313.34 424.64 312 C 425.1 310.66 425.75 305.55 425.43 304 C 425.11 302.45 424.49 298.57 421.56 297 C 418.62 295.43 399.76 289.92 397 288.78 C 394.24 287.64 394.93 290.73 394.83 286 C 394.72 281.27 395.46 250.03 395.98 243 C 396.5 235.97 398.61 222.75 399.83 218 C 401.05 213.25 404.96 202.48 407.75 197 C 410.54 191.52 425.04 169.34 426.83 165 C 428.62 160.66 426.02 156.74 425.11 155 C 424.2 153.26 419.77 149 418 148.18 C 416.23 147.36 409.96 146.65 408 147.05 C 406.04 147.45 401.6 149.14 399 152.03 C 396.4 154.92 385.76 169.99 382.87 175 C 379.98 180.01 374.6 198.38 371 200.56 C 367.4 202.73 351.1 196.23 348 196.04 C 344.9 195.84 342.17 197.86 341 198.68 C 339.83 199.5 337.19 202.62 336.65 204 C 336.12 205.38 335.44 210.44 335.79 212 C 336.14 213.56 336.99 217.39 340 219.14 C 343.01 220.9 362.62 221.78 364.93 229 C 367.24 236.22 363.1 280.42 362.34 289 C 361.58 297.58 358.93 307.45 357.57 312 C 356.22 316.55 351.29 328.76 349.2 333 C 347.11 337.24 340.75 348.23 337.32 353 C 333.89 357.77 318.46 375.62 316 379.13 C 313.54 382.64 313.51 385.27 313.51 387 Z"/>
</svg>
