<svg xmlns="http://www.w3.org/2000/svg" viewBox="0 0 512 512" width="512" height="512" role="img" aria-label="Variant Swarm icon">
  <path fill="#fff" fill-rule="evenodd" d="M 256.72 363 C 256.59 366.2 257.91 375.42 258.57 378 C 259.22 380.58 261.77 386.35 263.08 388 C 264.38 389.65 269.24 393.37 271.2 394 C 273.15 394.63 280.15 394.77 282 394.05 C 283.85 393.33 288.19 389.69 289.11 387 C 290.02 384.31 290.37 370.48 290.84 368 C 291.31 365.52 292.71 363.87 293.66 363 C 294.6 362.13 297.07 360.28 300 359.59 C 302.93 358.9 318.71 357.13 322 356.34 C 325.29 355.56 330.26 353.07 331.84 352 C 333.42 350.93 336.11 348.48 337.28 346 C 338.46 343.52 342.23 330.33 343.24 328 C 344.24 325.67 345.99 324.03 347 323.42 C 348.01 322.81 350.21 321.91 353 322.09 C 355.79 322.27 371.11 325.05 374 325.16 C 376.89 325.26 379.75 323.77 381 323.13 C 382.25 322.49 385.07 320.46 386.06 319 C 387.05 317.54 390.31 311.16 390.61 309 C 390.92 306.84 389.79 299.87 389 298.1 C 388.21 296.33 385.07 293.17 383 291.87 C 380.93 290.57 370.73 286.65 369 285.53 C 367.27 284.41 366.39 281.98 366.25 281 C 366.11 280.02 366.28 278.17 367.63 276 C 368.99 273.83 377.77 262.58 379.33 260 C 380.88 257.42 382.34 253.17 382.65 251 C 382.96 248.83 382.9 241.15 382.32 239 C 381.73 236.85 378.27 231.45 377 230.22 C 375.73 228.98 371.65 227.26 370 227.05 C 368.35 226.84 362.67 227.59 361 228.21 C 359.33 228.82 355.76 231.02 353.79 233 C 351.83 234.98 345.7 245.44 342 247.39 C 338.3 249.34 321.72 250.69 318 251.83 C 314.28 252.96 307.72 256.93 306 258.4 C 304.28 259.86 301.92 264.08 301.4 266 C 300.88 267.92 300.61 274.93 300.94 277 C 301.27 279.07 303.11 283.62 304.58 286 C 306.04 288.38 313.93 297.62 315.1 300 C 316.26 302.38 316.27 307.52 315.85 309 C 315.42 310.48 314.29 312.84 311 314.29 C 307.71 315.73 288.24 321.15 284 322.98 C 279.76 324.81 272.47 329.52 269.97 332 C 267.47 334.48 261.21 343.8 259.84 347 C 258.47 350.2 256.85 359.8 256.72 363 Z M 106.92 397 C 106.8 398.86 107.97 403.53 108.6 405 C 109.23 406.47 111.72 410.02 113 411.2 C 114.28 412.38 119.14 415.58 121 416.44 C 122.86 417.3 127.49 419.26 131 419.53 C 134.51 419.8 151.49 419.47 155 419.05 C 158.51 418.63 163 416.51 165 415.47 C 167 414.43 171.54 412.56 174.31 409 C 177.08 405.44 188 385.44 191.82 381 C 195.65 376.56 208.47 368.69 211.31 366 C 214.14 363.31 218.34 357.58 219.24 355 C 220.15 352.42 221.29 344.72 220.09 341 C 218.9 337.28 209.13 322.41 207.7 319 C 206.27 315.59 205.91 310 206.25 308 C 206.59 306 208.55 301.3 211 299.65 C 213.45 298 227.16 293.67 230 292.05 C 232.84 290.44 237.45 285.97 238.49 284 C 239.54 282.03 240.76 275.48 240.09 273 C 239.42 270.52 233.77 261.94 232 259.99 C 230.23 258.04 225.07 254.91 223 254.16 C 220.93 253.42 214.27 252.49 212 252.78 C 209.73 253.07 203.37 255.53 201.01 257 C 198.65 258.47 191.55 264.21 189.16 267 C 186.78 269.79 180.02 279.45 177.96 284 C 175.91 288.55 172.09 307.2 169.3 311 C 166.52 314.8 153.46 318.92 151 320.78 C 148.54 322.64 146.15 327.43 145.52 329 C 144.89 330.57 144.7 334.55 144.87 336 C 145.04 337.45 145.2 341.14 147.19 343 C 149.17 344.86 162.32 352.24 164.04 354 C 165.76 355.76 164.3 358.45 163.84 360 C 163.38 361.55 160.64 367.35 159.59 369 C 158.54 370.65 155.07 374.85 153.66 376 C 152.26 377.15 149.07 379.77 146 380.1 C 142.93 380.44 127.1 379.15 124 379.25 C 120.9 379.35 117.47 380.3 116 381.1 C 114.53 381.9 110.68 385.36 109.74 387 C 108.8 388.64 107.04 395.14 106.92 397 Z M 276.33 209 C 276.2 210.96 277.05 215.55 277.57 217 C 278.1 218.45 280.2 222 281.38 223 C 282.56 224 287.28 226.3 289 226.67 C 290.72 227.04 292.63 229.1 298 226.58 C 303.37 224.06 335.13 206 341 202.33 C 346.87 198.65 352.56 193.42 354.84 191 C 357.11 188.58 361.75 181.55 363 178.86 C 364.25 176.18 366.61 167.67 366.92 165 C 367.23 162.33 367.08 156.41 366.02 153 C 364.96 149.59 357.51 135.2 356.67 132 C 355.84 128.8 357.27 124.07 357.92 122 C 358.58 119.93 361.85 113.7 362.99 112 C 364.14 110.3 367.76 106.43 369 105.58 C 370.24 104.73 372.83 103.94 375 103.77 C 377.17 103.6 387.42 104.53 390 103.92 C 392.58 103.32 398.63 99.14 400 97.91 C 401.37 96.67 402.86 93.44 403.28 92 C 403.71 90.56 404.66 86.07 404.1 84 C 403.55 81.93 399.25 73.72 397.89 72 C 396.54 70.28 392.64 68.12 391 67.36 C 389.36 66.6 384.79 64.73 382 64.66 C 379.21 64.6 367.38 65.48 364 66.75 C 360.62 68.03 352.19 73.98 349.27 77 C 346.35 80.02 338.96 93.71 335.73 96 C 332.5 98.29 320.65 98.34 318 99.16 C 315.35 99.99 311.2 102.98 310.13 104 C 309.05 105.02 307.84 107.76 307.6 109 C 307.35 110.24 305.95 112.69 307.76 116 C 309.57 119.31 323.14 137.59 325.15 141 C 327.16 144.41 327.11 147.35 327.22 149 C 327.33 150.65 326.69 155.35 326.2 157 C 325.71 158.65 323.56 163.45 322.48 165 C 321.41 166.55 318.76 170.27 315.82 172 C 312.88 173.73 297.11 180.12 294 181.77 C 290.89 183.42 287.24 186.32 285.68 188 C 284.11 189.68 279.79 195.83 278.82 198 C 277.86 200.17 276.46 207.04 276.33 209 Z M 111.42 221 C 111.44 222.86 112.37 228.24 113.04 230 C 113.7 231.76 116.61 236.73 117.85 238 C 119.08 239.27 123.43 241.74 125 242.31 C 126.57 242.89 131.24 243.67 133 243.55 C 134.76 243.44 140.22 242.09 142 241.21 C 143.78 240.33 147.36 239.16 150.2 235 C 153.04 230.84 166.6 205.28 169.48 201 C 172.35 196.72 176.6 194.33 178 193.54 C 179.4 192.75 181.97 193.1 183 193.32 C 184.03 193.54 186.33 194.04 188 195.66 C 189.67 197.28 197.36 207.21 199.12 209 C 200.87 210.79 203.57 212.43 205 212.98 C 206.43 213.52 211.35 214.33 213 214.27 C 214.65 214.21 219.17 213.46 221 212.4 C 222.83 211.34 228.13 207.55 230.72 204 C 233.3 200.45 242.57 181.61 246.01 178 C 249.45 174.39 261.55 170.53 264 169.08 C 266.45 167.64 268.74 165.46 269.71 164 C 270.67 162.54 273.19 156.96 273.37 155 C 273.54 153.04 272.33 146.96 271.4 145 C 270.47 143.04 265.96 137.52 264.37 136 C 262.78 134.48 257.8 131.14 256 130.27 C 254.2 129.39 248.96 127.78 247 127.53 C 245.04 127.27 239.27 127.06 237 127.83 C 234.73 128.6 227.33 132 225 135.01 C 222.67 138.02 216.11 154.35 214.46 157 C 212.8 159.65 210.08 160.52 209 160.7 C 207.92 160.88 205.49 160.13 204 158.72 C 202.51 157.3 196.33 148.76 194.57 147 C 192.82 145.24 189.13 142.49 187 141.73 C 184.87 140.96 176.38 139.52 174 139.56 C 171.62 139.59 165.74 141.3 164 142.07 C 162.26 142.84 158.32 145.86 157.19 147 C 156.05 148.14 154.14 149.87 153 153.08 C 151.86 156.28 147.32 174.39 146.12 178 C 144.92 181.61 142.65 186.16 141.4 188 C 140.15 189.84 136.52 194.13 134 195.83 C 131.48 197.53 119.19 202.76 117 204.43 C 114.81 206.1 113.4 210.29 112.83 212 C 112.25 213.71 111.39 219.14 111.42 221 Z"/>
</svg>
