<svg xmlns="http://www.w3.org/2000/svg" viewBox="0 0 512 512" width="512" height="512" role="img" aria-label="Polymerase Drive icon">
  <path fill="#fff" fill-rule="evenodd" d="M 102.38 321 C 102.35 325.55 103.34 341.73 104.49 347 C 105.64 352.27 110.88 367.28 113.51 372 C 116.15 376.72 126.32 389.2 130 392.71 C 133.68 396.22 144.75 403.75 149.09 406 C 153.43 408.25 166.74 413.29 172 414.53 C 177.26 415.77 194.21 418.04 200 418.01 C 205.79 417.97 222.63 415.73 228 414.2 C 233.37 412.67 247.91 405.87 252 403.17 C 256.09 400.46 264.94 391.63 267.57 388 C 270.2 384.37 276.16 372.44 277.48 368 C 278.8 363.56 280.57 350.37 280.37 345 C 280.18 339.63 275.85 319.72 275.58 316 C 275.31 312.28 277.11 310.24 277.78 309 C 278.44 307.76 280.62 305.01 282 303.97 C 283.38 302.94 289.05 299.62 291.11 299 C 293.18 298.38 297.26 297.23 302 297.95 C 306.74 298.68 331.42 305.26 337 306.02 C 342.58 306.78 353.11 305.69 356 305.3 C 358.89 304.91 363.08 303.19 365 302.22 C 366.92 301.26 372.33 298.3 374.62 296 C 376.91 293.7 385.36 283.31 387.17 280 C 388.98 276.69 391.72 267.62 392.14 264 C 392.57 260.38 392.11 248.82 391.29 245 C 390.46 241.18 385.96 230.09 384.17 227 C 382.39 223.91 376.29 217.1 374 215.09 C 371.71 213.09 364.89 208.81 362 207.56 C 359.11 206.3 349.41 203.26 346 202.95 C 342.59 202.64 332.82 203.51 329 204.59 C 325.18 205.67 311.69 212.76 309 213.4 C 306.31 214.05 303.88 211.71 303 210.84 C 302.12 209.97 299.4 208.7 300.49 205 C 301.59 201.3 311.25 179.03 313.6 175 C 315.94 170.97 320.78 167.21 323.2 166 C 325.62 164.79 333.4 162.96 337 163.33 C 340.6 163.69 354.59 168.77 358 169.56 C 361.41 170.35 367.31 171.09 370 170.96 C 372.69 170.84 381.28 169.37 384 168.34 C 386.72 167.31 394.1 163 396.3 161 C 398.5 159 403.99 151.79 405.3 149 C 406.6 146.21 408.73 137 408.94 134 C 409.14 131 408.06 122.79 407.29 120 C 406.52 117.21 402.85 109.13 401.48 107 C 400.1 104.87 396.01 100.73 394 99.36 C 391.99 97.99 384.69 94.44 382 93.75 C 379.31 93.06 370.89 92.36 368 92.67 C 365.11 92.99 356.27 95.85 354 96.82 C 351.73 97.78 347.66 100.58 346 102.04 C 344.34 103.51 339.28 109.04 337.96 111 C 336.64 112.96 334.16 117.8 333.25 121 C 332.34 124.2 330.05 139.31 329.16 142 C 328.26 144.69 325.75 146.17 324.6 147 C 323.44 147.83 319.61 149.83 318 149.99 C 316.39 150.16 311.69 150.76 309 148.6 C 306.31 146.44 295.62 131.99 292 129.11 C 288.38 126.23 278.24 121.6 274 120.74 C 269.76 119.87 254.62 120.3 251 120.71 C 247.38 121.12 241.17 123.76 239 124.75 C 236.83 125.73 231.77 128.86 230 130.23 C 228.23 131.6 223.46 136.06 221.88 138 C 220.29 139.94 215.79 146.83 214.65 149 C 213.51 151.17 211.51 156.42 210.88 159 C 210.25 161.58 208.67 171.31 208.57 174 C 208.47 176.69 209.37 182.83 209.9 185 C 210.42 187.17 211.75 192.11 213.65 195 C 215.55 197.89 226.41 210.31 228.32 213 C 230.24 215.69 231.76 218.73 232.18 221 C 232.61 223.27 232.87 232.34 232.44 235 C 232.01 237.66 229.04 244.98 228 246.73 C 226.96 248.49 223.75 251.22 222.41 252 C 221.06 252.78 219.38 254.48 215 254.26 C 210.62 254.03 185.17 250.16 180 249.8 C 174.83 249.44 168.2 250.27 165 250.78 C 161.8 251.29 152 253.69 149 254.73 C 146 255.77 138.99 258.87 136 260.86 C 133.01 262.85 122.53 271.5 120.05 274 C 117.57 276.5 113.58 282.02 112 285.01 C 110.42 288.01 105.8 299.28 104.8 303 C 103.81 306.72 102.41 316.45 102.38 321 Z M 247.01 253 C 246.71 256.51 248.6 263.62 249.67 266 C 250.74 268.38 255.46 274.52 257.36 276 C 259.25 277.48 265.45 280.07 268 280.33 C 270.55 280.59 279.95 279.2 282 278.54 C 284.05 277.89 286.93 274.99 287.81 274 C 288.68 273.01 289.74 272.82 290.48 269 C 291.22 265.18 294.63 241.03 295.01 237 C 295.39 232.97 294.67 231.27 294.15 230 C 293.63 228.73 291.36 225.72 290 224.73 C 288.64 223.74 282.86 221.03 281 220.41 C 279.14 219.79 273.86 218.69 272 218.75 C 270.14 218.81 265.01 219.61 263 220.98 C 260.99 222.35 254.2 228.69 252.55 232 C 250.9 235.31 247.3 249.49 247.01 253 Z M 190.61 300 C 190.6 301.49 191.41 305.66 191.92 307 C 192.44 308.34 194.66 311.93 195.6 313 C 196.54 314.07 199.51 316.66 201 317.36 C 202.49 318.06 208.35 319.65 210 319.8 C 211.65 319.96 215.55 319.34 217 318.84 C 218.45 318.33 222.75 316.04 224 314.92 C 225.25 313.8 228.36 309.54 229.07 308 C 229.77 306.46 230.81 301.55 230.85 300 C 230.9 298.45 230.09 294.45 229.48 293 C 228.87 291.55 226.04 287.15 224.95 286 C 223.87 284.85 220.55 282.52 219 281.92 C 217.45 281.32 211.76 280.21 210 280.23 C 208.24 280.26 203.39 281.56 202 282.15 C 200.61 282.75 197.57 284.92 196.54 286 C 195.5 287.08 192.61 291.17 192 292.62 C 191.39 294.06 190.62 298.51 190.61 300 Z M 260.05 155 C 260.04 157.27 263.1 164.39 264.64 166 C 266.19 167.61 272.79 170.58 275 170.56 C 277.21 170.54 284.43 167.41 286 165.8 C 287.57 164.19 290.26 157.25 290.21 155 C 290.15 152.75 287.02 145.59 285.45 144 C 283.87 142.41 277.14 139.57 275 139.57 C 272.86 139.57 266.31 142.41 264.76 144 C 263.22 145.59 260.06 152.73 260.05 155 Z M 348.65 240 C 348.67 242.07 351.45 248.57 352.83 250 C 354.21 251.43 360.08 253.83 362 253.83 C 363.92 253.83 370 251.43 371.39 250 C 372.79 248.57 375.51 242.07 375.47 240 C 375.44 237.93 372.42 231.43 371.03 230 C 369.63 228.57 363.9 226.12 362 226.12 C 360.1 226.12 354.03 228.57 352.65 230 C 351.27 231.43 348.63 237.93 348.65 240 Z M 366.64 119 C 366.67 120.69 368.94 125.81 370.22 127 C 371.49 128.19 377.27 130.5 379 130.54 C 380.73 130.58 385.76 128.56 387 127.37 C 388.24 126.18 390.94 120.79 390.96 119 C 390.98 117.21 388.43 111.28 387.19 110 C 385.96 108.72 380.78 106.53 379 106.59 C 377.22 106.66 371.28 109.34 370 110.63 C 368.72 111.91 366.62 117.31 366.64 119 Z"/>
</svg>
