<svg xmlns="http://www.w3.org/2000/svg" viewBox="0 0 512 512" width="512" height="512" role="img" aria-label="Viral Protein Production icon">
  <path fill="#fff" fill-rule="evenodd" d="M 132.61 261 C 132.19 266.17 133.78 275.69 134.61 279 C 135.43 282.31 138.79 290.46 140.59 293 C 142.39 295.54 149.37 301.99 152 303.59 C 154.63 305.18 162.38 307.98 166 308.44 C 169.62 308.89 180.7 309.29 187 308.02 C 193.3 306.75 219.56 297.8 227 296.13 C 234.44 294.46 252.9 292.06 259 291.83 C 265.1 291.6 277.53 292.41 286 293.92 C 294.47 295.43 333.77 305.26 341 306.46 C 348.23 307.65 353.29 306.04 356 305.48 C 358.71 304.92 365.25 302.29 367.25 301 C 369.25 299.71 374.06 294.86 375.31 293 C 376.56 291.14 378.88 285.38 379.37 283 C 379.85 280.62 380.17 272.48 379.98 270 C 379.79 267.52 378.36 261.27 377.55 259 C 376.75 256.73 373.48 250.06 372.18 248 C 370.88 245.94 366.57 240.67 365 239.1 C 363.43 237.54 359.43 234.28 357 232.83 C 354.57 231.37 343.22 226.22 341.46 225 C 339.69 223.78 339.57 221.99 339.94 221 C 340.3 220.01 342.51 216.33 345 215.38 C 347.49 214.43 360.88 213.28 364 211.8 C 367.12 210.31 373.7 203.67 375.19 201 C 376.67 198.33 378.41 189.03 378.39 186 C 378.37 182.97 373.9 173.92 375 171.66 C 376.1 169.4 386.81 165.83 389 164.11 C 391.19 162.39 395.02 157.18 396.16 155 C 397.29 152.82 399.57 145.83 399.96 143 C 400.36 140.17 398.08 130 400 127.62 C 401.92 125.25 415.6 122.23 418.59 120 C 421.57 117.77 427.61 109.2 428.93 106 C 430.26 102.8 431.68 92.39 431.38 89 C 431.08 85.61 427.5 75.81 426 73.23 C 424.5 70.64 419.37 65.5 416.89 64 C 414.41 62.5 405.19 59.08 402 58.75 C 398.81 58.42 388.89 59.74 386 60.81 C 383.11 61.88 376.03 66.63 374 69.13 C 371.97 71.63 367.09 81.32 366.37 85 C 365.64 88.68 368.69 101.97 367 104.7 C 365.31 107.43 352.8 109.4 350 111.4 C 347.2 113.39 341.26 121.35 339.93 124 C 338.61 126.65 337.12 133.8 337.22 137 C 337.33 140.2 341.9 152.42 340.96 155 C 340.02 157.58 330.19 160.35 328.12 162 C 326.04 163.65 321.91 168.93 320.86 171 C 319.82 173.07 317.99 179.31 317.99 182 C 318 184.69 320.82 195.03 320.92 197 C 321.03 198.97 319.61 200.51 319 201.06 C 318.39 201.6 315.8 202.37 315 202.26 C 314.2 202.15 312.62 201.99 311.22 200 C 309.82 198.01 303.54 185.91 301.45 183 C 299.36 180.09 294.27 174.17 291 171.79 C 287.73 169.41 273.44 161.58 269.83 160 C 266.21 158.42 258.98 156.99 256 156.52 C 253.02 156.05 245.86 155.02 241 155.47 C 236.14 155.93 215.1 158.99 209 160.88 C 202.9 162.76 186.5 171.02 182 173.72 C 177.5 176.41 168.16 184.49 165.44 187 C 162.71 189.51 157.76 195.11 155.62 198 C 153.48 200.89 146.48 211.8 144.73 215 C 142.98 218.2 139.92 224.25 138.66 229 C 137.41 233.75 133.03 255.83 132.61 261 Z M 61.26 320 C 61.37 322.38 62.71 332.68 63.82 335 C 64.93 337.32 68.16 341.44 72 342.43 C 75.84 343.43 91.08 343.41 101 344.64 C 110.92 345.87 159.11 353.53 168 354.32 C 176.89 355.1 180.7 353.53 187 352.24 C 193.3 350.94 222.39 343.12 229 341.78 C 235.61 340.43 246.45 339.35 251 339.22 C 255.55 339.09 264.32 339.04 273 340.47 C 281.68 341.9 325.49 351.68 335 353.06 C 344.51 354.45 358.28 354.05 365 353.88 C 371.72 353.71 392.04 352.49 400 351.42 C 407.96 350.34 436.99 344.98 442 343.49 C 447.01 342 447.54 338.81 448.44 337 C 449.33 335.19 450.72 329 450.66 326 C 450.59 323 448.49 310.31 447.8 308 C 447.11 305.69 445.01 304.29 444 303.64 C 442.99 302.99 444.51 300.84 438 301.72 C 431.49 302.6 389.47 310.82 381 312.16 C 372.53 313.5 360.55 314.49 356 314.69 C 351.45 314.89 344.75 315.17 337 314.13 C 329.25 313.09 289.47 305.81 281 304.65 C 272.53 303.49 260.37 302.76 255 302.88 C 249.63 303.01 236.03 304.52 229 305.84 C 221.97 307.17 193.3 314.56 187 315.69 C 180.7 316.81 172.03 316.89 168 316.73 C 163.97 316.56 154.41 315.43 148 314.08 C 141.59 312.72 113.13 304.95 106 303.62 C 98.87 302.3 82.62 301.36 79 301.27 C 75.38 301.18 72.29 302.27 71 302.75 C 69.71 303.24 67.33 305.04 66.48 306 C 65.64 306.96 63.35 310.55 62.81 312 C 62.27 313.45 61.16 317.62 61.26 320 Z M 139.16 378 C 139.06 380.17 139.79 387.42 140.57 390 C 141.34 392.58 145.05 400.45 146.64 403 C 148.24 405.55 153.79 412.46 156 414.67 C 158.21 416.88 163.97 422.08 168 424.42 C 172.03 426.77 188.39 435.41 195 437.36 C 201.61 439.31 225.39 442.8 232 443.32 C 238.61 443.84 253.73 442.86 259 442.42 C 264.27 441.98 278.45 439.92 283 439.06 C 287.55 438.2 298.87 435.41 303 434.09 C 307.13 432.77 319.18 428.16 323 426.31 C 326.82 424.46 336.97 418.37 340 416.17 C 343.03 413.97 350.29 407.29 352.31 405 C 354.33 402.71 358.48 396.38 359.53 394 C 360.57 391.62 362.51 384.48 362.41 382 C 362.31 379.52 359.96 371.92 358.57 370 C 357.19 368.08 353.71 364.51 349 363.38 C 344.29 362.25 322.61 360.66 313 359.05 C 303.39 357.44 264.68 348.71 256 347.77 C 247.32 346.83 237.06 348.43 229 349.94 C 220.94 351.45 186.27 361 178 362.38 C 169.73 363.77 152.77 362.64 149 363.32 C 145.23 364.01 142.56 367.48 141.55 369 C 140.53 370.52 139.26 375.83 139.16 378 Z"/>
</svg>
