<svg xmlns="http://www.w3.org/2000/svg" viewBox="0 0 1254 1254" width="1254" height="1254" role="img" aria-label="Virion Maturation icon">
  <path fill="#fff" fill-rule="evenodd" d="M 566.46 230 C 566.23 233 566.23 244.38 566.58 248 C 566.92 251.62 568.77 261.07 569.83 265 C 570.89 268.93 574.45 280.63 576.83 286 C 579.2 291.37 588.59 310.08 592.8 317 C 597.01 323.92 607.08 339.8 617.54 353 C 628 366.2 683.81 431.93 694 444.74 C 704.19 457.55 712.14 470.46 716.18 477 C 720.22 483.54 729.9 501.39 733.11 508 C 736.31 514.61 744.79 534.59 747.17 541 C 749.56 547.41 754.6 564.01 756.17 570 C 757.74 575.99 761.31 592.39 762.38 599 C 763.44 605.61 766.06 625.84 766.49 634 C 766.91 642.16 767.22 667.87 766.49 678 C 765.76 688.13 760.99 722.91 759.4 732 C 757.82 741.09 753.78 757.42 751.17 766 C 748.56 774.58 738.41 804.98 734.17 815 C 729.94 825.02 715.16 854.29 710.19 863 C 705.21 871.71 691.6 891.87 686 899.26 C 680.4 906.65 662.72 927.33 656 934.48 C 649.28 941.64 625.88 963.4 621 968.52 C 616.12 973.63 610.9 980.64 608.81 984 C 606.73 987.36 601.62 997.69 600.79 1001 C 599.97 1004.31 600.08 1013.37 600.83 1016 C 601.57 1018.63 605.92 1024.85 608 1026.44 C 610.08 1028.04 616.87 1031.01 621 1031.42 C 625.13 1031.83 642.11 1031.17 648 1030.42 C 653.89 1029.68 669.63 1026.69 678 1024.18 C 686.37 1021.68 720.32 1009.76 729 1006.2 C 737.68 1002.64 754.97 993.61 762 989.74 C 769.03 985.87 792.04 971.35 797 968.75 C 801.96 966.15 807.49 964.56 810 964.59 C 812.51 964.61 818.97 967.3 821.27 969 C 823.56 970.7 830.34 978.11 832.19 981 C 834.04 983.89 837.56 992.14 839.17 997 C 840.79 1001.86 845.77 1023.3 847.82 1028 C 849.86 1032.7 856.81 1040.36 859 1042.44 C 861.19 1044.53 866.93 1047.35 869 1048.17 C 871.07 1048.99 877.24 1050.18 879 1050.41 C 880.76 1050.64 883.73 1050.86 886 1050.42 C 888.27 1049.99 897.9 1047.44 901 1046.17 C 904.1 1044.91 912.8 1040.22 916 1038.18 C 919.2 1036.15 926.79 1031.01 932 1026.44 C 937.21 1021.88 959.6 1001.49 966.44 994 C 973.28 986.51 994.08 959.79 998.19 954 C 1002.29 948.21 1005.03 940.89 1006.19 938 C 1007.35 935.11 1009.3 929.2 1009.4 926 C 1009.5 922.8 1007.82 909.82 1007.16 907 C 1006.5 904.18 1004.15 900.34 1003 898.74 C 1001.85 897.14 997.96 892.92 996 891.56 C 994.04 890.2 989.48 887 984 885.58 C 978.52 884.15 948.79 879.5 943 877.73 C 937.21 875.96 930.21 870.56 928 868.42 C 925.79 866.28 922.12 859.32 921.6 857 C 921.07 854.68 921.02 850.44 922.89 846 C 924.77 841.56 936.19 821.65 939.73 814 C 943.27 806.35 954.32 779.75 957.16 772 C 960 764.25 964.93 747.89 967.17 739 C 969.41 730.11 976.78 692.66 978.83 686 C 980.88 679.34 984.81 676.26 987 674.56 C 989.19 672.86 996.59 669.82 1000 669.54 C 1003.41 669.26 1014.32 669.51 1020 671.86 C 1025.68 674.21 1049.73 689.63 1055 692.27 C 1060.27 694.91 1067.49 697.16 1071 697.41 C 1074.51 697.67 1085.44 696.32 1089 694.73 C 1092.56 693.14 1103.06 684.56 1105.46 682 C 1107.86 679.44 1111.09 672.58 1112.2 670 C 1113.31 667.42 1115.31 662.27 1116.17 657 C 1117.03 651.73 1120.04 625.92 1120.49 619 C 1120.93 612.08 1120.8 596.92 1120.49 590 C 1120.17 583.08 1118.05 557.89 1117.42 552 C 1116.8 546.11 1115.27 536.72 1114.42 533 C 1113.56 529.28 1110.15 518.61 1109.17 516 C 1108.2 513.39 1106.36 509.65 1105 507.74 C 1103.64 505.83 1098.79 499.44 1096 497.56 C 1093.21 495.67 1081.1 490.34 1078 489.52 C 1074.9 488.69 1068.07 489.35 1066 489.59 C 1063.93 489.83 1062.24 489.44 1058 491.83 C 1053.76 494.22 1030.48 509.79 1025 512.74 C 1019.52 515.69 1008.72 519.75 1005 520.41 C 1001.28 521.08 991.71 520.14 989 519.17 C 986.29 518.2 980.49 513.29 978.82 511 C 977.15 508.71 975.07 503.92 972.83 497 C 970.59 490.08 959.87 452.06 957.17 444 C 954.48 435.94 949.21 424.37 946.73 419 C 944.25 413.63 937.72 399.65 933.19 392 C 928.65 384.35 906.28 350.79 902.81 345 C 899.34 339.21 899.22 338.38 899.61 336 C 900 333.62 904.77 324.25 906.56 322 C 908.36 319.75 913.96 315.83 917 314.26 C 920.04 312.69 931.35 308.07 936 306.82 C 940.65 305.57 957.51 303.5 962 302.18 C 966.49 300.86 976.88 295.67 979.48 294 C 982.08 292.33 985.87 287.96 987.18 286 C 988.49 284.04 991.42 277.48 992.17 275 C 992.93 272.52 994.5 264.69 994.5 262 C 994.5 259.31 993.57 252.54 992.17 249 C 990.78 245.46 984.63 232.54 981 227.74 C 977.37 222.94 963.92 208.54 957 202.56 C 950.08 196.57 921.13 174.74 914 169.82 C 906.87 164.89 892.75 157.19 888 154.89 C 883.25 152.6 871.82 148.46 868 147.59 C 864.18 146.72 853.69 146.37 851 146.5 C 848.31 146.63 844.17 147.89 842 148.83 C 839.83 149.76 831.98 153.99 830 155.56 C 828.02 157.12 824.07 162.09 822.82 164 C 821.56 165.91 818.8 169.66 817.83 174 C 816.86 178.34 814.34 200.83 813.4 206 C 812.46 211.17 809.8 221.06 808.73 224 C 807.65 226.94 804.73 232.58 803 234.48 C 801.27 236.38 794.07 241.72 792 242.41 C 789.93 243.1 788.37 243.4 783 241.17 C 777.63 238.94 748.47 224.38 740 220.83 C 731.53 217.28 709.06 209.22 701 206.82 C 692.94 204.42 669.34 198.96 662 197.59 C 654.66 196.21 635.58 193.93 630 193.52 C 624.42 193.1 612.75 192.83 608 193.59 C 603.25 194.34 587.64 199.02 584 200.82 C 580.36 202.62 574.39 209.12 572.82 211 C 571.25 212.88 569.47 217.04 568.82 219 C 568.16 220.96 566.69 227 566.46 230 Z M 156.48 603 C 156.26 610.75 155.97 634.42 156.49 643 C 157.02 651.58 160.31 677.94 161.58 686 C 162.86 694.06 166.64 712.63 168.83 721 C 171.02 729.37 179.41 757.7 182.81 767 C 186.21 776.3 198.01 803.25 201.73 811 C 205.45 818.75 214.24 834.64 218.81 842 C 223.39 849.36 240.61 874.98 246 882.26 C 251.39 889.54 264.7 905.75 271 912.48 C 277.3 919.22 299.8 941.09 307 947.44 C 314.2 953.8 334 969.17 340.72 974 C 347.44 978.83 365.15 990.18 372 994.18 C 378.85 998.19 398.42 1008.81 407 1012.73 C 415.58 1016.65 445.91 1028.99 455 1032.16 C 464.09 1035.33 486.53 1041.53 495 1043.42 C 503.47 1045.31 529 1049.66 537 1050.44 C 545 1051.23 569.53 1052.7 572.4 1051 C 575.28 1049.3 566.05 1037.51 564.83 1034 C 563.61 1030.49 561.03 1020.62 560.6 1017 C 560.16 1013.38 560.26 1002.2 560.6 999 C 560.93 995.8 562.58 989.2 563.84 986 C 565.1 982.8 570.67 971.51 572.81 968 C 574.95 964.49 577.72 959.29 584.56 952 C 591.4 944.71 631.62 905.31 639 897.48 C 646.38 889.66 652.15 881.61 656 876.29 C 659.85 870.97 672.47 852.33 676.21 846 C 679.96 839.67 688.76 823.06 692.27 815 C 695.78 806.94 707.29 776.99 710.19 768 C 713.1 759.01 718.62 737.51 720.4 728 C 722.19 718.49 726.76 684.99 727.49 676 C 728.22 667.01 727.91 648.23 727.49 641 C 727.07 633.77 724.7 613.23 723.42 606 C 722.15 598.77 717.07 577.51 715.18 571 C 713.3 564.49 707.76 549.1 705.17 543 C 702.59 536.9 694.81 519.85 690.19 512 C 685.56 504.15 672.24 482.27 660.44 467 C 648.64 451.73 586.91 378.21 576 364.26 C 565.09 350.31 558.4 338.12 554.81 332 C 551.22 325.88 543.65 310.58 541.27 305 C 538.9 299.42 533.35 283.58 531.83 278 C 530.31 272.42 527.14 256.48 526.6 251 C 526.06 245.52 526.1 230.17 526.6 225 C 527.09 219.83 533.23 203.42 531.42 201 C 529.6 198.58 514.93 200.88 509 201.59 C 503.07 202.29 482.47 205.73 474 207.82 C 465.53 209.91 434.85 219.15 427 221.83 C 419.15 224.51 404.41 230.75 398 233.74 C 391.59 236.74 372.06 246.66 365 250.82 C 357.94 254.98 336.54 269.07 329.72 274 C 322.9 278.93 304.96 293.34 299 298.56 C 293.04 303.78 277.01 319.31 272 324.52 C 266.99 329.73 255.54 342.65 250.56 349 C 245.58 355.35 228.93 378.04 223.8 386 C 218.67 393.96 204.71 418.66 200.89 426 C 197.07 433.34 189.62 449.87 186.83 457 C 184.03 464.13 176.22 486.84 173.82 495 C 171.42 503.16 165.17 528.46 163.6 536 C 162.02 543.54 159.32 561.08 158.59 568 C 157.85 574.92 156.69 595.25 156.48 603 Z M 387.5 537 C 387.16 541.65 387.94 552.97 388.6 557 C 389.25 561.03 392.27 572.07 393.84 576 C 395.41 579.93 401.52 591.44 403.81 595 C 406.1 598.56 413.53 607.8 416 610.48 C 418.47 613.17 424.41 618.55 427.72 621 C 431.03 623.45 441.46 630.8 448 634.18 C 454.54 637.57 483.53 650.04 491 653.74 C 498.47 657.44 515.84 667 520.28 670 C 524.72 673 531.61 679.43 534 682.74 C 536.39 686.05 542.32 698.46 543.4 702 C 544.49 705.54 544.62 714.31 544.49 717 C 544.36 719.69 543.66 724.86 542.16 728 C 540.66 731.14 532.19 744.71 530 747.42 C 527.81 750.12 523.48 752.76 521 754.18 C 518.52 755.6 511.41 759.54 506 761.17 C 500.59 762.81 473.28 768.67 468.61 770 C 463.93 771.33 462.31 772.86 460.76 774 C 459.2 775.14 454.9 779.14 453.56 781 C 452.23 782.86 448.57 790.14 447.84 792 C 447.11 793.86 446.1 796.52 446.51 799 C 446.92 801.48 449.91 813.19 451.82 816 C 453.73 818.81 462.29 824.79 465 826.17 C 467.71 827.56 475.42 829.07 478 829.41 C 480.58 829.75 485.87 830.02 490 829.48 C 494.13 828.94 512.01 826.07 518 824.18 C 523.99 822.29 543.14 813.74 548 811.18 C 552.86 808.63 561.85 802.05 565 799.44 C 568.15 796.84 575.85 789.15 578.45 786 C 581.05 782.85 587.94 773.03 590.19 769 C 592.43 764.97 598.59 751.96 600.16 747 C 601.73 742.04 604.85 725.44 605.4 721 C 605.95 716.56 606.24 709.06 605.49 704 C 604.74 698.94 599.75 676.96 598.17 672 C 596.59 667.04 592.17 659.33 590.19 656 C 588.21 652.67 582.22 643.4 579 639.74 C 575.78 636.08 563.75 624.24 559 620.57 C 554.25 616.91 540.44 608.08 533 604.27 C 525.56 600.47 494.13 587.32 487 583.73 C 479.87 580.13 467.43 572.31 464 569.44 C 460.57 566.58 455.21 558.42 453.83 556 C 452.44 553.58 450.94 547.96 450.6 546 C 450.25 544.04 450.18 539.17 450.51 537 C 450.85 534.83 452.99 527.07 453.83 525 C 454.66 522.93 457.23 518.65 458.56 517 C 459.9 515.35 464.5 510.57 466.72 509 C 468.93 507.43 477.28 502.9 480 501.83 C 482.72 500.75 490.31 498.93 493 498.59 C 495.69 498.25 501.97 497.92 506 498.52 C 510.03 499.12 528.07 503.8 532 504.41 C 535.93 505.03 541.42 505.02 544 504.48 C 546.58 503.94 554.72 500.78 557 499.18 C 559.28 497.58 564.72 491.5 566.11 489 C 567.49 486.5 570.49 478.2 570.39 475 C 570.3 471.8 566.57 460.63 565.18 458 C 563.8 455.37 558.78 450.98 557 449.56 C 555.22 448.14 550.38 445.38 548 444.27 C 545.62 443.16 537.51 439.83 534 438.83 C 530.49 437.83 518.96 435.03 514 434.59 C 509.04 434.16 490.55 434.25 486 434.59 C 481.45 434.92 473.51 436.83 470 437.83 C 466.49 438.83 456.86 441.64 452 444.3 C 447.14 446.96 427.88 459.35 423 463.56 C 418.12 467.76 408.04 479.99 404.82 485 C 401.6 490.01 393.63 506.63 391.84 512 C 390.05 517.37 387.84 532.35 387.5 537 Z"/>
</svg>
