<svg xmlns="http://www.w3.org/2000/svg" viewBox="0 0 1254 1254" width="1254" height="1254" role="img" aria-label="Virion Release icon">
  <path fill="#fff" fill-rule="evenodd" d="M 182.5 1079 C 181.96 1081.89 182.36 1089.04 182.6 1091 C 182.84 1092.96 184.1 1096.45 184.82 1098 C 185.54 1099.55 188.33 1104.45 189.56 1106 C 190.8 1107.55 194.31 1111.61 196.73 1113 C 199.16 1114.39 210.18 1118.75 213 1119.41 C 215.82 1120.07 221.83 1119.72 224 1119.42 C 226.17 1119.12 231.93 1117.42 234 1116.49 C 236.07 1115.57 239.5 1114.72 244 1110.43 C 248.5 1106.15 270.83 1081.35 277.52 1075 C 284.21 1068.65 301.23 1054.39 308.72 1049 C 316.21 1043.61 342.84 1026.86 350 1022.82 C 357.16 1018.77 371.49 1012.41 378 1009.83 C 384.51 1007.25 399.15 1001.19 413 997.82 C 426.85 994.45 493.81 981.59 512 977.18 C 530.19 972.77 573.36 960.56 589 955.17 C 604.64 949.78 645.82 932.79 663.39 925 C 680.96 917.21 740.96 887.8 759 879.83 C 777.04 871.85 808.96 858.58 838 847.83 C 867.04 837.08 997.12 790.69 1040 775.83 C 1082.88 760.97 1230.97 718.03 1253 703.99 C 1275.03 689.96 1277.79 638.33 1253.2 640 C 1228.6 641.67 1043.95 710.63 1015 720.16 C 986.05 729.68 980.85 730.6 973 732.18 C 965.15 733.76 944.27 735.52 939 735.41 C 933.73 735.31 925 732.3 922 731.17 C 919 730.04 912.5 726.63 910 724.44 C 907.5 722.26 900.37 714.49 897.81 710 C 895.26 705.51 887.78 685.96 885.26 681 C 882.74 676.04 876.25 665.77 873.44 662 C 870.62 658.23 862.61 649.06 858 644.51 C 853.39 639.96 832.55 621.98 828.81 618 C 825.08 614.02 822.79 608.79 821.84 606 C 820.89 603.21 819.29 594 819.6 591 C 819.91 588 822.91 579.81 824.82 577 C 826.72 574.19 835.6 565.69 838 563.82 C 840.4 561.94 842.52 560.8 848 558.83 C 853.48 556.86 883.04 548.39 891 544.73 C 898.96 541.07 919.48 527.55 925 523.44 C 930.52 519.34 940.49 509.59 944.44 505 C 948.38 500.41 959.91 484.48 963.19 479 C 966.47 473.52 974.12 457.17 976.18 452 C 978.25 446.83 982.12 433.34 983.17 429 C 984.23 424.66 985.96 414.65 986.4 410 C 986.85 405.35 988.03 390.72 987.49 384 C 986.95 377.28 982.97 352.03 981.17 345 C 979.38 337.97 971.97 320.34 970.11 316 C 968.25 311.66 965.53 306.62 963.19 303 C 960.84 299.38 951.66 285.75 947.44 281 C 943.21 276.25 928.11 261.47 922.28 257 C 916.45 252.53 897.44 240.86 891 237.74 C 884.56 234.62 865.89 228.39 860 226.82 C 854.11 225.25 840.3 222.85 834 222.52 C 827.7 222.18 806.85 222.32 799 223.59 C 791.15 224.86 765.03 232.22 758 234.83 C 750.97 237.44 736.06 245.64 731 248.82 C 725.94 251.99 712.66 262.44 709 265.56 C 705.34 268.68 698.58 275.44 695.56 279 C 692.55 282.56 682.58 295.76 679.81 300 C 677.05 304.24 671.23 314.01 668.83 320 C 666.43 325.99 658.18 351.28 656.6 358 C 655.01 364.72 653.73 379.42 653.51 385 C 653.3 390.58 654.06 407.25 654.5 412 C 654.94 416.75 656.75 426.76 657.82 431 C 658.88 435.24 662.22 447.08 664.83 453 C 667.43 458.92 679.88 483.04 683 488.26 C 686.12 493.48 691.41 499.69 695 503.48 C 698.59 507.28 712.86 521.15 717.72 525 C 722.58 528.85 737.01 537.97 742 540.74 C 746.99 543.51 762.28 549.77 766 551.82 C 769.72 553.86 776.33 559.14 778 560.5 C 779.67 561.86 781.32 563.5 782.18 565 C 783.05 566.5 786.3 572.62 786.4 575 C 786.51 577.38 784.26 585.96 783.18 588 C 782.11 590.04 778.4 593.46 776 594.74 C 773.6 596.02 766.3 599.7 760 600.41 C 753.7 601.12 723.06 600.82 715 601.59 C 706.94 602.35 688.82 605.89 682 607.82 C 675.18 609.75 654.79 617.59 649 620.27 C 643.21 622.96 629.82 631.31 626 633.82 C 622.18 636.33 616.13 640.64 612 644.56 C 607.87 648.48 589.64 667.56 586 671.74 C 582.36 675.92 579.1 681.05 576.81 685 C 574.52 688.95 566.33 703.7 563.83 710 C 561.32 716.3 554.17 739.59 552.6 746 C 551.02 752.41 549.13 766.83 548.6 772 C 548.06 777.17 548.07 790.73 547.4 796 C 546.74 801.27 543.55 818.14 542.17 823 C 540.8 827.86 536.45 838.76 534.11 843 C 531.76 847.24 522.92 860.16 519.5 864 C 516.08 867.84 505.5 877.13 501 880.2 C 496.5 883.27 490.67 888.29 476 893.73 C 461.33 899.17 375.38 926.81 359 932.83 C 342.62 938.85 324.73 948.28 317.5 952 C 310.27 955.72 296.29 963.9 289 968.82 C 281.71 973.73 254.54 993.39 247 999.56 C 239.46 1005.72 222.12 1021.94 216 1028.5 C 209.88 1035.06 191.28 1057.78 187.82 1063 C 184.35 1068.22 183.04 1076.11 182.5 1079 Z M 723.5 383 C 723.17 386.72 723.25 397.38 723.6 401 C 723.94 404.62 725.78 414.38 726.83 418 C 727.88 421.62 731.91 432.38 733.74 436 C 735.58 439.62 742.37 450.06 744.56 453 C 746.76 455.94 751.96 461.84 755 464.44 C 758.04 467.05 769.87 475.83 774 478.18 C 778.13 480.53 791.18 485.92 795 487.18 C 798.82 488.44 807.38 490.08 811 490.41 C 814.62 490.75 825.45 491.06 830 490.41 C 834.55 489.77 850.97 485.54 855 484.17 C 859.03 482.8 865.9 479.12 869 477.18 C 872.1 475.25 882.11 468.02 885 465.44 C 887.89 462.87 894.7 455.3 897 452.26 C 899.3 449.22 905.48 439.54 907.26 436 C 909.03 432.46 913.12 421.51 914.17 418 C 915.22 414.49 917.07 405.82 917.4 402 C 917.74 398.18 917.84 385.24 917.4 381 C 916.97 376.76 914.48 365.03 913.17 361 C 911.86 356.97 906.68 345.51 904.74 342 C 902.8 338.49 896.79 329.84 894.44 327 C 892.09 324.16 885.04 317.01 882 314.56 C 878.96 312.1 868.62 305.2 865 303.26 C 861.38 301.32 850.51 296.92 847 295.82 C 843.49 294.72 834.72 292.92 831 292.59 C 827.28 292.25 815.03 292.15 811 292.59 C 806.97 293.03 796.03 295.45 792 296.82 C 787.97 298.19 775.62 303.78 772 305.82 C 768.38 307.86 759.94 313.97 757 316.57 C 754.06 319.17 745.76 328.27 743.56 331 C 741.37 333.73 737.47 339.49 735.74 343 C 734.01 346.51 728.09 360.87 726.83 365 C 725.56 369.13 723.83 379.28 723.5 383 Z M 962.61 220 C 962.51 221.76 963.2 225.35 963.84 227 C 964.48 228.65 967.35 234.37 968.81 236 C 970.28 237.63 975.71 241.86 978 242.73 C 980.29 243.6 988.31 244.78 991 244.41 C 993.69 244.05 997.57 244.92 1004 239.2 C 1010.43 233.47 1047.71 195.22 1053.2 189 C 1058.7 182.78 1056.73 180.86 1057.17 179 C 1057.62 177.14 1058.02 173.17 1057.5 171 C 1056.98 168.83 1053.17 159.78 1052.19 158 C 1051.2 156.22 1049.47 154.69 1048 153.82 C 1046.53 152.95 1040.17 150 1038 149.59 C 1035.83 149.18 1029.17 149.27 1027 149.82 C 1024.83 150.37 1023.04 149.28 1017 154.88 C 1010.96 160.48 973.95 198.3 968.56 204 C 963.17 209.7 965.44 208.35 964.83 210 C 964.21 211.65 962.71 218.24 962.61 220 Z"/>
</svg>
