<svg xmlns="http://www.w3.org/2000/svg" viewBox="0 0 1254 1254" width="1254" height="1254" role="img" aria-label="Virion Surge icon">
  <path fill="#fff" fill-rule="evenodd" d="M 154.5 1055 C 153.75 1060.06 153.95 1071.66 154.6 1076 C 155.24 1080.34 159.4 1093.69 160.74 1097 C 162.08 1100.31 166.04 1106.04 167.56 1108 C 169.09 1109.96 173.1 1114.13 175.52 1116 C 177.94 1117.87 186.92 1124.13 191 1126.11 C 195.08 1128.09 208.7 1133.39 215 1135.18 C 221.3 1136.97 243.42 1141.94 252 1143.41 C 260.58 1144.88 287.05 1148.37 298 1149.41 C 308.95 1150.45 344.77 1152.85 358 1153.48 C 371.23 1154.11 403.16 1155.29 426 1155.5 C 448.84 1155.71 555.44 1155.81 579 1155.5 C 602.56 1155.19 640.67 1153.32 654 1152.48 C 667.33 1151.65 696.22 1148.97 708 1147.41 C 719.78 1145.85 756.84 1139.71 768 1137.41 C 779.16 1135.11 806.14 1128.22 816 1125.18 C 825.86 1122.14 853.99 1112.13 863.39 1108 C 872.79 1103.87 899.88 1089.32 907 1085.18 C 914.12 1081.05 926.96 1072.05 932.28 1068 C 937.6 1063.95 953.71 1050.44 958.48 1046 C 963.25 1041.56 974.54 1029.55 978.44 1025 C 982.33 1020.45 992.85 1006.86 996.18 1002 C 999.52 997.14 1007.95 983.27 1010.74 978 C 1013.53 972.73 1021.08 956.48 1023.19 951 C 1025.3 945.52 1029.81 930.79 1031.17 925 C 1032.54 919.21 1035.86 902.65 1036.4 895 C 1036.94 887.35 1037.36 860.51 1036.4 851 C 1035.45 841.49 1029.26 811.47 1027.17 803 C 1025.08 794.53 1020.76 781.19 1016.17 769 C 1011.59 756.81 987.85 698.95 982.83 685 C 977.81 671.05 969.8 644.02 967.6 634 C 965.39 623.98 962.02 594.72 961.5 588 C 960.98 581.28 962.05 573.03 962.6 569 C 963.15 564.97 965.35 553.24 966.82 549 C 968.28 544.76 973.93 532.13 976.81 528 C 979.7 523.87 990.67 512.12 994.72 509 C 998.77 505.88 1012.15 499.33 1016 497.84 C 1019.85 496.35 1029.21 494.92 1032 494.59 C 1034.79 494.25 1040.21 494.25 1043 494.59 C 1045.79 494.92 1056.42 497.1 1059 497.84 C 1061.58 498.58 1065.26 499.87 1068 501.74 C 1070.74 503.62 1083.05 513.6 1085.5 516 C 1087.95 518.4 1090.43 522.52 1091.74 525 C 1093.05 527.48 1097.13 535.35 1098.17 540 C 1099.22 544.65 1100.72 566.56 1101.84 570 C 1102.96 573.44 1107.43 573.29 1109 573.31 C 1110.57 573.32 1115.23 572.05 1117 570.16 C 1118.77 568.27 1124.71 558.43 1126.17 555 C 1127.64 551.57 1130.52 541.86 1131.17 537 C 1131.82 532.14 1132.91 513.79 1132.5 508 C 1132.09 502.21 1128.86 486.27 1127.17 481 C 1125.49 475.73 1118.63 461.24 1116.19 457 C 1113.74 452.76 1107.24 443.84 1103.5 440 C 1099.76 436.16 1085.12 423.24 1080 419.82 C 1074.88 416.39 1059.89 409.02 1054 406.83 C 1048.11 404.64 1029.3 399.65 1023 398.59 C 1016.7 397.52 999.61 396.31 993 396.52 C 986.39 396.72 965.41 399.32 959 400.59 C 952.59 401.86 936.68 406.53 931 408.83 C 925.32 411.13 908.86 419.85 904 422.82 C 899.14 425.78 887.87 434.23 884 437.56 C 880.13 440.88 869.68 451.54 866.56 455 C 863.44 458.46 856.87 466.5 853.81 471 C 850.76 475.5 840.62 491.06 837 498.5 C 833.38 505.94 822.72 531.17 818.82 543 C 814.91 554.83 802.34 602.46 799.17 613 C 796 623.54 790.54 638.8 788.17 645 C 785.81 651.2 779.98 665.56 776.26 673 C 772.54 680.44 756.35 709.95 752.19 717 C 748.03 724.05 740.31 735.37 736 741.26 C 731.69 747.15 715.76 767.72 710.44 774 C 705.11 780.28 690.09 796.48 684.46 802 C 678.84 807.52 663.28 821.64 656 827.44 C 648.72 833.25 622.27 852.69 614 858.2 C 605.73 863.71 584.47 876.3 576 880.74 C 567.53 885.18 541.51 897.3 532 901.17 C 522.49 905.04 493.61 915.18 484 918.18 C 474.39 921.18 447.47 928.19 439 930.18 C 430.53 932.17 418.64 935.2 402 937.41 C 385.36 939.62 294.02 949.38 278 951.59 C 261.98 953.8 252.58 957.2 247 958.82 C 241.42 960.44 229.4 964.57 224 967.27 C 218.6 969.98 199.62 981.31 194.72 985 C 189.82 988.69 179.96 998.66 176.56 1003 C 173.16 1007.34 164.11 1021.63 161.83 1027 C 159.55 1032.37 155.25 1049.94 154.5 1055 Z M 158.5 749 C 158.4 756.13 160.43 778.28 161.6 785 C 162.77 791.72 168.26 809.45 169.83 814 C 171.4 818.55 174.97 825.8 176.8 829 C 178.63 832.2 184.24 841.26 187.56 845 C 190.89 848.74 203.99 861.67 209 865.2 C 214.01 868.73 229.59 876.88 236 879.17 C 242.41 881.47 264.8 886.34 271 887.41 C 277.2 888.48 288.66 889.29 296 889.5 C 303.34 889.71 334.77 889.7 342 889.48 C 349.23 889.27 358.66 888.58 366 887.41 C 373.34 886.24 404.11 880.63 413 878.18 C 421.89 875.73 445.36 866.74 452 863.73 C 458.64 860.71 473.35 851.51 477.28 849 C 481.21 846.49 486.93 842.18 490 839.44 C 493.07 836.7 503.51 826.66 507 822.48 C 510.49 818.3 520.52 805.04 523.74 799 C 526.96 792.96 536.13 771.03 538.17 764 C 540.21 756.97 543.05 737.51 543.49 731 C 543.93 724.49 543.57 708.44 542.4 701 C 541.23 693.56 534.78 666.54 532.17 659 C 529.57 651.46 521.5 634.92 517.19 628 C 512.87 621.08 495.8 598.1 490.44 592 C 485.07 585.9 470.91 573.37 465.28 569 C 459.66 564.63 441.4 552.86 436 549.74 C 430.6 546.63 417.55 540.68 413 538.83 C 408.45 536.98 398.1 533.29 392 531.82 C 385.9 530.35 361.96 525.23 354 524.59 C 346.04 523.94 322.13 524.74 315 525.59 C 307.87 526.44 290.79 530.84 285 532.83 C 279.21 534.82 264.01 541.91 259 544.82 C 253.99 547.73 241.39 556.43 236.52 561 C 231.64 565.57 216.12 583.01 211.81 589 C 207.51 594.99 198.65 610.32 194.83 619 C 191.01 627.68 178.17 662.98 174.84 673 C 171.51 683.02 164.28 708.15 162.6 716 C 160.91 723.85 158.6 741.87 158.5 749 Z M 518.5 511 C 518.5 517.41 519.53 546.46 520.6 554 C 521.66 561.54 526.43 577.9 528.83 584 C 531.23 590.1 540.28 607.68 543.82 613 C 547.35 618.32 558.02 631.03 563 635.44 C 567.98 639.86 585.49 652.33 592 655.74 C 598.51 659.15 620.63 666.8 626 668.42 C 631.37 670.05 639.45 671.17 644 671.48 C 648.55 671.8 664.52 672.03 670 671.48 C 675.48 670.93 692.25 667.58 697 666.16 C 701.75 664.74 712.44 659.72 716 657.74 C 719.56 655.76 728.36 649.87 731.48 647 C 734.6 644.13 743.63 633.82 746.18 630 C 748.74 626.18 753.83 617.54 756.17 610 C 758.51 602.46 765.73 567.44 768.83 557 C 771.93 546.56 783.94 515.82 786.17 509 C 788.4 502.18 789.75 495.34 790.4 491 C 791.06 486.66 792.72 472.48 792.49 467 C 792.26 461.52 789.23 442.75 788.17 438 C 787.11 433.25 784.3 425.24 782.26 421 C 780.22 416.76 771.46 401.18 768.44 397 C 765.41 392.82 756.56 383.63 753 380.56 C 749.44 377.48 737.93 369.49 734 367.25 C 730.07 365.01 720.06 360.36 715 358.84 C 709.94 357.33 690.27 353.23 685 352.59 C 679.73 351.94 669.17 352.05 664 352.59 C 658.83 353.13 640.17 356.46 635 357.82 C 629.83 359.18 618.86 363.37 614 365.74 C 609.14 368.12 591.77 378.4 588 380.8 C 584.23 383.2 580.93 385.7 577.52 389 C 574.11 392.3 558.95 407.78 555 412.74 C 551.05 417.7 542.07 431.81 539.26 437 C 536.45 442.19 529.77 457.32 527.84 463 C 525.91 468.68 521.56 487.04 520.6 492 C 519.63 496.96 518.5 504.59 518.5 511 Z M 792.5 296 C 792.29 300.13 792.94 310.07 793.6 314 C 794.25 317.93 797.46 330.28 798.83 334 C 800.19 337.72 804.84 346.9 806.8 350 C 808.76 353.1 814.86 361.19 817.78 364 C 820.69 366.81 831.67 375.1 835 377.18 C 838.33 379.27 846.59 383.01 850 384.17 C 853.41 385.33 864.07 387.97 868 388.41 C 871.93 388.85 883.97 388.95 888 388.41 C 892.03 387.87 904 384.23 907 383.17 C 910 382.11 910.59 382.21 917 378.18 C 923.41 374.16 961.77 349.18 969 344.2 C 976.23 339.21 983.88 333.05 987 329.93 C 990.12 326.81 997.31 317.2 999.19 314 C 1001.07 310.8 1004.22 302.31 1005.18 299 C 1006.15 295.69 1008.26 285.93 1008.49 282 C 1008.72 278.07 1008.06 265.13 1007.4 261 C 1006.75 256.87 1003.64 245.82 1002.17 242 C 1000.7 238.18 995.06 227.15 993.18 224 C 991.31 220.85 986.47 214.2 984 211.52 C 981.53 208.83 973 200.66 969.28 198 C 965.56 195.34 951.65 187.52 948 185.74 C 944.35 183.97 938.13 181.77 934 180.82 C 929.87 179.87 912.55 176.92 908 176.59 C 903.45 176.25 893.51 177.15 890 177.59 C 886.49 178.03 877.51 179.76 874 180.82 C 870.49 181.88 859.72 185.96 856 187.89 C 852.28 189.83 841.35 196.86 838 199.56 C 834.65 202.25 826.06 211.06 823.56 214 C 821.06 216.94 815.94 224.18 813.8 228 C 811.66 231.82 804.71 246.25 802.83 251 C 800.95 255.75 796.66 269.35 795.6 274 C 794.53 278.65 792.71 291.87 792.5 296 Z M 256.5 709 C 256.27 712.62 256.05 725.76 256.6 730 C 257.15 734.24 260.44 746.36 261.83 750 C 263.21 753.64 267.86 762.26 270 765.26 C 272.14 768.26 279.93 776.68 282.52 779 C 285.1 781.32 291.85 786.07 295 787.74 C 298.15 789.41 309.18 794.07 313 795.18 C 316.82 796.29 328.07 798.25 332 798.48 C 335.93 798.71 347.18 797.96 351 797.41 C 354.82 796.86 365.07 794.52 369 793.16 C 372.93 791.79 384.66 786.84 389 784.18 C 393.34 781.52 407.65 770.43 411 767.42 C 414.35 764.4 419.24 758.14 421.44 755 C 423.63 751.86 430.42 740.82 432.26 737 C 434.09 733.18 438.11 722.24 439.17 718 C 440.23 713.76 442.26 699.93 442.49 696 C 442.72 692.07 441.85 683 441.4 680 C 440.96 677 439.32 670.1 438.16 667 C 437 663.9 431.75 652.74 430.19 650 C 428.62 647.26 425.16 642.79 423 640.52 C 420.84 638.24 412.06 630.03 409.27 628 C 406.48 625.97 399.13 622.11 396 620.83 C 392.87 619.55 383.96 616.24 379 615.59 C 374.04 614.95 352.75 614.36 348 614.59 C 343.25 614.82 336.51 616.72 333 617.82 C 329.49 618.92 318.13 623.03 314 625.27 C 309.87 627.52 296.15 637.1 293 639.56 C 289.85 642.01 285.6 646.58 283.52 649 C 281.43 651.42 274.74 660 272.81 663 C 270.88 666 266.27 674.69 264.83 678 C 263.38 681.31 259.69 691.8 258.83 695 C 257.97 698.2 256.73 705.38 256.5 709 Z M 582.69 507 C 583.13 511.55 586.79 532.66 587.84 537 C 588.89 541.34 591.09 546 592.81 549 C 594.54 552 601.34 562.88 604.56 566 C 607.79 569.12 620.75 577.48 624 579.17 C 627.25 580.87 633.31 582.08 636 582.41 C 638.69 582.75 647.21 582.75 650 582.41 C 652.79 582.08 660.21 580.23 663 579.17 C 665.79 578.11 673.18 575.07 677 572.18 C 680.82 569.3 696.72 554.79 700 551.26 C 703.28 547.73 707.07 541.13 708.74 538 C 710.41 534.87 715.07 524.1 716.17 521 C 717.27 517.9 719.07 511.62 719.4 508 C 719.74 504.38 720.36 490.86 719.4 486 C 718.45 481.14 711.88 464.56 710.19 461 C 708.49 457.44 704.95 453.58 703 451.52 C 701.05 449.45 694.9 443.24 691.28 441 C 687.66 438.76 671.54 431.21 668 429.82 C 664.46 428.43 659.79 427.82 657 427.59 C 654.21 427.36 644.93 426.74 641 427.59 C 637.07 428.44 622.15 434.34 619 435.83 C 615.85 437.32 612.69 439.94 610.52 442 C 608.35 444.06 600.34 452.33 598 455.74 C 595.66 459.15 589.33 471.15 587.84 475 C 586.35 478.85 584.13 489.69 583.6 493 C 583.06 496.31 582.25 502.45 582.69 507 Z M 841.5 282 C 840.86 285.2 841.36 292.83 841.6 295 C 841.84 297.17 843.06 301.22 843.83 303 C 844.59 304.78 847.59 310.4 849 312.26 C 850.41 314.12 854.93 319.25 857.52 321 C 860.1 322.75 870.33 328.1 874 329.18 C 877.67 330.26 889.38 331.61 893 331.41 C 896.62 331.21 905.34 329.06 909 327.26 C 912.66 325.46 925.22 317.33 928.44 314 C 931.66 310.67 938.51 299.13 940.17 295 C 941.83 290.87 944.43 277.72 944.49 274 C 944.55 270.28 942.02 261.84 940.73 259 C 939.44 256.16 934.56 248.74 932 246.56 C 929.44 244.37 919.82 238.98 916 237.84 C 912.18 236.71 899.03 235.38 895 235.59 C 890.97 235.79 880.72 238.28 877 239.83 C 873.28 241.38 862.02 248.06 859 250.56 C 855.98 253.05 849.62 260.75 847.81 264 C 846.01 267.25 842.14 278.8 841.5 282 Z"/>
</svg>
