<svg xmlns="http://www.w3.org/2000/svg" viewBox="0 0 1254 1254" width="1254" height="1254" role="img" aria-label="Virion Assembly icon">
  <path fill="#fff" fill-rule="evenodd" d="M 255.5 608 C 255.09 618.33 255.76 641.08 256.6 651 C 257.43 660.92 261.51 693.15 263.6 704 C 265.69 714.85 273.7 745.98 276.83 756 C 279.95 766.02 290.21 792.63 293.83 801 C 297.44 809.37 307.46 829.33 311.81 837 C 316.17 844.67 329.57 866.53 336 875.26 C 342.43 883.99 366.77 913.61 374 921.48 C 381.23 929.35 398.97 945.58 406 951.44 C 413.03 957.3 433.11 972.52 442 978.18 C 450.89 983.85 482.18 1001.61 492 1006.26 C 501.82 1010.91 529.35 1020.68 537 1023.18 C 544.65 1025.68 558.46 1029.06 566 1030.44 C 573.54 1031.81 600.6 1035.97 610 1036.48 C 619.4 1037 647.8 1036.37 657 1035.41 C 666.2 1034.45 691.04 1029.52 699 1027.18 C 706.96 1024.84 728.21 1015.69 734 1012.73 C 739.79 1009.76 751.13 1001.62 755 998.44 C 758.87 995.27 768.54 985.51 771.44 982 C 774.33 978.49 780.96 968.43 783 964.5 C 785.04 960.57 789.98 948.29 791.17 944 C 792.36 939.71 794.26 927.24 794.49 923 C 794.72 918.76 794.06 907.03 793.4 903 C 792.75 898.97 789.54 887.72 788.17 884 C 786.81 880.28 781.92 870.1 780.19 867 C 778.46 863.9 773.94 856.94 771.44 854 C 768.94 851.06 759.04 841.11 756 838.56 C 752.96 836 745.2 830.99 742 829.26 C 738.8 827.53 728.2 822.95 725 821.84 C 721.8 820.74 714.31 819.03 711 818.59 C 707.69 818.15 697.55 817.28 693 817.59 C 688.45 817.9 674.96 819.95 667 821.59 C 659.04 823.22 624.78 832.19 616 833.41 C 607.22 834.63 587.17 833.75 582 833.41 C 576.83 833.08 570.13 831.49 566 830.18 C 561.87 828.87 546.44 822.99 542 820.74 C 537.56 818.49 526.57 811.21 523 808.44 C 519.43 805.68 510.72 797.56 507.5 794 C 504.28 790.44 495.04 778.96 491.81 774 C 488.59 769.04 479.06 751.99 476.27 746 C 473.48 740.01 466.97 723.03 464.83 716 C 462.69 708.97 456.97 685.23 455.6 678 C 454.22 670.77 452.04 653.34 451.51 646 C 450.99 638.66 450.4 614.23 450.51 607 C 450.62 599.77 451.86 582.51 452.6 576 C 453.33 569.49 456.44 549.99 457.6 544 C 458.76 538.01 461.94 524.1 463.83 518 C 465.71 511.9 473.45 490.68 475.83 485 C 478.2 479.32 484.01 467.78 486.81 463 C 489.62 458.22 500.14 442.67 503 438.74 C 505.86 434.81 510.71 428.8 514.5 425 C 518.29 421.2 535.22 405.64 539.72 402 C 544.21 398.36 553.53 392.31 558 389.82 C 562.47 387.32 576.39 380.13 583 377.83 C 589.61 375.53 613.11 368.65 622 367.59 C 630.89 366.53 661.46 367.06 669 367.6 C 676.54 368.14 690.14 371.56 695 372.82 C 699.86 374.08 708.66 376.53 716 379.83 C 723.34 383.13 758.35 401.28 766 404.73 C 773.65 408.18 785.14 412.28 790 413.18 C 794.86 414.08 808.76 414.04 813 413.42 C 817.24 412.8 827.38 409.04 831 407.18 C 834.62 405.33 844.18 398.62 848 395.44 C 851.82 392.27 864.16 380.76 868 376.48 C 871.84 372.2 882.7 357.77 885.2 354 C 887.7 350.23 891.03 343.2 892.19 340 C 893.35 336.8 895.97 326.41 896.4 323 C 896.84 319.59 896.74 310.2 896.4 307 C 896.07 303.8 894.26 295.2 893.16 292 C 892.06 288.8 887.51 279.05 885.74 276 C 883.97 272.95 878.76 265.56 876 262.52 C 873.24 259.48 862.93 249.62 859 246.56 C 855.07 243.5 842.2 235.33 838 232.89 C 833.8 230.46 826.24 226.11 818.39 223 C 810.54 219.89 771.65 205.76 762 202.82 C 752.35 199.88 732.13 195.85 725 194.59 C 717.87 193.32 701.89 191.01 693 190.59 C 684.11 190.17 649.85 189.79 639 190.52 C 628.15 191.24 598.64 195.39 588 197.59 C 577.36 199.79 547.16 207.87 536 211.83 C 524.84 215.79 490.67 230.4 480 235.89 C 469.33 241.39 442.17 258.27 432.72 265 C 423.27 271.73 396.9 293.15 388.52 301 C 380.13 308.85 358.66 332.22 351.56 341 C 344.46 349.78 325.53 376.8 319.81 386 C 314.1 395.2 300.92 419.56 296.27 430 C 291.62 440.44 278.52 474.5 274.83 487 C 271.14 499.5 262.59 538.5 260.6 551 C 258.6 563.5 255.91 597.67 255.5 608 Z M 534.5 537 C 533.8 541.86 534.27 554.59 534.51 558 C 534.75 561.41 535.87 567 536.83 570 C 537.78 573 542.22 584 543.74 587 C 545.27 590 549.88 596.78 551.56 599 C 553.24 601.22 557.37 606.15 560 608.44 C 562.63 610.74 570.87 617.72 577 621.18 C 583.13 624.65 614.31 639.13 619.28 642 C 624.25 644.87 624.27 647.45 625.11 649 C 625.95 650.55 627.69 654.52 627.39 657 C 627.09 659.48 623.75 670.21 622.19 673 C 620.63 675.79 614.88 682.02 612.28 684 C 609.68 685.98 600.96 690.74 597 692.17 C 593.04 693.6 577.87 696.3 574 697.83 C 570.13 699.36 561.78 705.02 559.58 707 C 557.39 708.98 553.75 715.04 552.74 717 C 551.74 718.96 550.03 723.21 549.83 726 C 549.63 728.79 549.58 740.44 550.84 744 C 552.1 747.56 559.19 757.94 562 760.44 C 564.81 762.94 574.69 767.36 578 768.18 C 581.31 769 589.87 769.03 594 768.41 C 598.13 767.79 612.42 764.36 618 762.17 C 623.58 759.98 643.4 749.9 648 747.2 C 652.6 744.49 659.59 738.68 662.48 736 C 665.38 733.32 673.7 724.15 676 721.26 C 678.3 718.37 682.97 711.33 684.74 708 C 686.51 704.67 691.76 693.44 693.17 689 C 694.58 684.56 697.85 668.93 698.4 665 C 698.95 661.07 699.13 655.24 698.49 651 C 697.84 646.76 693.94 628.75 692.17 624 C 690.41 619.25 683.42 607.94 681.44 605 C 679.46 602.06 675.63 597.85 673 595.56 C 670.37 593.26 662.2 586.44 656 582.82 C 649.8 579.19 618.29 563.94 613 560.44 C 607.71 556.95 605.57 551.22 604.83 549 C 604.09 546.78 605.2 540.99 605.84 539 C 606.48 537.01 609.74 531.44 611 529.74 C 612.26 528.04 615.73 524.31 618 522.51 C 620.27 520.7 629.18 514.29 633 512.26 C 636.82 510.23 648.9 504.71 655 502.84 C 661.1 500.97 687.35 495.56 692 494.17 C 696.65 492.79 698.43 490.7 700 489.44 C 701.57 488.19 705.8 484.32 707.18 482 C 708.57 479.68 712.76 469.89 713.4 467 C 714.05 464.11 713.78 456.38 713.4 454 C 713.03 451.62 710.79 445.96 709.74 444 C 708.69 442.04 705.05 436.63 703.22 435 C 701.39 433.37 693.99 429.24 692 428.27 C 690.01 427.3 686.38 425.87 684 425.59 C 681.62 425.3 674.06 424.77 669 425.52 C 663.94 426.27 641.92 430.57 635 432.82 C 628.08 435.07 607.37 444.5 602 447.26 C 596.63 450.02 587.34 456.1 583 459.56 C 578.66 463.02 563.64 476.77 560 480.74 C 556.36 484.71 549.75 494.87 547.81 498 C 545.88 501.13 542.65 506.97 541.27 511 C 539.9 515.03 535.2 532.14 534.5 537 Z M 814.5 794 C 814.4 797.72 815.56 806.87 816.83 811 C 818.1 815.13 823.95 829.14 826.81 834 C 829.68 838.86 840.93 853.82 844.56 858 C 848.2 862.18 858.34 871.52 862 874.44 C 865.66 877.36 876.07 884.4 880 886.26 C 883.93 888.11 896.28 891.9 900 892.41 C 903.72 892.92 912.9 891.93 916 891.18 C 919.1 890.43 926.96 887.27 930 885.18 C 933.04 883.1 942.21 874.74 945.44 871 C 948.66 867.26 957.59 854.79 961.19 849 C 964.78 843.21 976.54 822.75 980.26 815 C 983.97 807.25 994.48 781.34 997.16 774 C 999.84 766.66 1004.7 749.89 1006.17 744 C 1007.64 738.11 1010.86 721.86 1011.4 717 C 1011.94 712.14 1011.95 700.82 1011.4 697 C 1010.86 693.18 1007.39 682.84 1006.11 680 C 1004.83 677.16 1001.18 671.81 999 669.52 C 996.82 667.23 988 659.75 985 657.82 C 982 655.89 972.89 651.9 970 650.84 C 967.11 649.79 960.51 648.14 957 647.59 C 953.49 647.04 941.37 645.72 936 645.52 C 930.63 645.31 910.17 645.25 905 645.59 C 899.83 645.93 889.41 647.87 886 648.82 C 882.59 649.77 874.73 653.04 872 654.82 C 869.27 656.59 861.75 663.29 859.56 666 C 857.38 668.71 855.14 669.74 850.83 681 C 846.51 692.26 821.58 763.32 817.83 775 C 814.08 786.68 814.6 790.28 814.5 794 Z M 830.5 468 C 830.07 471 829.26 474.7 830.6 481 C 831.93 487.3 841.31 519.8 843.4 529 C 845.49 538.2 849.13 563.7 850.83 570 C 852.52 576.3 858.19 587.11 859.81 590 C 861.43 592.89 864.95 596.53 866.52 598 C 868.09 599.47 873.09 603.03 875 604.18 C 876.91 605.34 882 608.11 885 609.17 C 888 610.23 900.18 613.66 904 614.41 C 907.82 615.17 916.42 616.28 922 616.48 C 927.58 616.69 952.63 616.75 958 616.41 C 963.37 616.07 970.8 614.13 974 613.18 C 977.2 612.23 986.26 608.65 989 607.18 C 991.74 605.72 998.19 601.19 1000.48 599 C 1002.78 596.81 1009.23 589.62 1011.19 586 C 1013.14 582.38 1018.44 569.37 1019.4 564 C 1020.37 558.63 1020.71 539.37 1020.5 534 C 1020.29 528.63 1018.47 517.17 1017.4 512 C 1016.34 506.83 1012.06 489.99 1010.17 484 C 1008.29 478.01 1001.96 460.41 999.17 454 C 996.39 447.59 986.88 428.2 983.19 422 C 979.49 415.8 966.66 397.84 963.44 394 C 960.21 390.16 954.42 386.28 952 384.82 C 949.58 383.35 942.69 380.46 940 379.82 C 937.31 379.18 929.1 378.28 926 378.59 C 922.9 378.9 913.1 381.67 910 382.83 C 906.9 383.99 899.62 387.47 896 389.82 C 892.38 392.16 879.9 401.3 875 405.56 C 870.1 409.81 852.72 426.2 848.56 431 C 844.4 435.8 836.61 448.18 834.74 452 C 832.88 455.82 830.93 465 830.5 468 Z"/>
</svg>
