<svg xmlns="http://www.w3.org/2000/svg" viewBox="0 0 128 128" role="img" aria-label="Biomass spore stack icon">
  <defs>
    <filter id="soft-glow" x="-30%" y="-30%" width="160%" height="160%">
      <feGaussianBlur in="SourceAlpha" stdDeviation="3" result="blur"/>
      <feMerge>
        <feMergeNode in="blur"/>
        <feMergeNode in="SourceGraphic"/>
      </feMerge>
    </filter>
  </defs>
  <g fill="#fff" filter="url(#soft-glow)">
    <path d="M33 84c-9-2-15-9-15-18 0-12 10-21 22-21 5-13 17-22 32-22 19 0 34 14 34 32 0 5-1 10-4 14 6 4 10 10 10 17 0 12-10 21-22 21H39c-9 0-16-6-16-14 0-4 2-7 10-9Z"/>
  </g>
  <g fill="#0c0e0f">
    <circle cx="44" cy="66" r="10"/>
    <circle cx="69" cy="49" r="12"/>
    <circle cx="89" cy="79" r="10"/>
    <circle cx="39" cy="91" r="4"/>
    <circle cx="58" cy="86" r="4"/>
    <circle cx="82" cy="61" r="4"/>
    <circle cx="94" cy="45" r="4"/>
  </g>
</svg>
