<svg xmlns="http://www.w3.org/2000/svg" viewBox="0 0 64 64" aria-hidden="true" focusable="false">
  <path fill="#fff" fill-rule="evenodd" d="M31.8 5.5c5.1 0 8.9 3.3 10.5 7.5 4.5-1 9.3.5 12.1 4.5 2.8 4 2.5 9.1.1 12.8 3.5 3 5.2 7.8 3.6 12.5-1.6 4.6-5.8 7.4-10.4 7.6-1.2 4.5-4.9 8.1-9.8 8.7-4.8.6-9.2-1.9-11.3-6-4.2 1.9-9.3 1.2-12.8-2.2-3.5-3.4-4.3-8.4-2.3-12.6-4-2.3-6.4-6.7-5.7-11.6.7-4.8 4.2-8.5 8.7-9.7.2-4.6 3.2-8.8 7.8-10.4 3.3-1.2 6.7-.7 9.5.9Zm-10 15.1a5.8 5.8 0 1 0 0 11.6 5.8 5.8 0 0 0 0-11.6Zm20.7 4.1a7.2 7.2 0 1 0 0 14.4 7.2 7.2 0 0 0 0-14.4ZM27.7 38.1a6.5 6.5 0 1 0 0 13 6.5 6.5 0 0 0 0-13Z"/>
</svg>
