<svg xmlns="http://www.w3.org/2000/svg" width="512" height="512" viewBox="0 0 512 512">
  <defs>
    <clipPath id="ruptured-host-silhouette">
      <path d="M177 39c62-17 128 12 159 66 27 48 17 99-16 133 33 35 41 87 13 134-33 56-103 82-167 61-62-20-108-73-113-137-35-44-33-108-1-155 26-39 67-62 109-62-9-18-2-35 16-40Z" />
    </clipPath>
  </defs>
  <path
    fill="#fff"
    fill-rule="evenodd"
    clip-path="url(#ruptured-host-silhouette)"
    d="M177 39c62-17 128 12 159 66 27 48 17 99-16 133 33 35 41 87 13 134-33 56-103 82-167 61-62-20-108-73-113-137-35-44-33-108-1-155 26-39 67-62 109-62-9-18-2-35 16-40Zm-40 163c27-23 70-19 93 9 23 29 13 73-20 93-33 20-77 5-92-30-11-27-4-53 19-72Zm133-17 148-59v234l-149-57c30-31 32-86 1-118Z"
  />
  <path
    fill="#fff"
    d="M392 137c22-15 53-7 64 17 11 23-1 51-25 61-24 9-51-4-57-29-6-19 1-38 18-49ZM442 239c14-9 33-3 40 12 7 16-1 35-17 41-16 5-33-4-37-20-4-13 2-26 14-33ZM385 324c23-14 53-4 62 21 9 25-7 52-33 57-26 4-50-15-50-41 0-15 8-29 21-37Z"
  />
</svg>
