<svg xmlns="http://www.w3.org/2000/svg" width="512" height="512" viewBox="0 0 512 512">
  <path
    fill="#fff"
    fill-rule="evenodd"
    d="M164 122c64-10 118 33 126 97 7 62-33 119-93 133-60 14-121-19-140-76-20-59 9-123 65-146 13-5 27-7 42-8Zm-41 96c21-14 50-7 60 16 11 24-2 52-27 58-24 6-48-10-52-35-3-16 5-30 19-39Z"
  />
  <path
    fill="#fff"
    fill-rule="evenodd"
    d="M303 43c60-16 120 19 140 76 20 57-7 120-62 146-54 26-120 6-152-45-31-50-17-117 31-153 13-10 28-18 43-24Zm31 72c22-11 49-1 58 22 9 24-4 50-28 57-24 7-49-7-55-31-4-20 6-39 25-48Z"
  />
  <path
    fill="#fff"
    fill-rule="evenodd"
    d="M334 237c63-2 116 41 128 102 12 62-26 122-86 139-60 17-124-15-146-73-22-57 3-123 57-154 14-8 30-13 47-14Zm-1 93c22-14 51-7 62 16 11 24-1 52-26 59-25 8-51-7-56-33-4-17 4-33 20-42Z"
  />
</svg>
