<svg xmlns="http://www.w3.org/2000/svg" viewBox="0 0 64 64" role="img" aria-label="Biomass host mass icon">
  <path fill="#fff" d="M10 43c0-9 7-16 16-17 2-8 8-13 16-13 10 0 17 8 17 18 0 2 0 4-1 6 3 2 5 5 5 9H12c-1-1-2-2-2-3Z"/>
  <path fill="#0c0e0f" d="M18 44c7 5 19 7 31 2 5-2 8 4 3 7-13 7-32 5-41-3-4-4 3-9 7-6Z"/>
  <circle cx="25" cy="34" r="5" fill="#0c0e0f"/>
  <circle cx="42" cy="25" r="6" fill="#0c0e0f"/>
  <circle cx="50" cy="38" r="4" fill="#0c0e0f"/>
  <circle cx="25" cy="34" r="2" fill="#fff"/>
  <circle cx="42" cy="25" r="2.5" fill="#fff"/>
  <circle cx="50" cy="38" r="1.8" fill="#fff"/>
</svg>
