<svg xmlns="http://www.w3.org/2000/svg" viewBox="0 0 64 64" aria-hidden="true" focusable="false">
  <path fill="#fff" fill-rule="evenodd" d="M32 4.5c4 0 7.2 3.2 7.2 7.2v3.4l3-1.7a7.2 7.2 0 0 1 9.8 2.7 7.2 7.2 0 0 1-2.7 9.8l-2.9 1.7 2.9 1.7a7.2 7.2 0 0 1 2.7 9.8 7.2 7.2 0 0 1-9.8 2.7l-3-1.7v3.4a7.2 7.2 0 1 1-14.4 0v-3.4l-3 1.7a7.2 7.2 0 0 1-9.8-2.7 7.2 7.2 0 0 1 2.7-9.8l2.9-1.7-2.9-1.7a7.2 7.2 0 0 1-2.7-9.8 7.2 7.2 0 0 1 9.8-2.7l3 1.7v-3.4c0-4 3.2-7.2 7.2-7.2Zm0 17.1a10.7 10.7 0 1 0 0 21.4 10.7 10.7 0 0 0 0-21.4Zm0 7.2a3.5 3.5 0 1 0 0 7 3.5 3.5 0 0 0 0-7Z"/>
</svg>
