<svg xmlns="http://www.w3.org/2000/svg" viewBox="0 0 64 64" aria-hidden="true" focusable="false">
  <path fill="#fff" d="M25.6 7.1c2.2-.5 4.4 1 4.8 3.2l2 10.5-7.8 1.5-2-10.4c-.5-2.2.9-4.3 3-4.8ZM11.2 16.4c1.5-1.7 4-1.8 5.7-.3l7.8 7-5.3 5.9-7.8-7c-1.7-1.5-1.8-4-.4-5.6ZM6.1 34.2c.2-2.2 2.2-3.9 4.4-3.7l10.4.9-.7 8-10.4-.9a4 4 0 0 1-3.7-4.3ZM17.2 49.1c-1.2-1.9-.6-4.4 1.3-5.5l8.9-5.5 4.2 6.8-8.9 5.5a4 4 0 0 1-5.5-1.3Z"/>
  <path fill="#fff" fill-rule="evenodd" d="M34.2 20.1c6.8-1.8 14.1.9 18.1 6.8 4 5.8 3.8 13.6-.5 19.2-4.3 5.6-11.8 7.9-18.5 5.6l3.5-10.1a6.1 6.1 0 0 0 6.6-2 6 6 0 0 0 .2-6.9 6.1 6.1 0 0 0-6.5-2.4l-2.9-10.2Z"/>
  <path fill="#fff" d="M52.5 13.3c1.9 2.8.9 6.7-2 8.6-3 1.8-7 .8-8.8-2.1-1.8-3-.7-6.8 2.4-8.5 3-1.7 6.6-.8 8.4 2ZM58.5 28.7c1.1 1.7.5 4.1-1.3 5.2-1.8 1.1-4.2.5-5.3-1.3-1-1.8-.4-4.1 1.4-5.1 1.8-1 4.1-.5 5.2 1.2Z"/>
</svg>
