<svg xmlns="http://www.w3.org/2000/svg" viewBox="0 0 64 64" role="img" aria-label="Biomass lysis core icon">
  <path fill="#fff" d="M32 8c10 0 18 6 20 15 8 2 10 10 6 16-4 7-12 10-20 9-5 8-15 9-22 4-7-5-9-14-4-21-6-7-2-17 7-20 3-2 8-3 13-3Z"/>
  <path fill="#0c0e0f" d="M16 28c8-5 16-5 23 0 5 3 9 3 14-1 3-2 7 2 4 5-7 8-16 8-24 3-5-3-9-3-14 1-4 3-7-5-3-8Z"/>
  <path fill="#0c0e0f" d="M27 13c4 4 5 9 3 15-2 5-1 9 3 14 3 4-4 7-7 3-6-8-6-16-2-23 2-4 1-6-1-8-3-4 1-5 4-1Z"/>
  <circle cx="22" cy="40" r="3" fill="#fff"/>
  <circle cx="44" cy="22" r="3" fill="#fff"/>
</svg>
