<svg xmlns="http://www.w3.org/2000/svg" width="512" height="512" viewBox="0 0 512 512">
  <path
    fill="#fff"
    d="M86 139c49-58 139-84 223-67 51 10 94 35 122 71 17 22 9 53-14 64-21 10-43 0-58-16-31-32-76-46-122-43-48 3-89 22-119 53-15 16-40 15-57 0-18-16-16-43 1-57 7-6 15-8 24-5Z"
  />
  <path
    fill="#fff"
    d="M77 248c47-24 103-36 161-30 59 6 104 30 152 24 28-3 57-16 76-1 20 16 18 46-2 61-28 21-63 22-95 22-50-1-91-21-140-27-48-6-90 4-127 24-24 13-53 2-62-23-8-22 8-38 37-50Z"
  />
  <path
    fill="#fff"
    d="M110 358c47-31 104-37 154-21 53 17 96 16 135-9 23-15 52-2 58 24 5 22-9 39-28 50-56 36-123 44-187 25-49-15-92-11-129 10-22 13-50-1-54-27-4-23 13-41 51-52Z"
  />
</svg>
