<svg xmlns="http://www.w3.org/2000/svg" viewBox="0 0 128 128" role="img" aria-label="Biomass strands icon">
  <defs>
    <mask id="strands-cutouts">
      <rect width="128" height="128" fill="black"/>
      <g fill="white">
        <circle cx="48" cy="54" r="22"/>
        <circle cx="78" cy="48" r="20"/>
        <circle cx="75" cy="81" r="24"/>
        <circle cx="42" cy="85" r="17"/>
        <path d="M31 70c-11 5-18 13-20 24-1 7 7 10 11 4 5-8 12-12 22-13l-13-15Z"/>
        <path d="M88 67c16 2 26 10 30 24 2 7-6 12-11 6-6-8-14-13-26-14l7-16Z"/>
      </g>
      <g fill="black">
        <circle cx="48" cy="54" r="10"/>
        <circle cx="78" cy="48" r="9"/>
        <circle cx="74" cy="82" r="11"/>
        <path d="M39 82c16 6 34 4 48-8 4-3 8 2 4 6-14 16-39 22-58 12-5-3-1-13 6-10Z"/>
        <circle cx="33" cy="45" r="4"/>
        <circle cx="62" cy="33" r="4"/>
        <circle cx="95" cy="62" r="4"/>
        <circle cx="55" cy="96" r="4"/>
      </g>
    </mask>
  </defs>
  <rect width="128" height="128" fill="none"/>
  <g mask="url(#strands-cutouts)">
    <rect width="128" height="128" fill="#ffffff"/>
  </g>
</svg>
