<svg xmlns="http://www.w3.org/2000/svg" viewBox="0 0 128 128" role="img" aria-label="Biomass growth ring icon">
  <path fill="#fff" d="M64 12c27 0 49 22 49 49 0 34-30 53-49 55-20-2-49-21-49-55 0-27 22-49 49-49Z"/>
  <path fill="#0c0e0f" d="M64 29c18 0 32 14 32 32 0 22-19 34-32 37-13-3-32-15-32-37 0-18 14-32 32-32Zm0 14c-10 0-18 8-18 18 0 12 10 20 18 23 8-3 18-11 18-23 0-10-8-18-18-18Z"/>
  <path fill="#fff" d="M64 52c5 0 9 4 9 9 0 6-5 10-9 12-4-2-9-6-9-12 0-5 4-9 9-9Z"/>
  <path fill="#0c0e0f" d="M39 31c13-12 35-13 50 0-4-19-46-19-50 0Z"/>
</svg>
